<?xml version="1.0" encoding="utf-8" standalone="no"?>
<!DOCTYPE svg PUBLIC "-//W3C//DTD SVG 1.1//EN"
  "http://www.w3.org/Graphics/SVG/1.1/DTD/svg11.dtd">
<svg xmlns:xlink="http://www.w3.org/1999/xlink" width="852.551406pt" height="420.611016pt" viewBox="0 0 852.551406 420.611016" xmlns="http://www.w3.org/2000/svg" version="1.1">
 <metadata>
  <rdf:RDF xmlns:dc="http://purl.org/dc/elements/1.1/" xmlns:cc="http://creativecommons.org/ns#" xmlns:rdf="http://www.w3.org/1999/02/22-rdf-syntax-ns#">
   <cc:Work>
    <dc:type rdf:resource="http://purl.org/dc/dcmitype/StillImage"/>
    <dc:date>2026-01-26T19:59:13.339954</dc:date>
    <dc:format>image/svg+xml</dc:format>
    <dc:creator>
     <cc:Agent>
      <dc:title>Matplotlib v3.9.4, https://matplotlib.org/</dc:title>
     </cc:Agent>
    </dc:creator>
   </cc:Work>
  </rdf:RDF>
 </metadata>
 <defs>
  <style type="text/css">*{stroke-linejoin: round; stroke-linecap: butt}</style>
 </defs>
 <g id="figure_1">
  <g id="patch_1">
   <path d="M 0 420.611016 
L 852.551406 420.611016 
L 852.551406 0 
L 0 0 
z
" style="fill: #ffffff"/>
  </g>
  <g id="axes_1">
   <g id="patch_2">
    <path d="M 53.081406 378.876797 
L 422.891406 378.876797 
L 422.891406 11.136797 
L 53.081406 11.136797 
z
" style="fill: #ffffff"/>
   </g>
   <g id="matplotlib.axis_1">
    <g id="xtick_1">
     <g id="line2d_1">
      <path d="M 80.396918 378.876797 
L 80.396918 11.136797 
" clip-path="url(#p0c3f9147f2)" style="fill: none; stroke: #cccccc; stroke-opacity: 0.3; stroke-linecap: round"/>
     </g>
     <g id="text_1">
      <!-- 1900 -->
      <g style="fill: #262626" transform="translate(68.162855 396.250391) scale(0.11 -0.11)">
       <defs>
        <path id="ArialMT-31" d="M 2384 0 
L 1822 0 
L 1822 3584 
Q 1619 3391 1289 3197 
Q 959 3003 697 2906 
L 697 3450 
Q 1169 3672 1522 3987 
Q 1875 4303 2022 4600 
L 2384 4600 
L 2384 0 
z
" transform="scale(0.015625)"/>
        <path id="ArialMT-39" d="M 350 1059 
L 891 1109 
Q 959 728 1153 556 
Q 1347 384 1650 384 
Q 1909 384 2104 503 
Q 2300 622 2425 820 
Q 2550 1019 2634 1356 
Q 2719 1694 2719 2044 
Q 2719 2081 2716 2156 
Q 2547 1888 2255 1720 
Q 1963 1553 1622 1553 
Q 1053 1553 659 1965 
Q 266 2378 266 3053 
Q 266 3750 677 4175 
Q 1088 4600 1706 4600 
Q 2153 4600 2523 4359 
Q 2894 4119 3086 3673 
Q 3278 3228 3278 2384 
Q 3278 1506 3087 986 
Q 2897 466 2520 194 
Q 2144 -78 1638 -78 
Q 1100 -78 759 220 
Q 419 519 350 1059 
z
M 2653 3081 
Q 2653 3566 2395 3850 
Q 2138 4134 1775 4134 
Q 1400 4134 1122 3828 
Q 844 3522 844 3034 
Q 844 2597 1108 2323 
Q 1372 2050 1759 2050 
Q 2150 2050 2401 2323 
Q 2653 2597 2653 3081 
z
" transform="scale(0.015625)"/>
        <path id="ArialMT-30" d="M 266 2259 
Q 266 3072 433 3567 
Q 600 4063 929 4331 
Q 1259 4600 1759 4600 
Q 2128 4600 2406 4451 
Q 2684 4303 2865 4023 
Q 3047 3744 3150 3342 
Q 3253 2941 3253 2259 
Q 3253 1453 3087 958 
Q 2922 463 2592 192 
Q 2263 -78 1759 -78 
Q 1097 -78 719 397 
Q 266 969 266 2259 
z
M 844 2259 
Q 844 1131 1108 757 
Q 1372 384 1759 384 
Q 2147 384 2411 759 
Q 2675 1134 2675 2259 
Q 2675 3391 2411 3762 
Q 2147 4134 1753 4134 
Q 1366 4134 1134 3806 
Q 844 3388 844 2259 
z
" transform="scale(0.015625)"/>
       </defs>
       <use xlink:href="#ArialMT-31"/>
       <use xlink:href="#ArialMT-39" x="55.615234"/>
       <use xlink:href="#ArialMT-30" x="111.230469"/>
       <use xlink:href="#ArialMT-30" x="166.845703"/>
      </g>
     </g>
    </g>
    <g id="xtick_2">
     <g id="line2d_2">
      <path d="M 132.926747 378.876797 
L 132.926747 11.136797 
" clip-path="url(#p0c3f9147f2)" style="fill: none; stroke: #cccccc; stroke-opacity: 0.3; stroke-linecap: round"/>
     </g>
     <g id="text_2">
      <!-- 1920 -->
      <g style="fill: #262626" transform="translate(120.692685 396.250391) scale(0.11 -0.11)">
       <defs>
        <path id="ArialMT-32" d="M 3222 541 
L 3222 0 
L 194 0 
Q 188 203 259 391 
Q 375 700 629 1000 
Q 884 1300 1366 1694 
Q 2113 2306 2375 2664 
Q 2638 3022 2638 3341 
Q 2638 3675 2398 3904 
Q 2159 4134 1775 4134 
Q 1369 4134 1125 3890 
Q 881 3647 878 3216 
L 300 3275 
Q 359 3922 746 4261 
Q 1134 4600 1788 4600 
Q 2447 4600 2831 4234 
Q 3216 3869 3216 3328 
Q 3216 3053 3103 2787 
Q 2991 2522 2730 2228 
Q 2469 1934 1863 1422 
Q 1356 997 1212 845 
Q 1069 694 975 541 
L 3222 541 
z
" transform="scale(0.015625)"/>
       </defs>
       <use xlink:href="#ArialMT-31"/>
       <use xlink:href="#ArialMT-39" x="55.615234"/>
       <use xlink:href="#ArialMT-32" x="111.230469"/>
       <use xlink:href="#ArialMT-30" x="166.845703"/>
      </g>
     </g>
    </g>
    <g id="xtick_3">
     <g id="line2d_3">
      <path d="M 185.456577 378.876797 
L 185.456577 11.136797 
" clip-path="url(#p0c3f9147f2)" style="fill: none; stroke: #cccccc; stroke-opacity: 0.3; stroke-linecap: round"/>
     </g>
     <g id="text_3">
      <!-- 1940 -->
      <g style="fill: #262626" transform="translate(173.222514 396.250391) scale(0.11 -0.11)">
       <defs>
        <path id="ArialMT-34" d="M 2069 0 
L 2069 1097 
L 81 1097 
L 81 1613 
L 2172 4581 
L 2631 4581 
L 2631 1613 
L 3250 1613 
L 3250 1097 
L 2631 1097 
L 2631 0 
L 2069 0 
z
M 2069 1613 
L 2069 3678 
L 634 1613 
L 2069 1613 
z
" transform="scale(0.015625)"/>
       </defs>
       <use xlink:href="#ArialMT-31"/>
       <use xlink:href="#ArialMT-39" x="55.615234"/>
       <use xlink:href="#ArialMT-34" x="111.230469"/>
       <use xlink:href="#ArialMT-30" x="166.845703"/>
      </g>
     </g>
    </g>
    <g id="xtick_4">
     <g id="line2d_4">
      <path d="M 237.986406 378.876797 
L 237.986406 11.136797 
" clip-path="url(#p0c3f9147f2)" style="fill: none; stroke: #cccccc; stroke-opacity: 0.3; stroke-linecap: round"/>
     </g>
     <g id="text_4">
      <!-- 1960 -->
      <g style="fill: #262626" transform="translate(225.752344 396.250391) scale(0.11 -0.11)">
       <defs>
        <path id="ArialMT-36" d="M 3184 3459 
L 2625 3416 
Q 2550 3747 2413 3897 
Q 2184 4138 1850 4138 
Q 1581 4138 1378 3988 
Q 1113 3794 959 3422 
Q 806 3050 800 2363 
Q 1003 2672 1297 2822 
Q 1591 2972 1913 2972 
Q 2475 2972 2870 2558 
Q 3266 2144 3266 1488 
Q 3266 1056 3080 686 
Q 2894 316 2569 119 
Q 2244 -78 1831 -78 
Q 1128 -78 684 439 
Q 241 956 241 2144 
Q 241 3472 731 4075 
Q 1159 4600 1884 4600 
Q 2425 4600 2770 4297 
Q 3116 3994 3184 3459 
z
M 888 1484 
Q 888 1194 1011 928 
Q 1134 663 1356 523 
Q 1578 384 1822 384 
Q 2178 384 2434 671 
Q 2691 959 2691 1453 
Q 2691 1928 2437 2201 
Q 2184 2475 1800 2475 
Q 1419 2475 1153 2201 
Q 888 1928 888 1484 
z
" transform="scale(0.015625)"/>
       </defs>
       <use xlink:href="#ArialMT-31"/>
       <use xlink:href="#ArialMT-39" x="55.615234"/>
       <use xlink:href="#ArialMT-36" x="111.230469"/>
       <use xlink:href="#ArialMT-30" x="166.845703"/>
      </g>
     </g>
    </g>
    <g id="xtick_5">
     <g id="line2d_5">
      <path d="M 290.516236 378.876797 
L 290.516236 11.136797 
" clip-path="url(#p0c3f9147f2)" style="fill: none; stroke: #cccccc; stroke-opacity: 0.3; stroke-linecap: round"/>
     </g>
     <g id="text_5">
      <!-- 1980 -->
      <g style="fill: #262626" transform="translate(278.282173 396.250391) scale(0.11 -0.11)">
       <defs>
        <path id="ArialMT-38" d="M 1131 2484 
Q 781 2613 612 2850 
Q 444 3088 444 3419 
Q 444 3919 803 4259 
Q 1163 4600 1759 4600 
Q 2359 4600 2725 4251 
Q 3091 3903 3091 3403 
Q 3091 3084 2923 2848 
Q 2756 2613 2416 2484 
Q 2838 2347 3058 2040 
Q 3278 1734 3278 1309 
Q 3278 722 2862 322 
Q 2447 -78 1769 -78 
Q 1091 -78 675 323 
Q 259 725 259 1325 
Q 259 1772 486 2073 
Q 713 2375 1131 2484 
z
M 1019 3438 
Q 1019 3113 1228 2906 
Q 1438 2700 1772 2700 
Q 2097 2700 2305 2904 
Q 2513 3109 2513 3406 
Q 2513 3716 2298 3927 
Q 2084 4138 1766 4138 
Q 1444 4138 1231 3931 
Q 1019 3725 1019 3438 
z
M 838 1322 
Q 838 1081 952 856 
Q 1066 631 1291 507 
Q 1516 384 1775 384 
Q 2178 384 2440 643 
Q 2703 903 2703 1303 
Q 2703 1709 2433 1975 
Q 2163 2241 1756 2241 
Q 1359 2241 1098 1978 
Q 838 1716 838 1322 
z
" transform="scale(0.015625)"/>
       </defs>
       <use xlink:href="#ArialMT-31"/>
       <use xlink:href="#ArialMT-39" x="55.615234"/>
       <use xlink:href="#ArialMT-38" x="111.230469"/>
       <use xlink:href="#ArialMT-30" x="166.845703"/>
      </g>
     </g>
    </g>
    <g id="xtick_6">
     <g id="line2d_6">
      <path d="M 343.046065 378.876797 
L 343.046065 11.136797 
" clip-path="url(#p0c3f9147f2)" style="fill: none; stroke: #cccccc; stroke-opacity: 0.3; stroke-linecap: round"/>
     </g>
     <g id="text_6">
      <!-- 2000 -->
      <g style="fill: #262626" transform="translate(330.812003 396.250391) scale(0.11 -0.11)">
       <use xlink:href="#ArialMT-32"/>
       <use xlink:href="#ArialMT-30" x="55.615234"/>
       <use xlink:href="#ArialMT-30" x="111.230469"/>
       <use xlink:href="#ArialMT-30" x="166.845703"/>
      </g>
     </g>
    </g>
    <g id="xtick_7">
     <g id="line2d_7">
      <path d="M 395.575895 378.876797 
L 395.575895 11.136797 
" clip-path="url(#p0c3f9147f2)" style="fill: none; stroke: #cccccc; stroke-opacity: 0.3; stroke-linecap: round"/>
     </g>
     <g id="text_7">
      <!-- 2020 -->
      <g style="fill: #262626" transform="translate(383.341832 396.250391) scale(0.11 -0.11)">
       <use xlink:href="#ArialMT-32"/>
       <use xlink:href="#ArialMT-30" x="55.615234"/>
       <use xlink:href="#ArialMT-32" x="111.230469"/>
       <use xlink:href="#ArialMT-30" x="166.845703"/>
      </g>
     </g>
    </g>
    <g id="text_8">
     <!-- Year -->
     <g style="fill: #262626" transform="translate(225.860781 411.026016) scale(0.12 -0.12)">
      <defs>
       <path id="ArialMT-59" d="M 1784 0 
L 1784 1941 
L 19 4581 
L 756 4581 
L 1659 3200 
Q 1909 2813 2125 2425 
Q 2331 2784 2625 3234 
L 3513 4581 
L 4219 4581 
L 2391 1941 
L 2391 0 
L 1784 0 
z
" transform="scale(0.015625)"/>
       <path id="ArialMT-65" d="M 2694 1069 
L 3275 997 
Q 3138 488 2766 206 
Q 2394 -75 1816 -75 
Q 1088 -75 661 373 
Q 234 822 234 1631 
Q 234 2469 665 2931 
Q 1097 3394 1784 3394 
Q 2450 3394 2872 2941 
Q 3294 2488 3294 1666 
Q 3294 1616 3291 1516 
L 816 1516 
Q 847 969 1125 678 
Q 1403 388 1819 388 
Q 2128 388 2347 550 
Q 2566 713 2694 1069 
z
M 847 1978 
L 2700 1978 
Q 2663 2397 2488 2606 
Q 2219 2931 1791 2931 
Q 1403 2931 1139 2672 
Q 875 2413 847 1978 
z
" transform="scale(0.015625)"/>
       <path id="ArialMT-61" d="M 2588 409 
Q 2275 144 1986 34 
Q 1697 -75 1366 -75 
Q 819 -75 525 192 
Q 231 459 231 875 
Q 231 1119 342 1320 
Q 453 1522 633 1644 
Q 813 1766 1038 1828 
Q 1203 1872 1538 1913 
Q 2219 1994 2541 2106 
Q 2544 2222 2544 2253 
Q 2544 2597 2384 2738 
Q 2169 2928 1744 2928 
Q 1347 2928 1158 2789 
Q 969 2650 878 2297 
L 328 2372 
Q 403 2725 575 2942 
Q 747 3159 1072 3276 
Q 1397 3394 1825 3394 
Q 2250 3394 2515 3294 
Q 2781 3194 2906 3042 
Q 3031 2891 3081 2659 
Q 3109 2516 3109 2141 
L 3109 1391 
Q 3109 606 3145 398 
Q 3181 191 3288 0 
L 2700 0 
Q 2613 175 2588 409 
z
M 2541 1666 
Q 2234 1541 1622 1453 
Q 1275 1403 1131 1340 
Q 988 1278 909 1158 
Q 831 1038 831 891 
Q 831 666 1001 516 
Q 1172 366 1500 366 
Q 1825 366 2078 508 
Q 2331 650 2450 897 
Q 2541 1088 2541 1459 
L 2541 1666 
z
" transform="scale(0.015625)"/>
       <path id="ArialMT-72" d="M 416 0 
L 416 3319 
L 922 3319 
L 922 2816 
Q 1116 3169 1280 3281 
Q 1444 3394 1641 3394 
Q 1925 3394 2219 3213 
L 2025 2691 
Q 1819 2813 1613 2813 
Q 1428 2813 1281 2702 
Q 1134 2591 1072 2394 
Q 978 2094 978 1738 
L 978 0 
L 416 0 
z
" transform="scale(0.015625)"/>
      </defs>
      <use xlink:href="#ArialMT-59"/>
      <use xlink:href="#ArialMT-65" x="57.574219"/>
      <use xlink:href="#ArialMT-61" x="113.189453"/>
      <use xlink:href="#ArialMT-72" x="168.804688"/>
     </g>
    </g>
   </g>
   <g id="matplotlib.axis_2">
    <g id="ytick_1">
     <g id="line2d_8">
      <path d="M 53.081406 364.449244 
L 422.891406 364.449244 
" clip-path="url(#p0c3f9147f2)" style="fill: none; stroke: #cccccc; stroke-opacity: 0.3; stroke-linecap: round"/>
     </g>
     <g id="text_9">
      <!-- 0.45 -->
      <g style="fill: #262626" transform="translate(22.174375 368.386041) scale(0.11 -0.11)">
       <defs>
        <path id="ArialMT-2e" d="M 581 0 
L 581 641 
L 1222 641 
L 1222 0 
L 581 0 
z
" transform="scale(0.015625)"/>
        <path id="ArialMT-35" d="M 266 1200 
L 856 1250 
Q 922 819 1161 601 
Q 1400 384 1738 384 
Q 2144 384 2425 690 
Q 2706 997 2706 1503 
Q 2706 1984 2436 2262 
Q 2166 2541 1728 2541 
Q 1456 2541 1237 2417 
Q 1019 2294 894 2097 
L 366 2166 
L 809 4519 
L 3088 4519 
L 3088 3981 
L 1259 3981 
L 1013 2750 
Q 1425 3038 1878 3038 
Q 2478 3038 2890 2622 
Q 3303 2206 3303 1553 
Q 3303 931 2941 478 
Q 2500 -78 1738 -78 
Q 1113 -78 717 272 
Q 322 622 266 1200 
z
" transform="scale(0.015625)"/>
       </defs>
       <use xlink:href="#ArialMT-30"/>
       <use xlink:href="#ArialMT-2e" x="55.615234"/>
       <use xlink:href="#ArialMT-34" x="83.398438"/>
       <use xlink:href="#ArialMT-35" x="139.013672"/>
      </g>
     </g>
    </g>
    <g id="ytick_2">
     <g id="line2d_9">
      <path d="M 53.081406 317.398051 
L 422.891406 317.398051 
" clip-path="url(#p0c3f9147f2)" style="fill: none; stroke: #cccccc; stroke-opacity: 0.3; stroke-linecap: round"/>
     </g>
     <g id="text_10">
      <!-- 0.50 -->
      <g style="fill: #262626" transform="translate(22.174375 321.334848) scale(0.11 -0.11)">
       <use xlink:href="#ArialMT-30"/>
       <use xlink:href="#ArialMT-2e" x="55.615234"/>
       <use xlink:href="#ArialMT-35" x="83.398438"/>
       <use xlink:href="#ArialMT-30" x="139.013672"/>
      </g>
     </g>
    </g>
    <g id="ytick_3">
     <g id="line2d_10">
      <path d="M 53.081406 270.346859 
L 422.891406 270.346859 
" clip-path="url(#p0c3f9147f2)" style="fill: none; stroke: #cccccc; stroke-opacity: 0.3; stroke-linecap: round"/>
     </g>
     <g id="text_11">
      <!-- 0.55 -->
      <g style="fill: #262626" transform="translate(22.174375 274.283656) scale(0.11 -0.11)">
       <use xlink:href="#ArialMT-30"/>
       <use xlink:href="#ArialMT-2e" x="55.615234"/>
       <use xlink:href="#ArialMT-35" x="83.398438"/>
       <use xlink:href="#ArialMT-35" x="139.013672"/>
      </g>
     </g>
    </g>
    <g id="ytick_4">
     <g id="line2d_11">
      <path d="M 53.081406 223.295666 
L 422.891406 223.295666 
" clip-path="url(#p0c3f9147f2)" style="fill: none; stroke: #cccccc; stroke-opacity: 0.3; stroke-linecap: round"/>
     </g>
     <g id="text_12">
      <!-- 0.60 -->
      <g style="fill: #262626" transform="translate(22.174375 227.232463) scale(0.11 -0.11)">
       <use xlink:href="#ArialMT-30"/>
       <use xlink:href="#ArialMT-2e" x="55.615234"/>
       <use xlink:href="#ArialMT-36" x="83.398438"/>
       <use xlink:href="#ArialMT-30" x="139.013672"/>
      </g>
     </g>
    </g>
    <g id="ytick_5">
     <g id="line2d_12">
      <path d="M 53.081406 176.244474 
L 422.891406 176.244474 
" clip-path="url(#p0c3f9147f2)" style="fill: none; stroke: #cccccc; stroke-opacity: 0.3; stroke-linecap: round"/>
     </g>
     <g id="text_13">
      <!-- 0.65 -->
      <g style="fill: #262626" transform="translate(22.174375 180.181271) scale(0.11 -0.11)">
       <use xlink:href="#ArialMT-30"/>
       <use xlink:href="#ArialMT-2e" x="55.615234"/>
       <use xlink:href="#ArialMT-36" x="83.398438"/>
       <use xlink:href="#ArialMT-35" x="139.013672"/>
      </g>
     </g>
    </g>
    <g id="ytick_6">
     <g id="line2d_13">
      <path d="M 53.081406 129.193281 
L 422.891406 129.193281 
" clip-path="url(#p0c3f9147f2)" style="fill: none; stroke: #cccccc; stroke-opacity: 0.3; stroke-linecap: round"/>
     </g>
     <g id="text_14">
      <!-- 0.70 -->
      <g style="fill: #262626" transform="translate(22.174375 133.130078) scale(0.11 -0.11)">
       <defs>
        <path id="ArialMT-37" d="M 303 3981 
L 303 4522 
L 3269 4522 
L 3269 4084 
Q 2831 3619 2401 2847 
Q 1972 2075 1738 1259 
Q 1569 684 1522 0 
L 944 0 
Q 953 541 1156 1306 
Q 1359 2072 1739 2783 
Q 2119 3494 2547 3981 
L 303 3981 
z
" transform="scale(0.015625)"/>
       </defs>
       <use xlink:href="#ArialMT-30"/>
       <use xlink:href="#ArialMT-2e" x="55.615234"/>
       <use xlink:href="#ArialMT-37" x="83.398438"/>
       <use xlink:href="#ArialMT-30" x="139.013672"/>
      </g>
     </g>
    </g>
    <g id="ytick_7">
     <g id="line2d_14">
      <path d="M 53.081406 82.142089 
L 422.891406 82.142089 
" clip-path="url(#p0c3f9147f2)" style="fill: none; stroke: #cccccc; stroke-opacity: 0.3; stroke-linecap: round"/>
     </g>
     <g id="text_15">
      <!-- 0.75 -->
      <g style="fill: #262626" transform="translate(22.174375 86.078886) scale(0.11 -0.11)">
       <use xlink:href="#ArialMT-30"/>
       <use xlink:href="#ArialMT-2e" x="55.615234"/>
       <use xlink:href="#ArialMT-37" x="83.398438"/>
       <use xlink:href="#ArialMT-35" x="139.013672"/>
      </g>
     </g>
    </g>
    <g id="ytick_8">
     <g id="line2d_15">
      <path d="M 53.081406 35.090896 
L 422.891406 35.090896 
" clip-path="url(#p0c3f9147f2)" style="fill: none; stroke: #cccccc; stroke-opacity: 0.3; stroke-linecap: round"/>
     </g>
     <g id="text_16">
      <!-- 0.80 -->
      <g style="fill: #262626" transform="translate(22.174375 39.027693) scale(0.11 -0.11)">
       <use xlink:href="#ArialMT-30"/>
       <use xlink:href="#ArialMT-2e" x="55.615234"/>
       <use xlink:href="#ArialMT-38" x="83.398438"/>
       <use xlink:href="#ArialMT-30" x="139.013672"/>
      </g>
     </g>
    </g>
    <g id="text_17">
     <!-- Gini Coefficient -->
     <g style="fill: #262626" transform="translate(15.789375 235.584609) rotate(-90) scale(0.12 -0.12)">
      <defs>
       <path id="ArialMT-47" d="M 2638 1797 
L 2638 2334 
L 4578 2338 
L 4578 638 
Q 4131 281 3656 101 
Q 3181 -78 2681 -78 
Q 2006 -78 1454 211 
Q 903 500 622 1047 
Q 341 1594 341 2269 
Q 341 2938 620 3517 
Q 900 4097 1425 4378 
Q 1950 4659 2634 4659 
Q 3131 4659 3532 4498 
Q 3934 4338 4162 4050 
Q 4391 3763 4509 3300 
L 3963 3150 
Q 3859 3500 3706 3700 
Q 3553 3900 3268 4020 
Q 2984 4141 2638 4141 
Q 2222 4141 1919 4014 
Q 1616 3888 1430 3681 
Q 1244 3475 1141 3228 
Q 966 2803 966 2306 
Q 966 1694 1177 1281 
Q 1388 869 1791 669 
Q 2194 469 2647 469 
Q 3041 469 3416 620 
Q 3791 772 3984 944 
L 3984 1797 
L 2638 1797 
z
" transform="scale(0.015625)"/>
       <path id="ArialMT-69" d="M 425 3934 
L 425 4581 
L 988 4581 
L 988 3934 
L 425 3934 
z
M 425 0 
L 425 3319 
L 988 3319 
L 988 0 
L 425 0 
z
" transform="scale(0.015625)"/>
       <path id="ArialMT-6e" d="M 422 0 
L 422 3319 
L 928 3319 
L 928 2847 
Q 1294 3394 1984 3394 
Q 2284 3394 2536 3286 
Q 2788 3178 2913 3003 
Q 3038 2828 3088 2588 
Q 3119 2431 3119 2041 
L 3119 0 
L 2556 0 
L 2556 2019 
Q 2556 2363 2490 2533 
Q 2425 2703 2258 2804 
Q 2091 2906 1866 2906 
Q 1506 2906 1245 2678 
Q 984 2450 984 1813 
L 984 0 
L 422 0 
z
" transform="scale(0.015625)"/>
       <path id="ArialMT-20" transform="scale(0.015625)"/>
       <path id="ArialMT-43" d="M 3763 1606 
L 4369 1453 
Q 4178 706 3683 314 
Q 3188 -78 2472 -78 
Q 1731 -78 1267 223 
Q 803 525 561 1097 
Q 319 1669 319 2325 
Q 319 3041 592 3573 
Q 866 4106 1370 4382 
Q 1875 4659 2481 4659 
Q 3169 4659 3637 4309 
Q 4106 3959 4291 3325 
L 3694 3184 
Q 3534 3684 3231 3912 
Q 2928 4141 2469 4141 
Q 1941 4141 1586 3887 
Q 1231 3634 1087 3207 
Q 944 2781 944 2328 
Q 944 1744 1114 1308 
Q 1284 872 1643 656 
Q 2003 441 2422 441 
Q 2931 441 3284 734 
Q 3638 1028 3763 1606 
z
" transform="scale(0.015625)"/>
       <path id="ArialMT-6f" d="M 213 1659 
Q 213 2581 725 3025 
Q 1153 3394 1769 3394 
Q 2453 3394 2887 2945 
Q 3322 2497 3322 1706 
Q 3322 1066 3130 698 
Q 2938 331 2570 128 
Q 2203 -75 1769 -75 
Q 1072 -75 642 372 
Q 213 819 213 1659 
z
M 791 1659 
Q 791 1022 1069 705 
Q 1347 388 1769 388 
Q 2188 388 2466 706 
Q 2744 1025 2744 1678 
Q 2744 2294 2464 2611 
Q 2184 2928 1769 2928 
Q 1347 2928 1069 2612 
Q 791 2297 791 1659 
z
" transform="scale(0.015625)"/>
       <path id="ArialMT-66" d="M 556 0 
L 556 2881 
L 59 2881 
L 59 3319 
L 556 3319 
L 556 3672 
Q 556 4006 616 4169 
Q 697 4388 901 4523 
Q 1106 4659 1475 4659 
Q 1713 4659 2000 4603 
L 1916 4113 
Q 1741 4144 1584 4144 
Q 1328 4144 1222 4034 
Q 1116 3925 1116 3625 
L 1116 3319 
L 1763 3319 
L 1763 2881 
L 1116 2881 
L 1116 0 
L 556 0 
z
" transform="scale(0.015625)"/>
       <path id="ArialMT-63" d="M 2588 1216 
L 3141 1144 
Q 3050 572 2676 248 
Q 2303 -75 1759 -75 
Q 1078 -75 664 370 
Q 250 816 250 1647 
Q 250 2184 428 2587 
Q 606 2991 970 3192 
Q 1334 3394 1763 3394 
Q 2303 3394 2647 3120 
Q 2991 2847 3088 2344 
L 2541 2259 
Q 2463 2594 2264 2762 
Q 2066 2931 1784 2931 
Q 1359 2931 1093 2626 
Q 828 2322 828 1663 
Q 828 994 1084 691 
Q 1341 388 1753 388 
Q 2084 388 2306 591 
Q 2528 794 2588 1216 
z
" transform="scale(0.015625)"/>
       <path id="ArialMT-74" d="M 1650 503 
L 1731 6 
Q 1494 -44 1306 -44 
Q 1000 -44 831 53 
Q 663 150 594 308 
Q 525 466 525 972 
L 525 2881 
L 113 2881 
L 113 3319 
L 525 3319 
L 525 4141 
L 1084 4478 
L 1084 3319 
L 1650 3319 
L 1650 2881 
L 1084 2881 
L 1084 941 
Q 1084 700 1114 631 
Q 1144 563 1211 522 
Q 1278 481 1403 481 
Q 1497 481 1650 503 
z
" transform="scale(0.015625)"/>
      </defs>
      <use xlink:href="#ArialMT-47"/>
      <use xlink:href="#ArialMT-69" x="77.783203"/>
      <use xlink:href="#ArialMT-6e" x="100"/>
      <use xlink:href="#ArialMT-69" x="155.615234"/>
      <use xlink:href="#ArialMT-20" x="177.832031"/>
      <use xlink:href="#ArialMT-43" x="205.615234"/>
      <use xlink:href="#ArialMT-6f" x="277.832031"/>
      <use xlink:href="#ArialMT-65" x="333.447266"/>
      <use xlink:href="#ArialMT-66" x="389.0625"/>
      <use xlink:href="#ArialMT-66" x="415.095703"/>
      <use xlink:href="#ArialMT-69" x="442.878906"/>
      <use xlink:href="#ArialMT-63" x="465.095703"/>
      <use xlink:href="#ArialMT-69" x="515.095703"/>
      <use xlink:href="#ArialMT-65" x="537.3125"/>
      <use xlink:href="#ArialMT-6e" x="592.927734"/>
      <use xlink:href="#ArialMT-74" x="648.542969"/>
     </g>
    </g>
   </g>
   <g id="line2d_16">
    <path d="M 69.890952 311.087161 
L 80.396918 169.396648 
L 90.902884 27.852251 
L 101.408849 160.255017 
L 111.914815 291.2585 
L 132.926747 231.655114 
L 143.432713 209.243929 
L 153.938679 255.788066 
L 164.444645 207.127496 
L 174.950611 222.626692 
L 206.468509 200.164561 
L 216.974474 185.544099 
L 227.48044 176.524321 
L 237.986406 132.431472 
L 248.492372 149.358078 
L 258.998338 185.627116 
L 269.504304 139.649102 
L 280.01027 138.370258 
L 290.516236 116.193929 
L 301.022202 134.815678 
L 311.528168 130.383397 
L 322.034134 146.386451 
L 332.540099 174.245516 
L 343.046065 188.007272 
L 353.552031 210.062776 
L 364.057997 173.138438 
L 374.563963 175.44661 
L 385.069929 190.032468 
L 395.575895 183.589782 
L 406.081861 184.911838 
" clip-path="url(#p0c3f9147f2)" style="fill: none; stroke: #4682b4; stroke-width: 2; stroke-linecap: round"/>
    <defs>
     <path id="m1f13ce3779" d="M 0 2 
C 0.530406 2 1.03916 1.789267 1.414214 1.414214 
C 1.789267 1.03916 2 0.530406 2 0 
C 2 -0.530406 1.789267 -1.03916 1.414214 -1.414214 
C 1.03916 -1.789267 0.530406 -2 0 -2 
C -0.530406 -2 -1.03916 -1.789267 -1.414214 -1.414214 
C -1.789267 -1.03916 -2 -0.530406 -2 0 
C -2 0.530406 -1.789267 1.03916 -1.414214 1.414214 
C -1.03916 1.789267 -0.530406 2 0 2 
z
" style="stroke: #4682b4"/>
    </defs>
    <g clip-path="url(#p0c3f9147f2)">
     <use xlink:href="#m1f13ce3779" x="69.890952" y="311.087161" style="fill: #4682b4; stroke: #4682b4"/>
     <use xlink:href="#m1f13ce3779" x="80.396918" y="169.396648" style="fill: #4682b4; stroke: #4682b4"/>
     <use xlink:href="#m1f13ce3779" x="90.902884" y="27.852251" style="fill: #4682b4; stroke: #4682b4"/>
     <use xlink:href="#m1f13ce3779" x="101.408849" y="160.255017" style="fill: #4682b4; stroke: #4682b4"/>
     <use xlink:href="#m1f13ce3779" x="111.914815" y="291.2585" style="fill: #4682b4; stroke: #4682b4"/>
     <use xlink:href="#m1f13ce3779" x="132.926747" y="231.655114" style="fill: #4682b4; stroke: #4682b4"/>
     <use xlink:href="#m1f13ce3779" x="143.432713" y="209.243929" style="fill: #4682b4; stroke: #4682b4"/>
     <use xlink:href="#m1f13ce3779" x="153.938679" y="255.788066" style="fill: #4682b4; stroke: #4682b4"/>
     <use xlink:href="#m1f13ce3779" x="164.444645" y="207.127496" style="fill: #4682b4; stroke: #4682b4"/>
     <use xlink:href="#m1f13ce3779" x="174.950611" y="222.626692" style="fill: #4682b4; stroke: #4682b4"/>
     <use xlink:href="#m1f13ce3779" x="206.468509" y="200.164561" style="fill: #4682b4; stroke: #4682b4"/>
     <use xlink:href="#m1f13ce3779" x="216.974474" y="185.544099" style="fill: #4682b4; stroke: #4682b4"/>
     <use xlink:href="#m1f13ce3779" x="227.48044" y="176.524321" style="fill: #4682b4; stroke: #4682b4"/>
     <use xlink:href="#m1f13ce3779" x="237.986406" y="132.431472" style="fill: #4682b4; stroke: #4682b4"/>
     <use xlink:href="#m1f13ce3779" x="248.492372" y="149.358078" style="fill: #4682b4; stroke: #4682b4"/>
     <use xlink:href="#m1f13ce3779" x="258.998338" y="185.627116" style="fill: #4682b4; stroke: #4682b4"/>
     <use xlink:href="#m1f13ce3779" x="269.504304" y="139.649102" style="fill: #4682b4; stroke: #4682b4"/>
     <use xlink:href="#m1f13ce3779" x="280.01027" y="138.370258" style="fill: #4682b4; stroke: #4682b4"/>
     <use xlink:href="#m1f13ce3779" x="290.516236" y="116.193929" style="fill: #4682b4; stroke: #4682b4"/>
     <use xlink:href="#m1f13ce3779" x="301.022202" y="134.815678" style="fill: #4682b4; stroke: #4682b4"/>
     <use xlink:href="#m1f13ce3779" x="311.528168" y="130.383397" style="fill: #4682b4; stroke: #4682b4"/>
     <use xlink:href="#m1f13ce3779" x="322.034134" y="146.386451" style="fill: #4682b4; stroke: #4682b4"/>
     <use xlink:href="#m1f13ce3779" x="332.540099" y="174.245516" style="fill: #4682b4; stroke: #4682b4"/>
     <use xlink:href="#m1f13ce3779" x="343.046065" y="188.007272" style="fill: #4682b4; stroke: #4682b4"/>
     <use xlink:href="#m1f13ce3779" x="353.552031" y="210.062776" style="fill: #4682b4; stroke: #4682b4"/>
     <use xlink:href="#m1f13ce3779" x="364.057997" y="173.138438" style="fill: #4682b4; stroke: #4682b4"/>
     <use xlink:href="#m1f13ce3779" x="374.563963" y="175.44661" style="fill: #4682b4; stroke: #4682b4"/>
     <use xlink:href="#m1f13ce3779" x="385.069929" y="190.032468" style="fill: #4682b4; stroke: #4682b4"/>
     <use xlink:href="#m1f13ce3779" x="395.575895" y="183.589782" style="fill: #4682b4; stroke: #4682b4"/>
     <use xlink:href="#m1f13ce3779" x="406.081861" y="184.911838" style="fill: #4682b4; stroke: #4682b4"/>
    </g>
   </g>
   <g id="line2d_17">
    <path d="M 69.890952 362.161342 
L 80.396918 245.514285 
L 90.902884 82.362572 
L 101.408849 138.970153 
L 111.914815 305.712134 
L 132.926747 335.409045 
L 143.432713 236.817479 
L 153.938679 326.563868 
L 164.444645 273.615679 
L 174.950611 274.970938 
L 206.468509 285.081857 
L 216.974474 205.003828 
L 227.48044 221.081493 
L 237.986406 183.888947 
L 248.492372 238.350272 
L 258.998338 235.554215 
L 269.504304 230.823857 
L 280.01027 174.453092 
L 290.516236 143.216382 
L 301.022202 199.978261 
L 311.528168 201.706657 
L 322.034134 207.644542 
L 332.540099 248.179107 
L 343.046065 243.322584 
L 353.552031 241.305532 
L 364.057997 221.935969 
L 374.563963 217.253689 
L 385.069929 232.073135 
L 395.575895 229.938188 
L 406.081861 222.220939 
" clip-path="url(#p0c3f9147f2)" style="fill: none; stroke: #ff7f50; stroke-width: 2; stroke-linecap: round"/>
    <defs>
     <path id="m58f46b5453" d="M -2 2 
L 2 2 
L 2 -2 
L -2 -2 
z
" style="stroke: #ff7f50; stroke-linejoin: miter"/>
    </defs>
    <g clip-path="url(#p0c3f9147f2)">
     <use xlink:href="#m58f46b5453" x="69.890952" y="362.161342" style="fill: #ff7f50; stroke: #ff7f50; stroke-linejoin: miter"/>
     <use xlink:href="#m58f46b5453" x="80.396918" y="245.514285" style="fill: #ff7f50; stroke: #ff7f50; stroke-linejoin: miter"/>
     <use xlink:href="#m58f46b5453" x="90.902884" y="82.362572" style="fill: #ff7f50; stroke: #ff7f50; stroke-linejoin: miter"/>
     <use xlink:href="#m58f46b5453" x="101.408849" y="138.970153" style="fill: #ff7f50; stroke: #ff7f50; stroke-linejoin: miter"/>
     <use xlink:href="#m58f46b5453" x="111.914815" y="305.712134" style="fill: #ff7f50; stroke: #ff7f50; stroke-linejoin: miter"/>
     <use xlink:href="#m58f46b5453" x="132.926747" y="335.409045" style="fill: #ff7f50; stroke: #ff7f50; stroke-linejoin: miter"/>
     <use xlink:href="#m58f46b5453" x="143.432713" y="236.817479" style="fill: #ff7f50; stroke: #ff7f50; stroke-linejoin: miter"/>
     <use xlink:href="#m58f46b5453" x="153.938679" y="326.563868" style="fill: #ff7f50; stroke: #ff7f50; stroke-linejoin: miter"/>
     <use xlink:href="#m58f46b5453" x="164.444645" y="273.615679" style="fill: #ff7f50; stroke: #ff7f50; stroke-linejoin: miter"/>
     <use xlink:href="#m58f46b5453" x="174.950611" y="274.970938" style="fill: #ff7f50; stroke: #ff7f50; stroke-linejoin: miter"/>
     <use xlink:href="#m58f46b5453" x="206.468509" y="285.081857" style="fill: #ff7f50; stroke: #ff7f50; stroke-linejoin: miter"/>
     <use xlink:href="#m58f46b5453" x="216.974474" y="205.003828" style="fill: #ff7f50; stroke: #ff7f50; stroke-linejoin: miter"/>
     <use xlink:href="#m58f46b5453" x="227.48044" y="221.081493" style="fill: #ff7f50; stroke: #ff7f50; stroke-linejoin: miter"/>
     <use xlink:href="#m58f46b5453" x="237.986406" y="183.888947" style="fill: #ff7f50; stroke: #ff7f50; stroke-linejoin: miter"/>
     <use xlink:href="#m58f46b5453" x="248.492372" y="238.350272" style="fill: #ff7f50; stroke: #ff7f50; stroke-linejoin: miter"/>
     <use xlink:href="#m58f46b5453" x="258.998338" y="235.554215" style="fill: #ff7f50; stroke: #ff7f50; stroke-linejoin: miter"/>
     <use xlink:href="#m58f46b5453" x="269.504304" y="230.823857" style="fill: #ff7f50; stroke: #ff7f50; stroke-linejoin: miter"/>
     <use xlink:href="#m58f46b5453" x="280.01027" y="174.453092" style="fill: #ff7f50; stroke: #ff7f50; stroke-linejoin: miter"/>
     <use xlink:href="#m58f46b5453" x="290.516236" y="143.216382" style="fill: #ff7f50; stroke: #ff7f50; stroke-linejoin: miter"/>
     <use xlink:href="#m58f46b5453" x="301.022202" y="199.978261" style="fill: #ff7f50; stroke: #ff7f50; stroke-linejoin: miter"/>
     <use xlink:href="#m58f46b5453" x="311.528168" y="201.706657" style="fill: #ff7f50; stroke: #ff7f50; stroke-linejoin: miter"/>
     <use xlink:href="#m58f46b5453" x="322.034134" y="207.644542" style="fill: #ff7f50; stroke: #ff7f50; stroke-linejoin: miter"/>
     <use xlink:href="#m58f46b5453" x="332.540099" y="248.179107" style="fill: #ff7f50; stroke: #ff7f50; stroke-linejoin: miter"/>
     <use xlink:href="#m58f46b5453" x="343.046065" y="243.322584" style="fill: #ff7f50; stroke: #ff7f50; stroke-linejoin: miter"/>
     <use xlink:href="#m58f46b5453" x="353.552031" y="241.305532" style="fill: #ff7f50; stroke: #ff7f50; stroke-linejoin: miter"/>
     <use xlink:href="#m58f46b5453" x="364.057997" y="221.935969" style="fill: #ff7f50; stroke: #ff7f50; stroke-linejoin: miter"/>
     <use xlink:href="#m58f46b5453" x="374.563963" y="217.253689" style="fill: #ff7f50; stroke: #ff7f50; stroke-linejoin: miter"/>
     <use xlink:href="#m58f46b5453" x="385.069929" y="232.073135" style="fill: #ff7f50; stroke: #ff7f50; stroke-linejoin: miter"/>
     <use xlink:href="#m58f46b5453" x="395.575895" y="229.938188" style="fill: #ff7f50; stroke: #ff7f50; stroke-linejoin: miter"/>
     <use xlink:href="#m58f46b5453" x="406.081861" y="222.220939" style="fill: #ff7f50; stroke: #ff7f50; stroke-linejoin: miter"/>
    </g>
   </g>
   <g id="line2d_18">
    <path d="M 69.890952 202.585141 
L 80.396918 201.232381 
L 90.902884 199.87962 
L 101.408849 198.52686 
L 111.914815 197.174099 
L 132.926747 194.468579 
L 143.432713 193.115818 
L 153.938679 191.763058 
L 164.444645 190.410297 
L 174.950611 189.057537 
L 206.468509 184.999256 
L 216.974474 183.646496 
L 227.48044 182.293735 
L 237.986406 180.940975 
L 248.492372 179.588214 
L 258.998338 178.235454 
L 269.504304 176.882694 
L 280.01027 175.529933 
L 290.516236 174.177173 
L 301.022202 172.824413 
L 311.528168 171.471652 
L 322.034134 170.118892 
L 332.540099 168.766131 
L 343.046065 167.413371 
L 353.552031 166.060611 
L 364.057997 164.70785 
L 374.563963 163.35509 
L 385.069929 162.002329 
L 395.575895 160.649569 
L 406.081861 159.296809 
" clip-path="url(#p0c3f9147f2)" style="fill: none; stroke-dasharray: 5.55,2.4; stroke-dashoffset: 0; stroke: #4682b4; stroke-opacity: 0.5; stroke-width: 1.5"/>
   </g>
   <g id="patch_3">
    <path d="M 53.081406 378.876797 
L 53.081406 11.136797 
" style="fill: none; stroke: #cccccc; stroke-width: 1.25; stroke-linejoin: miter; stroke-linecap: square"/>
   </g>
   <g id="patch_4">
    <path d="M 422.891406 378.876797 
L 422.891406 11.136797 
" style="fill: none; stroke: #cccccc; stroke-width: 1.25; stroke-linejoin: miter; stroke-linecap: square"/>
   </g>
   <g id="patch_5">
    <path d="M 53.081406 378.876797 
L 422.891406 378.876797 
" style="fill: none; stroke: #cccccc; stroke-width: 1.25; stroke-linejoin: miter; stroke-linecap: square"/>
   </g>
   <g id="patch_6">
    <path d="M 53.081406 11.136797 
L 422.891406 11.136797 
" style="fill: none; stroke: #cccccc; stroke-width: 1.25; stroke-linejoin: miter; stroke-linecap: square"/>
   </g>
   <g id="legend_1">
    <g id="patch_7">
     <path d="M 318.243594 51.056484 
L 415.191406 51.056484 
Q 417.391406 51.056484 417.391406 48.856484 
L 417.391406 18.836797 
Q 417.391406 16.636797 415.191406 16.636797 
L 318.243594 16.636797 
Q 316.043594 16.636797 316.043594 18.836797 
L 316.043594 48.856484 
Q 316.043594 51.056484 318.243594 51.056484 
z
" style="fill: #ffffff; opacity: 0.8; stroke: #cccccc; stroke-linejoin: miter"/>
    </g>
    <g id="line2d_19">
     <path d="M 320.443594 25.060391 
L 331.443594 25.060391 
L 342.443594 25.060391 
" style="fill: none; stroke: #4682b4; stroke-width: 2; stroke-linecap: round"/>
     <g>
      <use xlink:href="#m1f13ce3779" x="331.443594" y="25.060391" style="fill: #4682b4; stroke: #4682b4"/>
     </g>
    </g>
    <g id="text_18">
     <!-- Total Medals -->
     <g style="fill: #262626" transform="translate(351.243594 28.910391) scale(0.11 -0.11)">
      <defs>
       <path id="ArialMT-54" d="M 1659 0 
L 1659 4041 
L 150 4041 
L 150 4581 
L 3781 4581 
L 3781 4041 
L 2266 4041 
L 2266 0 
L 1659 0 
z
" transform="scale(0.015625)"/>
       <path id="ArialMT-6c" d="M 409 0 
L 409 4581 
L 972 4581 
L 972 0 
L 409 0 
z
" transform="scale(0.015625)"/>
       <path id="ArialMT-4d" d="M 475 0 
L 475 4581 
L 1388 4581 
L 2472 1338 
Q 2622 884 2691 659 
Q 2769 909 2934 1394 
L 4031 4581 
L 4847 4581 
L 4847 0 
L 4263 0 
L 4263 3834 
L 2931 0 
L 2384 0 
L 1059 3900 
L 1059 0 
L 475 0 
z
" transform="scale(0.015625)"/>
       <path id="ArialMT-64" d="M 2575 0 
L 2575 419 
Q 2259 -75 1647 -75 
Q 1250 -75 917 144 
Q 584 363 401 755 
Q 219 1147 219 1656 
Q 219 2153 384 2558 
Q 550 2963 881 3178 
Q 1213 3394 1622 3394 
Q 1922 3394 2156 3267 
Q 2391 3141 2538 2938 
L 2538 4581 
L 3097 4581 
L 3097 0 
L 2575 0 
z
M 797 1656 
Q 797 1019 1065 703 
Q 1334 388 1700 388 
Q 2069 388 2326 689 
Q 2584 991 2584 1609 
Q 2584 2291 2321 2609 
Q 2059 2928 1675 2928 
Q 1300 2928 1048 2622 
Q 797 2316 797 1656 
z
" transform="scale(0.015625)"/>
       <path id="ArialMT-73" d="M 197 991 
L 753 1078 
Q 800 744 1014 566 
Q 1228 388 1613 388 
Q 2000 388 2187 545 
Q 2375 703 2375 916 
Q 2375 1106 2209 1216 
Q 2094 1291 1634 1406 
Q 1016 1563 777 1677 
Q 538 1791 414 1992 
Q 291 2194 291 2438 
Q 291 2659 392 2848 
Q 494 3038 669 3163 
Q 800 3259 1026 3326 
Q 1253 3394 1513 3394 
Q 1903 3394 2198 3281 
Q 2494 3169 2634 2976 
Q 2775 2784 2828 2463 
L 2278 2388 
Q 2241 2644 2061 2787 
Q 1881 2931 1553 2931 
Q 1166 2931 1000 2803 
Q 834 2675 834 2503 
Q 834 2394 903 2306 
Q 972 2216 1119 2156 
Q 1203 2125 1616 2013 
Q 2213 1853 2448 1751 
Q 2684 1650 2818 1456 
Q 2953 1263 2953 975 
Q 2953 694 2789 445 
Q 2625 197 2315 61 
Q 2006 -75 1616 -75 
Q 969 -75 630 194 
Q 291 463 197 991 
z
" transform="scale(0.015625)"/>
      </defs>
      <use xlink:href="#ArialMT-54"/>
      <use xlink:href="#ArialMT-6f" x="49.958984"/>
      <use xlink:href="#ArialMT-74" x="105.574219"/>
      <use xlink:href="#ArialMT-61" x="133.357422"/>
      <use xlink:href="#ArialMT-6c" x="188.972656"/>
      <use xlink:href="#ArialMT-20" x="211.189453"/>
      <use xlink:href="#ArialMT-4d" x="238.972656"/>
      <use xlink:href="#ArialMT-65" x="322.273438"/>
      <use xlink:href="#ArialMT-64" x="377.888672"/>
      <use xlink:href="#ArialMT-61" x="433.503906"/>
      <use xlink:href="#ArialMT-6c" x="489.119141"/>
      <use xlink:href="#ArialMT-73" x="511.335938"/>
     </g>
    </g>
    <g id="line2d_20">
     <path d="M 320.443594 40.620234 
L 331.443594 40.620234 
L 342.443594 40.620234 
" style="fill: none; stroke: #ff7f50; stroke-width: 2; stroke-linecap: round"/>
     <g>
      <use xlink:href="#m58f46b5453" x="331.443594" y="40.620234" style="fill: #ff7f50; stroke: #ff7f50; stroke-linejoin: miter"/>
     </g>
    </g>
    <g id="text_19">
     <!-- Gold Medals -->
     <g style="fill: #262626" transform="translate(351.243594 44.470234) scale(0.11 -0.11)">
      <use xlink:href="#ArialMT-47"/>
      <use xlink:href="#ArialMT-6f" x="77.783203"/>
      <use xlink:href="#ArialMT-6c" x="133.398438"/>
      <use xlink:href="#ArialMT-64" x="155.615234"/>
      <use xlink:href="#ArialMT-20" x="211.230469"/>
      <use xlink:href="#ArialMT-4d" x="239.013672"/>
      <use xlink:href="#ArialMT-65" x="322.314453"/>
      <use xlink:href="#ArialMT-64" x="377.929688"/>
      <use xlink:href="#ArialMT-61" x="433.544922"/>
      <use xlink:href="#ArialMT-6c" x="489.160156"/>
      <use xlink:href="#ArialMT-73" x="511.376953"/>
     </g>
    </g>
   </g>
  </g>
  <g id="axes_2">
   <g id="patch_8">
    <path d="M 475.541406 378.876797 
L 845.351406 378.876797 
L 845.351406 11.136797 
L 475.541406 11.136797 
z
" style="fill: #ffffff"/>
   </g>
   <g id="matplotlib.axis_3">
    <g id="xtick_8">
     <g id="line2d_21">
      <path d="M 502.856918 378.876797 
L 502.856918 11.136797 
" clip-path="url(#p7fd20a1b2e)" style="fill: none; stroke: #cccccc; stroke-opacity: 0.3; stroke-linecap: round"/>
     </g>
     <g id="text_20">
      <!-- 1900 -->
      <g style="fill: #262626" transform="translate(490.622855 396.250391) scale(0.11 -0.11)">
       <use xlink:href="#ArialMT-31"/>
       <use xlink:href="#ArialMT-39" x="55.615234"/>
       <use xlink:href="#ArialMT-30" x="111.230469"/>
       <use xlink:href="#ArialMT-30" x="166.845703"/>
      </g>
     </g>
    </g>
    <g id="xtick_9">
     <g id="line2d_22">
      <path d="M 555.386747 378.876797 
L 555.386747 11.136797 
" clip-path="url(#p7fd20a1b2e)" style="fill: none; stroke: #cccccc; stroke-opacity: 0.3; stroke-linecap: round"/>
     </g>
     <g id="text_21">
      <!-- 1920 -->
      <g style="fill: #262626" transform="translate(543.152685 396.250391) scale(0.11 -0.11)">
       <use xlink:href="#ArialMT-31"/>
       <use xlink:href="#ArialMT-39" x="55.615234"/>
       <use xlink:href="#ArialMT-32" x="111.230469"/>
       <use xlink:href="#ArialMT-30" x="166.845703"/>
      </g>
     </g>
    </g>
    <g id="xtick_10">
     <g id="line2d_23">
      <path d="M 607.916577 378.876797 
L 607.916577 11.136797 
" clip-path="url(#p7fd20a1b2e)" style="fill: none; stroke: #cccccc; stroke-opacity: 0.3; stroke-linecap: round"/>
     </g>
     <g id="text_22">
      <!-- 1940 -->
      <g style="fill: #262626" transform="translate(595.682514 396.250391) scale(0.11 -0.11)">
       <use xlink:href="#ArialMT-31"/>
       <use xlink:href="#ArialMT-39" x="55.615234"/>
       <use xlink:href="#ArialMT-34" x="111.230469"/>
       <use xlink:href="#ArialMT-30" x="166.845703"/>
      </g>
     </g>
    </g>
    <g id="xtick_11">
     <g id="line2d_24">
      <path d="M 660.446406 378.876797 
L 660.446406 11.136797 
" clip-path="url(#p7fd20a1b2e)" style="fill: none; stroke: #cccccc; stroke-opacity: 0.3; stroke-linecap: round"/>
     </g>
     <g id="text_23">
      <!-- 1960 -->
      <g style="fill: #262626" transform="translate(648.212344 396.250391) scale(0.11 -0.11)">
       <use xlink:href="#ArialMT-31"/>
       <use xlink:href="#ArialMT-39" x="55.615234"/>
       <use xlink:href="#ArialMT-36" x="111.230469"/>
       <use xlink:href="#ArialMT-30" x="166.845703"/>
      </g>
     </g>
    </g>
    <g id="xtick_12">
     <g id="line2d_25">
      <path d="M 712.976236 378.876797 
L 712.976236 11.136797 
" clip-path="url(#p7fd20a1b2e)" style="fill: none; stroke: #cccccc; stroke-opacity: 0.3; stroke-linecap: round"/>
     </g>
     <g id="text_24">
      <!-- 1980 -->
      <g style="fill: #262626" transform="translate(700.742173 396.250391) scale(0.11 -0.11)">
       <use xlink:href="#ArialMT-31"/>
       <use xlink:href="#ArialMT-39" x="55.615234"/>
       <use xlink:href="#ArialMT-38" x="111.230469"/>
       <use xlink:href="#ArialMT-30" x="166.845703"/>
      </g>
     </g>
    </g>
    <g id="xtick_13">
     <g id="line2d_26">
      <path d="M 765.506065 378.876797 
L 765.506065 11.136797 
" clip-path="url(#p7fd20a1b2e)" style="fill: none; stroke: #cccccc; stroke-opacity: 0.3; stroke-linecap: round"/>
     </g>
     <g id="text_25">
      <!-- 2000 -->
      <g style="fill: #262626" transform="translate(753.272003 396.250391) scale(0.11 -0.11)">
       <use xlink:href="#ArialMT-32"/>
       <use xlink:href="#ArialMT-30" x="55.615234"/>
       <use xlink:href="#ArialMT-30" x="111.230469"/>
       <use xlink:href="#ArialMT-30" x="166.845703"/>
      </g>
     </g>
    </g>
    <g id="xtick_14">
     <g id="line2d_27">
      <path d="M 818.035895 378.876797 
L 818.035895 11.136797 
" clip-path="url(#p7fd20a1b2e)" style="fill: none; stroke: #cccccc; stroke-opacity: 0.3; stroke-linecap: round"/>
     </g>
     <g id="text_26">
      <!-- 2020 -->
      <g style="fill: #262626" transform="translate(805.801832 396.250391) scale(0.11 -0.11)">
       <use xlink:href="#ArialMT-32"/>
       <use xlink:href="#ArialMT-30" x="55.615234"/>
       <use xlink:href="#ArialMT-32" x="111.230469"/>
       <use xlink:href="#ArialMT-30" x="166.845703"/>
      </g>
     </g>
    </g>
    <g id="text_27">
     <!-- Year -->
     <g style="fill: #262626" transform="translate(648.320781 411.026016) scale(0.12 -0.12)">
      <use xlink:href="#ArialMT-59"/>
      <use xlink:href="#ArialMT-65" x="57.574219"/>
      <use xlink:href="#ArialMT-61" x="113.189453"/>
      <use xlink:href="#ArialMT-72" x="168.804688"/>
     </g>
    </g>
   </g>
   <g id="matplotlib.axis_4">
    <g id="ytick_9">
     <g id="line2d_28">
      <path d="M 475.541406 378.876797 
L 845.351406 378.876797 
" clip-path="url(#p7fd20a1b2e)" style="fill: none; stroke: #cccccc; stroke-opacity: 0.3; stroke-linecap: round"/>
     </g>
     <g id="text_28">
      <!-- 0.0 -->
      <g style="fill: #262626" transform="translate(450.751406 382.813594) scale(0.11 -0.11)">
       <use xlink:href="#ArialMT-30"/>
       <use xlink:href="#ArialMT-2e" x="55.615234"/>
       <use xlink:href="#ArialMT-30" x="83.398438"/>
      </g>
     </g>
    </g>
    <g id="ytick_10">
     <g id="line2d_29">
      <path d="M 475.541406 305.328797 
L 845.351406 305.328797 
" clip-path="url(#p7fd20a1b2e)" style="fill: none; stroke: #cccccc; stroke-opacity: 0.3; stroke-linecap: round"/>
     </g>
     <g id="text_29">
      <!-- 0.2 -->
      <g style="fill: #262626" transform="translate(450.751406 309.265594) scale(0.11 -0.11)">
       <use xlink:href="#ArialMT-30"/>
       <use xlink:href="#ArialMT-2e" x="55.615234"/>
       <use xlink:href="#ArialMT-32" x="83.398438"/>
      </g>
     </g>
    </g>
    <g id="ytick_11">
     <g id="line2d_30">
      <path d="M 475.541406 231.780797 
L 845.351406 231.780797 
" clip-path="url(#p7fd20a1b2e)" style="fill: none; stroke: #cccccc; stroke-opacity: 0.3; stroke-linecap: round"/>
     </g>
     <g id="text_30">
      <!-- 0.4 -->
      <g style="fill: #262626" transform="translate(450.751406 235.717594) scale(0.11 -0.11)">
       <use xlink:href="#ArialMT-30"/>
       <use xlink:href="#ArialMT-2e" x="55.615234"/>
       <use xlink:href="#ArialMT-34" x="83.398438"/>
      </g>
     </g>
    </g>
    <g id="ytick_12">
     <g id="line2d_31">
      <path d="M 475.541406 158.232797 
L 845.351406 158.232797 
" clip-path="url(#p7fd20a1b2e)" style="fill: none; stroke: #cccccc; stroke-opacity: 0.3; stroke-linecap: round"/>
     </g>
     <g id="text_31">
      <!-- 0.6 -->
      <g style="fill: #262626" transform="translate(450.751406 162.169594) scale(0.11 -0.11)">
       <use xlink:href="#ArialMT-30"/>
       <use xlink:href="#ArialMT-2e" x="55.615234"/>
       <use xlink:href="#ArialMT-36" x="83.398438"/>
      </g>
     </g>
    </g>
    <g id="ytick_13">
     <g id="line2d_32">
      <path d="M 475.541406 84.684797 
L 845.351406 84.684797 
" clip-path="url(#p7fd20a1b2e)" style="fill: none; stroke: #cccccc; stroke-opacity: 0.3; stroke-linecap: round"/>
     </g>
     <g id="text_32">
      <!-- 0.8 -->
      <g style="fill: #262626" transform="translate(450.751406 88.621594) scale(0.11 -0.11)">
       <use xlink:href="#ArialMT-30"/>
       <use xlink:href="#ArialMT-2e" x="55.615234"/>
       <use xlink:href="#ArialMT-38" x="83.398438"/>
      </g>
     </g>
    </g>
    <g id="ytick_14">
     <g id="line2d_33">
      <path d="M 475.541406 11.136797 
L 845.351406 11.136797 
" clip-path="url(#p7fd20a1b2e)" style="fill: none; stroke: #cccccc; stroke-opacity: 0.3; stroke-linecap: round"/>
     </g>
     <g id="text_33">
      <!-- 1.0 -->
      <g style="fill: #262626" transform="translate(450.751406 15.073594) scale(0.11 -0.11)">
       <use xlink:href="#ArialMT-31"/>
       <use xlink:href="#ArialMT-2e" x="55.615234"/>
       <use xlink:href="#ArialMT-30" x="83.398438"/>
      </g>
     </g>
    </g>
    <g id="text_34">
     <!-- Medal Share -->
     <g style="fill: #262626" transform="translate(444.366406 229.023984) rotate(-90) scale(0.12 -0.12)">
      <defs>
       <path id="ArialMT-53" d="M 288 1472 
L 859 1522 
Q 900 1178 1048 958 
Q 1197 738 1509 602 
Q 1822 466 2213 466 
Q 2559 466 2825 569 
Q 3091 672 3220 851 
Q 3350 1031 3350 1244 
Q 3350 1459 3225 1620 
Q 3100 1781 2813 1891 
Q 2628 1963 1997 2114 
Q 1366 2266 1113 2400 
Q 784 2572 623 2826 
Q 463 3081 463 3397 
Q 463 3744 659 4045 
Q 856 4347 1234 4503 
Q 1613 4659 2075 4659 
Q 2584 4659 2973 4495 
Q 3363 4331 3572 4012 
Q 3781 3694 3797 3291 
L 3216 3247 
Q 3169 3681 2898 3903 
Q 2628 4125 2100 4125 
Q 1550 4125 1298 3923 
Q 1047 3722 1047 3438 
Q 1047 3191 1225 3031 
Q 1400 2872 2139 2705 
Q 2878 2538 3153 2413 
Q 3553 2228 3743 1945 
Q 3934 1663 3934 1294 
Q 3934 928 3725 604 
Q 3516 281 3123 101 
Q 2731 -78 2241 -78 
Q 1619 -78 1198 103 
Q 778 284 539 648 
Q 300 1013 288 1472 
z
" transform="scale(0.015625)"/>
       <path id="ArialMT-68" d="M 422 0 
L 422 4581 
L 984 4581 
L 984 2938 
Q 1378 3394 1978 3394 
Q 2347 3394 2619 3248 
Q 2891 3103 3008 2847 
Q 3125 2591 3125 2103 
L 3125 0 
L 2563 0 
L 2563 2103 
Q 2563 2525 2380 2717 
Q 2197 2909 1863 2909 
Q 1613 2909 1392 2779 
Q 1172 2650 1078 2428 
Q 984 2206 984 1816 
L 984 0 
L 422 0 
z
" transform="scale(0.015625)"/>
      </defs>
      <use xlink:href="#ArialMT-4d"/>
      <use xlink:href="#ArialMT-65" x="83.300781"/>
      <use xlink:href="#ArialMT-64" x="138.916016"/>
      <use xlink:href="#ArialMT-61" x="194.53125"/>
      <use xlink:href="#ArialMT-6c" x="250.146484"/>
      <use xlink:href="#ArialMT-20" x="272.363281"/>
      <use xlink:href="#ArialMT-53" x="300.146484"/>
      <use xlink:href="#ArialMT-68" x="366.845703"/>
      <use xlink:href="#ArialMT-61" x="422.460938"/>
      <use xlink:href="#ArialMT-72" x="478.076172"/>
      <use xlink:href="#ArialMT-65" x="511.376953"/>
     </g>
    </g>
   </g>
   <g id="PolyCollection_1">
    <defs>
     <path id="mc3313eee82" d="M 492.350952 -282.875202 
L 492.350952 -41.734219 
L 502.856918 -41.734219 
L 513.362884 -41.734219 
L 523.868849 -41.734219 
L 534.374815 -41.734219 
L 555.386747 -41.734219 
L 565.892713 -41.734219 
L 576.398679 -41.734219 
L 586.904645 -41.734219 
L 597.410611 -41.734219 
L 628.928509 -41.734219 
L 639.434474 -41.734219 
L 649.94044 -41.734219 
L 660.446406 -41.734219 
L 670.952372 -41.734219 
L 681.458338 -41.734219 
L 691.964304 -41.734219 
L 702.47027 -41.734219 
L 712.976236 -41.734219 
L 723.482202 -41.734219 
L 733.988168 -41.734219 
L 744.494134 -41.734219 
L 755.000099 -41.734219 
L 765.506065 -41.734219 
L 776.012031 -41.734219 
L 786.517997 -41.734219 
L 797.023963 -41.734219 
L 807.529929 -41.734219 
L 818.035895 -41.734219 
L 828.541861 -41.734219 
L 828.541861 -141.544305 
L 828.541861 -141.544305 
L 818.035895 -134.690719 
L 807.529929 -139.344219 
L 797.023963 -141.713531 
L 786.517997 -146.144741 
L 776.012031 -142.604586 
L 765.506065 -136.941986 
L 755.000099 -141.749017 
L 744.494134 -178.001065 
L 733.988168 -204.953055 
L 723.482202 -194.602882 
L 712.976236 -252.703918 
L 702.47027 -227.103974 
L 691.964304 -200.475319 
L 681.458338 -202.227957 
L 670.952372 -213.929933 
L 660.446406 -214.037559 
L 649.94044 -204.041639 
L 639.434474 -193.156572 
L 628.928509 -182.209109 
L 597.410611 -202.947252 
L 586.904645 -211.689732 
L 576.398679 -167.68798 
L 565.892713 -211.011362 
L 555.386747 -210.491616 
L 534.374815 -242.105373 
L 523.868849 -289.164219 
L 513.362884 -372.700219 
L 502.856918 -277.398585 
L 492.350952 -282.875202 
z
" style="stroke: #ff7f50; stroke-opacity: 0.3"/>
    </defs>
    <g clip-path="url(#p7fd20a1b2e)">
     <use xlink:href="#mc3313eee82" x="0" y="420.611016" style="fill: #ff7f50; fill-opacity: 0.3; stroke: #ff7f50; stroke-opacity: 0.3"/>
    </g>
   </g>
   <g id="PolyCollection_2">
    <defs>
     <path id="m70efe55c2d" d="M 492.350952 -403.445694 
L 492.350952 -282.875202 
L 502.856918 -277.398585 
L 513.362884 -372.700219 
L 523.868849 -289.164219 
L 534.374815 -242.105373 
L 555.386747 -210.491616 
L 565.892713 -211.011362 
L 576.398679 -167.68798 
L 586.904645 -211.689732 
L 597.410611 -202.947252 
L 628.928509 -182.209109 
L 639.434474 -193.156572 
L 649.94044 -204.041639 
L 660.446406 -214.037559 
L 670.952372 -213.929933 
L 681.458338 -202.227957 
L 691.964304 -200.475319 
L 702.47027 -227.103974 
L 712.976236 -252.703918 
L 723.482202 -194.602882 
L 733.988168 -204.953055 
L 744.494134 -178.001065 
L 755.000099 -141.749017 
L 765.506065 -136.941986 
L 776.012031 -142.604586 
L 786.517997 -146.144741 
L 797.023963 -141.713531 
L 807.529929 -139.344219 
L 818.035895 -134.690719 
L 828.541861 -141.544305 
L 828.541861 -248.079185 
L 828.541861 -248.079185 
L 818.035895 -241.607719 
L 807.529929 -237.710885 
L 797.023963 -247.438781 
L 786.517997 -249.787538 
L 776.012031 -246.254845 
L 765.506065 -244.447423 
L 755.000099 -245.694528 
L 744.494134 -278.170734 
L 733.988168 -307.960064 
L 723.482202 -317.004713 
L 712.976236 -345.367404 
L 702.47027 -331.486943 
L 691.964304 -312.023119 
L 681.458338 -301.315395 
L 670.952372 -324.835647 
L 660.446406 -332.097256 
L 649.94044 -324.792087 
L 639.434474 -310.929513 
L 628.928509 -319.105022 
L 597.410611 -317.97493 
L 586.904645 -345.865138 
L 576.398679 -318.382659 
L 565.892713 -344.29279 
L 555.386747 -369.173945 
L 534.374815 -363.506719 
L 523.868849 -377.694219 
L 513.362884 -402.907433 
L 502.856918 -369.333585 
L 492.350952 -403.445694 
z
" style="stroke: #4682b4; stroke-opacity: 0.3"/>
    </defs>
    <g clip-path="url(#p7fd20a1b2e)">
     <use xlink:href="#m70efe55c2d" x="0" y="420.611016" style="fill: #4682b4; fill-opacity: 0.3; stroke: #4682b4; stroke-opacity: 0.3"/>
    </g>
   </g>
   <g id="line2d_34">
    <path d="M 492.350952 17.165321 
L 502.856918 51.277431 
L 513.362884 17.703583 
L 523.868849 42.916797 
L 534.374815 57.104297 
L 555.386747 51.437071 
L 565.892713 76.318225 
L 576.398679 102.228357 
L 586.904645 74.745878 
L 597.410611 102.636086 
L 628.928509 101.505994 
L 639.434474 109.681503 
L 649.94044 95.818929 
L 660.446406 88.51376 
L 670.952372 95.775368 
L 681.458338 119.29562 
L 691.964304 108.587897 
L 702.47027 89.124073 
L 712.976236 75.243611 
L 723.482202 103.606303 
L 733.988168 112.650951 
L 744.494134 142.440282 
L 755.000099 174.916488 
L 765.506065 176.163593 
L 776.012031 174.356171 
L 786.517997 170.823477 
L 797.023963 173.172234 
L 807.529929 182.90013 
L 818.035895 179.003297 
L 828.541861 172.531831 
" clip-path="url(#p7fd20a1b2e)" style="fill: none; stroke: #4682b4; stroke-width: 2; stroke-linecap: round"/>
   </g>
   <g id="patch_9">
    <path d="M 475.541406 378.876797 
L 475.541406 11.136797 
" style="fill: none; stroke: #cccccc; stroke-width: 1.25; stroke-linejoin: miter; stroke-linecap: square"/>
   </g>
   <g id="patch_10">
    <path d="M 845.351406 378.876797 
L 845.351406 11.136797 
" style="fill: none; stroke: #cccccc; stroke-width: 1.25; stroke-linejoin: miter; stroke-linecap: square"/>
   </g>
   <g id="patch_11">
    <path d="M 475.541406 378.876797 
L 845.351406 378.876797 
" style="fill: none; stroke: #cccccc; stroke-width: 1.25; stroke-linejoin: miter; stroke-linecap: square"/>
   </g>
   <g id="patch_12">
    <path d="M 475.541406 11.136797 
L 845.351406 11.136797 
" style="fill: none; stroke: #cccccc; stroke-width: 1.25; stroke-linejoin: miter; stroke-linecap: square"/>
   </g>
   <g id="legend_2">
    <g id="patch_13">
     <path d="M 759.652812 51.121797 
L 837.651406 51.121797 
Q 839.851406 51.121797 839.851406 48.921797 
L 839.851406 18.836797 
Q 839.851406 16.636797 837.651406 16.636797 
L 759.652812 16.636797 
Q 757.452812 16.636797 757.452812 18.836797 
L 757.452812 48.921797 
Q 757.452812 51.121797 759.652812 51.121797 
z
" style="fill: #ffffff; opacity: 0.8; stroke: #cccccc; stroke-linejoin: miter"/>
    </g>
    <g id="patch_14">
     <path d="M 761.852812 28.943047 
L 783.852812 28.943047 
L 783.852812 21.243047 
L 761.852812 21.243047 
z
" style="fill: #ff7f50; fill-opacity: 0.3; stroke: #ff7f50; stroke-opacity: 0.3; stroke-linejoin: miter"/>
    </g>
    <g id="text_35">
     <!-- Top 3 -->
     <g style="fill: #262626" transform="translate(792.652812 28.943047) scale(0.11 -0.11)">
      <defs>
       <path id="ArialMT-70" d="M 422 -1272 
L 422 3319 
L 934 3319 
L 934 2888 
Q 1116 3141 1344 3267 
Q 1572 3394 1897 3394 
Q 2322 3394 2647 3175 
Q 2972 2956 3137 2557 
Q 3303 2159 3303 1684 
Q 3303 1175 3120 767 
Q 2938 359 2589 142 
Q 2241 -75 1856 -75 
Q 1575 -75 1351 44 
Q 1128 163 984 344 
L 984 -1272 
L 422 -1272 
z
M 931 1641 
Q 931 1000 1190 694 
Q 1450 388 1819 388 
Q 2194 388 2461 705 
Q 2728 1022 2728 1688 
Q 2728 2322 2467 2637 
Q 2206 2953 1844 2953 
Q 1484 2953 1207 2617 
Q 931 2281 931 1641 
z
" transform="scale(0.015625)"/>
       <path id="ArialMT-33" d="M 269 1209 
L 831 1284 
Q 928 806 1161 595 
Q 1394 384 1728 384 
Q 2125 384 2398 659 
Q 2672 934 2672 1341 
Q 2672 1728 2419 1979 
Q 2166 2231 1775 2231 
Q 1616 2231 1378 2169 
L 1441 2663 
Q 1497 2656 1531 2656 
Q 1891 2656 2178 2843 
Q 2466 3031 2466 3422 
Q 2466 3731 2256 3934 
Q 2047 4138 1716 4138 
Q 1388 4138 1169 3931 
Q 950 3725 888 3313 
L 325 3413 
Q 428 3978 793 4289 
Q 1159 4600 1703 4600 
Q 2078 4600 2393 4439 
Q 2709 4278 2876 4000 
Q 3044 3722 3044 3409 
Q 3044 3113 2884 2869 
Q 2725 2625 2413 2481 
Q 2819 2388 3044 2092 
Q 3269 1797 3269 1353 
Q 3269 753 2831 336 
Q 2394 -81 1725 -81 
Q 1122 -81 723 278 
Q 325 638 269 1209 
z
" transform="scale(0.015625)"/>
      </defs>
      <use xlink:href="#ArialMT-54"/>
      <use xlink:href="#ArialMT-6f" x="49.958984"/>
      <use xlink:href="#ArialMT-70" x="105.574219"/>
      <use xlink:href="#ArialMT-20" x="161.189453"/>
      <use xlink:href="#ArialMT-33" x="188.972656"/>
     </g>
    </g>
    <g id="patch_15">
     <path d="M 761.852812 44.535547 
L 783.852812 44.535547 
L 783.852812 36.835547 
L 761.852812 36.835547 
z
" style="fill: #4682b4; fill-opacity: 0.3; stroke: #4682b4; stroke-opacity: 0.3; stroke-linejoin: miter"/>
    </g>
    <g id="text_36">
     <!-- Top 4-10 -->
     <g style="fill: #262626" transform="translate(792.652812 44.535547) scale(0.11 -0.11)">
      <defs>
       <path id="ArialMT-2d" d="M 203 1375 
L 203 1941 
L 1931 1941 
L 1931 1375 
L 203 1375 
z
" transform="scale(0.015625)"/>
      </defs>
      <use xlink:href="#ArialMT-54"/>
      <use xlink:href="#ArialMT-6f" x="49.958984"/>
      <use xlink:href="#ArialMT-70" x="105.574219"/>
      <use xlink:href="#ArialMT-20" x="161.189453"/>
      <use xlink:href="#ArialMT-34" x="188.972656"/>
      <use xlink:href="#ArialMT-2d" x="244.587891"/>
      <use xlink:href="#ArialMT-31" x="277.888672"/>
      <use xlink:href="#ArialMT-30" x="333.503906"/>
     </g>
    </g>
   </g>
  </g>
 </g>
 <defs>
  <clipPath id="p0c3f9147f2">
   <rect x="53.081406" y="11.136797" width="369.81" height="367.74"/>
  </clipPath>
  <clipPath id="p7fd20a1b2e">
   <rect x="475.541406" y="11.136797" width="369.81" height="367.74"/>
  </clipPath>
 </defs>
</svg>
