<?xml version="1.0" encoding="utf-8" standalone="no"?>
<!DOCTYPE svg PUBLIC "-//W3C//DTD SVG 1.1//EN"
  "http://www.w3.org/Graphics/SVG/1.1/DTD/svg11.dtd">
<svg xmlns:xlink="http://www.w3.org/1999/xlink" width="704.842093pt" height="420.864844pt" viewBox="0 0 704.842093 420.864844" xmlns="http://www.w3.org/2000/svg" version="1.1">
 <metadata>
  <rdf:RDF xmlns:dc="http://purl.org/dc/elements/1.1/" xmlns:cc="http://creativecommons.org/ns#" xmlns:rdf="http://www.w3.org/1999/02/22-rdf-syntax-ns#">
   <cc:Work>
    <dc:type rdf:resource="http://purl.org/dc/dcmitype/StillImage"/>
    <dc:date>2026-01-26T19:59:18.771558</dc:date>
    <dc:format>image/svg+xml</dc:format>
    <dc:creator>
     <cc:Agent>
      <dc:title>Matplotlib v3.9.4, https://matplotlib.org/</dc:title>
     </cc:Agent>
    </dc:creator>
   </cc:Work>
  </rdf:RDF>
 </metadata>
 <defs>
  <style type="text/css">*{stroke-linejoin: round; stroke-linecap: butt}</style>
 </defs>
 <g id="figure_1">
  <g id="patch_1">
   <path d="M 0 420.864844 
L 704.842093 420.864844 
L 704.842093 0 
L 0 0 
z
" style="fill: #ffffff"/>
  </g>
  <g id="axes_1">
   <g id="patch_2">
    <path d="M 53.227656 378.84375 
L 696.655043 378.84375 
L 696.655043 7.2 
L 53.227656 7.2 
z
" style="fill: #ffffff"/>
   </g>
   <g id="matplotlib.axis_1">
    <g id="xtick_1">
     <g id="line2d_1">
      <path d="M 89.355932 378.84375 
L 89.355932 7.2 
" clip-path="url(#pb4a4d785b7)" style="fill: none; stroke: #cccccc; stroke-opacity: 0.3; stroke-linecap: round"/>
     </g>
     <g id="text_1">
      <!-- 20 -->
      <g style="fill: #262626" transform="translate(83.238901 396.217344) scale(0.11 -0.11)">
       <defs>
        <path id="ArialMT-32" d="M 3222 541 
L 3222 0 
L 194 0 
Q 188 203 259 391 
Q 375 700 629 1000 
Q 884 1300 1366 1694 
Q 2113 2306 2375 2664 
Q 2638 3022 2638 3341 
Q 2638 3675 2398 3904 
Q 2159 4134 1775 4134 
Q 1369 4134 1125 3890 
Q 881 3647 878 3216 
L 300 3275 
Q 359 3922 746 4261 
Q 1134 4600 1788 4600 
Q 2447 4600 2831 4234 
Q 3216 3869 3216 3328 
Q 3216 3053 3103 2787 
Q 2991 2522 2730 2228 
Q 2469 1934 1863 1422 
Q 1356 997 1212 845 
Q 1069 694 975 541 
L 3222 541 
z
" transform="scale(0.015625)"/>
        <path id="ArialMT-30" d="M 266 2259 
Q 266 3072 433 3567 
Q 600 4063 929 4331 
Q 1259 4600 1759 4600 
Q 2128 4600 2406 4451 
Q 2684 4303 2865 4023 
Q 3047 3744 3150 3342 
Q 3253 2941 3253 2259 
Q 3253 1453 3087 958 
Q 2922 463 2592 192 
Q 2263 -78 1759 -78 
Q 1097 -78 719 397 
Q 266 969 266 2259 
z
M 844 2259 
Q 844 1131 1108 757 
Q 1372 384 1759 384 
Q 2147 384 2411 759 
Q 2675 1134 2675 2259 
Q 2675 3391 2411 3762 
Q 2147 4134 1753 4134 
Q 1366 4134 1134 3806 
Q 844 3388 844 2259 
z
" transform="scale(0.015625)"/>
       </defs>
       <use xlink:href="#ArialMT-32"/>
       <use xlink:href="#ArialMT-30" x="55.615234"/>
      </g>
     </g>
    </g>
    <g id="xtick_2">
     <g id="line2d_2">
      <path d="M 226.987458 378.84375 
L 226.987458 7.2 
" clip-path="url(#pb4a4d785b7)" style="fill: none; stroke: #cccccc; stroke-opacity: 0.3; stroke-linecap: round"/>
     </g>
     <g id="text_2">
      <!-- 40 -->
      <g style="fill: #262626" transform="translate(220.870427 396.217344) scale(0.11 -0.11)">
       <defs>
        <path id="ArialMT-34" d="M 2069 0 
L 2069 1097 
L 81 1097 
L 81 1613 
L 2172 4581 
L 2631 4581 
L 2631 1613 
L 3250 1613 
L 3250 1097 
L 2631 1097 
L 2631 0 
L 2069 0 
z
M 2069 1613 
L 2069 3678 
L 634 1613 
L 2069 1613 
z
" transform="scale(0.015625)"/>
       </defs>
       <use xlink:href="#ArialMT-34"/>
       <use xlink:href="#ArialMT-30" x="55.615234"/>
      </g>
     </g>
    </g>
    <g id="xtick_3">
     <g id="line2d_3">
      <path d="M 364.618985 378.84375 
L 364.618985 7.2 
" clip-path="url(#pb4a4d785b7)" style="fill: none; stroke: #cccccc; stroke-opacity: 0.3; stroke-linecap: round"/>
     </g>
     <g id="text_3">
      <!-- 60 -->
      <g style="fill: #262626" transform="translate(358.501954 396.217344) scale(0.11 -0.11)">
       <defs>
        <path id="ArialMT-36" d="M 3184 3459 
L 2625 3416 
Q 2550 3747 2413 3897 
Q 2184 4138 1850 4138 
Q 1581 4138 1378 3988 
Q 1113 3794 959 3422 
Q 806 3050 800 2363 
Q 1003 2672 1297 2822 
Q 1591 2972 1913 2972 
Q 2475 2972 2870 2558 
Q 3266 2144 3266 1488 
Q 3266 1056 3080 686 
Q 2894 316 2569 119 
Q 2244 -78 1831 -78 
Q 1128 -78 684 439 
Q 241 956 241 2144 
Q 241 3472 731 4075 
Q 1159 4600 1884 4600 
Q 2425 4600 2770 4297 
Q 3116 3994 3184 3459 
z
M 888 1484 
Q 888 1194 1011 928 
Q 1134 663 1356 523 
Q 1578 384 1822 384 
Q 2178 384 2434 671 
Q 2691 959 2691 1453 
Q 2691 1928 2437 2201 
Q 2184 2475 1800 2475 
Q 1419 2475 1153 2201 
Q 888 1928 888 1484 
z
" transform="scale(0.015625)"/>
       </defs>
       <use xlink:href="#ArialMT-36"/>
       <use xlink:href="#ArialMT-30" x="55.615234"/>
      </g>
     </g>
    </g>
    <g id="xtick_4">
     <g id="line2d_4">
      <path d="M 502.250511 378.84375 
L 502.250511 7.2 
" clip-path="url(#pb4a4d785b7)" style="fill: none; stroke: #cccccc; stroke-opacity: 0.3; stroke-linecap: round"/>
     </g>
     <g id="text_4">
      <!-- 80 -->
      <g style="fill: #262626" transform="translate(496.13348 396.217344) scale(0.11 -0.11)">
       <defs>
        <path id="ArialMT-38" d="M 1131 2484 
Q 781 2613 612 2850 
Q 444 3088 444 3419 
Q 444 3919 803 4259 
Q 1163 4600 1759 4600 
Q 2359 4600 2725 4251 
Q 3091 3903 3091 3403 
Q 3091 3084 2923 2848 
Q 2756 2613 2416 2484 
Q 2838 2347 3058 2040 
Q 3278 1734 3278 1309 
Q 3278 722 2862 322 
Q 2447 -78 1769 -78 
Q 1091 -78 675 323 
Q 259 725 259 1325 
Q 259 1772 486 2073 
Q 713 2375 1131 2484 
z
M 1019 3438 
Q 1019 3113 1228 2906 
Q 1438 2700 1772 2700 
Q 2097 2700 2305 2904 
Q 2513 3109 2513 3406 
Q 2513 3716 2298 3927 
Q 2084 4138 1766 4138 
Q 1444 4138 1231 3931 
Q 1019 3725 1019 3438 
z
M 838 1322 
Q 838 1081 952 856 
Q 1066 631 1291 507 
Q 1516 384 1775 384 
Q 2178 384 2440 643 
Q 2703 903 2703 1303 
Q 2703 1709 2433 1975 
Q 2163 2241 1756 2241 
Q 1359 2241 1098 1978 
Q 838 1716 838 1322 
z
" transform="scale(0.015625)"/>
       </defs>
       <use xlink:href="#ArialMT-38"/>
       <use xlink:href="#ArialMT-30" x="55.615234"/>
      </g>
     </g>
    </g>
    <g id="xtick_5">
     <g id="line2d_5">
      <path d="M 639.882038 378.84375 
L 639.882038 7.2 
" clip-path="url(#pb4a4d785b7)" style="fill: none; stroke: #cccccc; stroke-opacity: 0.3; stroke-linecap: round"/>
     </g>
     <g id="text_5">
      <!-- 100 -->
      <g style="fill: #262626" transform="translate(630.706491 396.217344) scale(0.11 -0.11)">
       <defs>
        <path id="ArialMT-31" d="M 2384 0 
L 1822 0 
L 1822 3584 
Q 1619 3391 1289 3197 
Q 959 3003 697 2906 
L 697 3450 
Q 1169 3672 1522 3987 
Q 1875 4303 2022 4600 
L 2384 4600 
L 2384 0 
z
" transform="scale(0.015625)"/>
       </defs>
       <use xlink:href="#ArialMT-31"/>
       <use xlink:href="#ArialMT-30" x="55.615234"/>
       <use xlink:href="#ArialMT-30" x="111.230469"/>
      </g>
     </g>
    </g>
    <g id="text_6">
     <!-- Number of Medal-Winning Countries -->
     <g style="fill: #262626" transform="translate(277.907287 411.139219) scale(0.12 -0.12)">
      <defs>
       <path id="ArialMT-4e" d="M 488 0 
L 488 4581 
L 1109 4581 
L 3516 984 
L 3516 4581 
L 4097 4581 
L 4097 0 
L 3475 0 
L 1069 3600 
L 1069 0 
L 488 0 
z
" transform="scale(0.015625)"/>
       <path id="ArialMT-75" d="M 2597 0 
L 2597 488 
Q 2209 -75 1544 -75 
Q 1250 -75 995 37 
Q 741 150 617 320 
Q 494 491 444 738 
Q 409 903 409 1263 
L 409 3319 
L 972 3319 
L 972 1478 
Q 972 1038 1006 884 
Q 1059 663 1231 536 
Q 1403 409 1656 409 
Q 1909 409 2131 539 
Q 2353 669 2445 892 
Q 2538 1116 2538 1541 
L 2538 3319 
L 3100 3319 
L 3100 0 
L 2597 0 
z
" transform="scale(0.015625)"/>
       <path id="ArialMT-6d" d="M 422 0 
L 422 3319 
L 925 3319 
L 925 2853 
Q 1081 3097 1340 3245 
Q 1600 3394 1931 3394 
Q 2300 3394 2536 3241 
Q 2772 3088 2869 2813 
Q 3263 3394 3894 3394 
Q 4388 3394 4653 3120 
Q 4919 2847 4919 2278 
L 4919 0 
L 4359 0 
L 4359 2091 
Q 4359 2428 4304 2576 
Q 4250 2725 4106 2815 
Q 3963 2906 3769 2906 
Q 3419 2906 3187 2673 
Q 2956 2441 2956 1928 
L 2956 0 
L 2394 0 
L 2394 2156 
Q 2394 2531 2256 2718 
Q 2119 2906 1806 2906 
Q 1569 2906 1367 2781 
Q 1166 2656 1075 2415 
Q 984 2175 984 1722 
L 984 0 
L 422 0 
z
" transform="scale(0.015625)"/>
       <path id="ArialMT-62" d="M 941 0 
L 419 0 
L 419 4581 
L 981 4581 
L 981 2947 
Q 1338 3394 1891 3394 
Q 2197 3394 2470 3270 
Q 2744 3147 2920 2923 
Q 3097 2700 3197 2384 
Q 3297 2069 3297 1709 
Q 3297 856 2875 390 
Q 2453 -75 1863 -75 
Q 1275 -75 941 416 
L 941 0 
z
M 934 1684 
Q 934 1088 1097 822 
Q 1363 388 1816 388 
Q 2184 388 2453 708 
Q 2722 1028 2722 1663 
Q 2722 2313 2464 2622 
Q 2206 2931 1841 2931 
Q 1472 2931 1203 2611 
Q 934 2291 934 1684 
z
" transform="scale(0.015625)"/>
       <path id="ArialMT-65" d="M 2694 1069 
L 3275 997 
Q 3138 488 2766 206 
Q 2394 -75 1816 -75 
Q 1088 -75 661 373 
Q 234 822 234 1631 
Q 234 2469 665 2931 
Q 1097 3394 1784 3394 
Q 2450 3394 2872 2941 
Q 3294 2488 3294 1666 
Q 3294 1616 3291 1516 
L 816 1516 
Q 847 969 1125 678 
Q 1403 388 1819 388 
Q 2128 388 2347 550 
Q 2566 713 2694 1069 
z
M 847 1978 
L 2700 1978 
Q 2663 2397 2488 2606 
Q 2219 2931 1791 2931 
Q 1403 2931 1139 2672 
Q 875 2413 847 1978 
z
" transform="scale(0.015625)"/>
       <path id="ArialMT-72" d="M 416 0 
L 416 3319 
L 922 3319 
L 922 2816 
Q 1116 3169 1280 3281 
Q 1444 3394 1641 3394 
Q 1925 3394 2219 3213 
L 2025 2691 
Q 1819 2813 1613 2813 
Q 1428 2813 1281 2702 
Q 1134 2591 1072 2394 
Q 978 2094 978 1738 
L 978 0 
L 416 0 
z
" transform="scale(0.015625)"/>
       <path id="ArialMT-20" transform="scale(0.015625)"/>
       <path id="ArialMT-6f" d="M 213 1659 
Q 213 2581 725 3025 
Q 1153 3394 1769 3394 
Q 2453 3394 2887 2945 
Q 3322 2497 3322 1706 
Q 3322 1066 3130 698 
Q 2938 331 2570 128 
Q 2203 -75 1769 -75 
Q 1072 -75 642 372 
Q 213 819 213 1659 
z
M 791 1659 
Q 791 1022 1069 705 
Q 1347 388 1769 388 
Q 2188 388 2466 706 
Q 2744 1025 2744 1678 
Q 2744 2294 2464 2611 
Q 2184 2928 1769 2928 
Q 1347 2928 1069 2612 
Q 791 2297 791 1659 
z
" transform="scale(0.015625)"/>
       <path id="ArialMT-66" d="M 556 0 
L 556 2881 
L 59 2881 
L 59 3319 
L 556 3319 
L 556 3672 
Q 556 4006 616 4169 
Q 697 4388 901 4523 
Q 1106 4659 1475 4659 
Q 1713 4659 2000 4603 
L 1916 4113 
Q 1741 4144 1584 4144 
Q 1328 4144 1222 4034 
Q 1116 3925 1116 3625 
L 1116 3319 
L 1763 3319 
L 1763 2881 
L 1116 2881 
L 1116 0 
L 556 0 
z
" transform="scale(0.015625)"/>
       <path id="ArialMT-4d" d="M 475 0 
L 475 4581 
L 1388 4581 
L 2472 1338 
Q 2622 884 2691 659 
Q 2769 909 2934 1394 
L 4031 4581 
L 4847 4581 
L 4847 0 
L 4263 0 
L 4263 3834 
L 2931 0 
L 2384 0 
L 1059 3900 
L 1059 0 
L 475 0 
z
" transform="scale(0.015625)"/>
       <path id="ArialMT-64" d="M 2575 0 
L 2575 419 
Q 2259 -75 1647 -75 
Q 1250 -75 917 144 
Q 584 363 401 755 
Q 219 1147 219 1656 
Q 219 2153 384 2558 
Q 550 2963 881 3178 
Q 1213 3394 1622 3394 
Q 1922 3394 2156 3267 
Q 2391 3141 2538 2938 
L 2538 4581 
L 3097 4581 
L 3097 0 
L 2575 0 
z
M 797 1656 
Q 797 1019 1065 703 
Q 1334 388 1700 388 
Q 2069 388 2326 689 
Q 2584 991 2584 1609 
Q 2584 2291 2321 2609 
Q 2059 2928 1675 2928 
Q 1300 2928 1048 2622 
Q 797 2316 797 1656 
z
" transform="scale(0.015625)"/>
       <path id="ArialMT-61" d="M 2588 409 
Q 2275 144 1986 34 
Q 1697 -75 1366 -75 
Q 819 -75 525 192 
Q 231 459 231 875 
Q 231 1119 342 1320 
Q 453 1522 633 1644 
Q 813 1766 1038 1828 
Q 1203 1872 1538 1913 
Q 2219 1994 2541 2106 
Q 2544 2222 2544 2253 
Q 2544 2597 2384 2738 
Q 2169 2928 1744 2928 
Q 1347 2928 1158 2789 
Q 969 2650 878 2297 
L 328 2372 
Q 403 2725 575 2942 
Q 747 3159 1072 3276 
Q 1397 3394 1825 3394 
Q 2250 3394 2515 3294 
Q 2781 3194 2906 3042 
Q 3031 2891 3081 2659 
Q 3109 2516 3109 2141 
L 3109 1391 
Q 3109 606 3145 398 
Q 3181 191 3288 0 
L 2700 0 
Q 2613 175 2588 409 
z
M 2541 1666 
Q 2234 1541 1622 1453 
Q 1275 1403 1131 1340 
Q 988 1278 909 1158 
Q 831 1038 831 891 
Q 831 666 1001 516 
Q 1172 366 1500 366 
Q 1825 366 2078 508 
Q 2331 650 2450 897 
Q 2541 1088 2541 1459 
L 2541 1666 
z
" transform="scale(0.015625)"/>
       <path id="ArialMT-6c" d="M 409 0 
L 409 4581 
L 972 4581 
L 972 0 
L 409 0 
z
" transform="scale(0.015625)"/>
       <path id="ArialMT-2d" d="M 203 1375 
L 203 1941 
L 1931 1941 
L 1931 1375 
L 203 1375 
z
" transform="scale(0.015625)"/>
       <path id="ArialMT-57" d="M 1294 0 
L 78 4581 
L 700 4581 
L 1397 1578 
Q 1509 1106 1591 641 
Q 1766 1375 1797 1488 
L 2669 4581 
L 3400 4581 
L 4056 2263 
Q 4303 1400 4413 641 
Q 4500 1075 4641 1638 
L 5359 4581 
L 5969 4581 
L 4713 0 
L 4128 0 
L 3163 3491 
Q 3041 3928 3019 4028 
Q 2947 3713 2884 3491 
L 1913 0 
L 1294 0 
z
" transform="scale(0.015625)"/>
       <path id="ArialMT-69" d="M 425 3934 
L 425 4581 
L 988 4581 
L 988 3934 
L 425 3934 
z
M 425 0 
L 425 3319 
L 988 3319 
L 988 0 
L 425 0 
z
" transform="scale(0.015625)"/>
       <path id="ArialMT-6e" d="M 422 0 
L 422 3319 
L 928 3319 
L 928 2847 
Q 1294 3394 1984 3394 
Q 2284 3394 2536 3286 
Q 2788 3178 2913 3003 
Q 3038 2828 3088 2588 
Q 3119 2431 3119 2041 
L 3119 0 
L 2556 0 
L 2556 2019 
Q 2556 2363 2490 2533 
Q 2425 2703 2258 2804 
Q 2091 2906 1866 2906 
Q 1506 2906 1245 2678 
Q 984 2450 984 1813 
L 984 0 
L 422 0 
z
" transform="scale(0.015625)"/>
       <path id="ArialMT-67" d="M 319 -275 
L 866 -356 
Q 900 -609 1056 -725 
Q 1266 -881 1628 -881 
Q 2019 -881 2231 -725 
Q 2444 -569 2519 -288 
Q 2563 -116 2559 434 
Q 2191 0 1641 0 
Q 956 0 581 494 
Q 206 988 206 1678 
Q 206 2153 378 2554 
Q 550 2956 876 3175 
Q 1203 3394 1644 3394 
Q 2231 3394 2613 2919 
L 2613 3319 
L 3131 3319 
L 3131 450 
Q 3131 -325 2973 -648 
Q 2816 -972 2473 -1159 
Q 2131 -1347 1631 -1347 
Q 1038 -1347 672 -1080 
Q 306 -813 319 -275 
z
M 784 1719 
Q 784 1066 1043 766 
Q 1303 466 1694 466 
Q 2081 466 2343 764 
Q 2606 1063 2606 1700 
Q 2606 2309 2336 2618 
Q 2066 2928 1684 2928 
Q 1309 2928 1046 2623 
Q 784 2319 784 1719 
z
" transform="scale(0.015625)"/>
       <path id="ArialMT-43" d="M 3763 1606 
L 4369 1453 
Q 4178 706 3683 314 
Q 3188 -78 2472 -78 
Q 1731 -78 1267 223 
Q 803 525 561 1097 
Q 319 1669 319 2325 
Q 319 3041 592 3573 
Q 866 4106 1370 4382 
Q 1875 4659 2481 4659 
Q 3169 4659 3637 4309 
Q 4106 3959 4291 3325 
L 3694 3184 
Q 3534 3684 3231 3912 
Q 2928 4141 2469 4141 
Q 1941 4141 1586 3887 
Q 1231 3634 1087 3207 
Q 944 2781 944 2328 
Q 944 1744 1114 1308 
Q 1284 872 1643 656 
Q 2003 441 2422 441 
Q 2931 441 3284 734 
Q 3638 1028 3763 1606 
z
" transform="scale(0.015625)"/>
       <path id="ArialMT-74" d="M 1650 503 
L 1731 6 
Q 1494 -44 1306 -44 
Q 1000 -44 831 53 
Q 663 150 594 308 
Q 525 466 525 972 
L 525 2881 
L 113 2881 
L 113 3319 
L 525 3319 
L 525 4141 
L 1084 4478 
L 1084 3319 
L 1650 3319 
L 1650 2881 
L 1084 2881 
L 1084 941 
Q 1084 700 1114 631 
Q 1144 563 1211 522 
Q 1278 481 1403 481 
Q 1497 481 1650 503 
z
" transform="scale(0.015625)"/>
       <path id="ArialMT-73" d="M 197 991 
L 753 1078 
Q 800 744 1014 566 
Q 1228 388 1613 388 
Q 2000 388 2187 545 
Q 2375 703 2375 916 
Q 2375 1106 2209 1216 
Q 2094 1291 1634 1406 
Q 1016 1563 777 1677 
Q 538 1791 414 1992 
Q 291 2194 291 2438 
Q 291 2659 392 2848 
Q 494 3038 669 3163 
Q 800 3259 1026 3326 
Q 1253 3394 1513 3394 
Q 1903 3394 2198 3281 
Q 2494 3169 2634 2976 
Q 2775 2784 2828 2463 
L 2278 2388 
Q 2241 2644 2061 2787 
Q 1881 2931 1553 2931 
Q 1166 2931 1000 2803 
Q 834 2675 834 2503 
Q 834 2394 903 2306 
Q 972 2216 1119 2156 
Q 1203 2125 1616 2013 
Q 2213 1853 2448 1751 
Q 2684 1650 2818 1456 
Q 2953 1263 2953 975 
Q 2953 694 2789 445 
Q 2625 197 2315 61 
Q 2006 -75 1616 -75 
Q 969 -75 630 194 
Q 291 463 197 991 
z
" transform="scale(0.015625)"/>
      </defs>
      <use xlink:href="#ArialMT-4e"/>
      <use xlink:href="#ArialMT-75" x="72.216797"/>
      <use xlink:href="#ArialMT-6d" x="127.832031"/>
      <use xlink:href="#ArialMT-62" x="211.132812"/>
      <use xlink:href="#ArialMT-65" x="266.748047"/>
      <use xlink:href="#ArialMT-72" x="322.363281"/>
      <use xlink:href="#ArialMT-20" x="355.664062"/>
      <use xlink:href="#ArialMT-6f" x="383.447266"/>
      <use xlink:href="#ArialMT-66" x="439.0625"/>
      <use xlink:href="#ArialMT-20" x="466.845703"/>
      <use xlink:href="#ArialMT-4d" x="494.628906"/>
      <use xlink:href="#ArialMT-65" x="577.929688"/>
      <use xlink:href="#ArialMT-64" x="633.544922"/>
      <use xlink:href="#ArialMT-61" x="689.160156"/>
      <use xlink:href="#ArialMT-6c" x="744.775391"/>
      <use xlink:href="#ArialMT-2d" x="766.992188"/>
      <use xlink:href="#ArialMT-57" x="800.292969"/>
      <use xlink:href="#ArialMT-69" x="894.677734"/>
      <use xlink:href="#ArialMT-6e" x="916.894531"/>
      <use xlink:href="#ArialMT-6e" x="972.509766"/>
      <use xlink:href="#ArialMT-69" x="1028.125"/>
      <use xlink:href="#ArialMT-6e" x="1050.341797"/>
      <use xlink:href="#ArialMT-67" x="1105.957031"/>
      <use xlink:href="#ArialMT-20" x="1161.572266"/>
      <use xlink:href="#ArialMT-43" x="1189.355469"/>
      <use xlink:href="#ArialMT-6f" x="1261.572266"/>
      <use xlink:href="#ArialMT-75" x="1317.1875"/>
      <use xlink:href="#ArialMT-6e" x="1372.802734"/>
      <use xlink:href="#ArialMT-74" x="1428.417969"/>
      <use xlink:href="#ArialMT-72" x="1456.201172"/>
      <use xlink:href="#ArialMT-69" x="1489.501953"/>
      <use xlink:href="#ArialMT-65" x="1511.71875"/>
      <use xlink:href="#ArialMT-73" x="1567.333984"/>
     </g>
    </g>
   </g>
   <g id="matplotlib.axis_2">
    <g id="ytick_1">
     <g id="line2d_6">
      <path d="M 53.227656 351.723176 
L 696.655043 351.723176 
" clip-path="url(#pb4a4d785b7)" style="fill: none; stroke: #cccccc; stroke-opacity: 0.3; stroke-linecap: round"/>
     </g>
     <g id="text_7">
      <!-- 0.25 -->
      <g style="fill: #262626" transform="translate(22.320625 355.659973) scale(0.11 -0.11)">
       <defs>
        <path id="ArialMT-2e" d="M 581 0 
L 581 641 
L 1222 641 
L 1222 0 
L 581 0 
z
" transform="scale(0.015625)"/>
        <path id="ArialMT-35" d="M 266 1200 
L 856 1250 
Q 922 819 1161 601 
Q 1400 384 1738 384 
Q 2144 384 2425 690 
Q 2706 997 2706 1503 
Q 2706 1984 2436 2262 
Q 2166 2541 1728 2541 
Q 1456 2541 1237 2417 
Q 1019 2294 894 2097 
L 366 2166 
L 809 4519 
L 3088 4519 
L 3088 3981 
L 1259 3981 
L 1013 2750 
Q 1425 3038 1878 3038 
Q 2478 3038 2890 2622 
Q 3303 2206 3303 1553 
Q 3303 931 2941 478 
Q 2500 -78 1738 -78 
Q 1113 -78 717 272 
Q 322 622 266 1200 
z
" transform="scale(0.015625)"/>
       </defs>
       <use xlink:href="#ArialMT-30"/>
       <use xlink:href="#ArialMT-2e" x="55.615234"/>
       <use xlink:href="#ArialMT-32" x="83.398438"/>
       <use xlink:href="#ArialMT-35" x="139.013672"/>
      </g>
     </g>
    </g>
    <g id="ytick_2">
     <g id="line2d_7">
      <path d="M 53.227656 295.077582 
L 696.655043 295.077582 
" clip-path="url(#pb4a4d785b7)" style="fill: none; stroke: #cccccc; stroke-opacity: 0.3; stroke-linecap: round"/>
     </g>
     <g id="text_8">
      <!-- 0.30 -->
      <g style="fill: #262626" transform="translate(22.320625 299.014379) scale(0.11 -0.11)">
       <defs>
        <path id="ArialMT-33" d="M 269 1209 
L 831 1284 
Q 928 806 1161 595 
Q 1394 384 1728 384 
Q 2125 384 2398 659 
Q 2672 934 2672 1341 
Q 2672 1728 2419 1979 
Q 2166 2231 1775 2231 
Q 1616 2231 1378 2169 
L 1441 2663 
Q 1497 2656 1531 2656 
Q 1891 2656 2178 2843 
Q 2466 3031 2466 3422 
Q 2466 3731 2256 3934 
Q 2047 4138 1716 4138 
Q 1388 4138 1169 3931 
Q 950 3725 888 3313 
L 325 3413 
Q 428 3978 793 4289 
Q 1159 4600 1703 4600 
Q 2078 4600 2393 4439 
Q 2709 4278 2876 4000 
Q 3044 3722 3044 3409 
Q 3044 3113 2884 2869 
Q 2725 2625 2413 2481 
Q 2819 2388 3044 2092 
Q 3269 1797 3269 1353 
Q 3269 753 2831 336 
Q 2394 -81 1725 -81 
Q 1122 -81 723 278 
Q 325 638 269 1209 
z
" transform="scale(0.015625)"/>
       </defs>
       <use xlink:href="#ArialMT-30"/>
       <use xlink:href="#ArialMT-2e" x="55.615234"/>
       <use xlink:href="#ArialMT-33" x="83.398438"/>
       <use xlink:href="#ArialMT-30" x="139.013672"/>
      </g>
     </g>
    </g>
    <g id="ytick_3">
     <g id="line2d_8">
      <path d="M 53.227656 238.431988 
L 696.655043 238.431988 
" clip-path="url(#pb4a4d785b7)" style="fill: none; stroke: #cccccc; stroke-opacity: 0.3; stroke-linecap: round"/>
     </g>
     <g id="text_9">
      <!-- 0.35 -->
      <g style="fill: #262626" transform="translate(22.320625 242.368785) scale(0.11 -0.11)">
       <use xlink:href="#ArialMT-30"/>
       <use xlink:href="#ArialMT-2e" x="55.615234"/>
       <use xlink:href="#ArialMT-33" x="83.398438"/>
       <use xlink:href="#ArialMT-35" x="139.013672"/>
      </g>
     </g>
    </g>
    <g id="ytick_4">
     <g id="line2d_9">
      <path d="M 53.227656 181.786395 
L 696.655043 181.786395 
" clip-path="url(#pb4a4d785b7)" style="fill: none; stroke: #cccccc; stroke-opacity: 0.3; stroke-linecap: round"/>
     </g>
     <g id="text_10">
      <!-- 0.40 -->
      <g style="fill: #262626" transform="translate(22.320625 185.723192) scale(0.11 -0.11)">
       <use xlink:href="#ArialMT-30"/>
       <use xlink:href="#ArialMT-2e" x="55.615234"/>
       <use xlink:href="#ArialMT-34" x="83.398438"/>
       <use xlink:href="#ArialMT-30" x="139.013672"/>
      </g>
     </g>
    </g>
    <g id="ytick_5">
     <g id="line2d_10">
      <path d="M 53.227656 125.140801 
L 696.655043 125.140801 
" clip-path="url(#pb4a4d785b7)" style="fill: none; stroke: #cccccc; stroke-opacity: 0.3; stroke-linecap: round"/>
     </g>
     <g id="text_11">
      <!-- 0.45 -->
      <g style="fill: #262626" transform="translate(22.320625 129.077598) scale(0.11 -0.11)">
       <use xlink:href="#ArialMT-30"/>
       <use xlink:href="#ArialMT-2e" x="55.615234"/>
       <use xlink:href="#ArialMT-34" x="83.398438"/>
       <use xlink:href="#ArialMT-35" x="139.013672"/>
      </g>
     </g>
    </g>
    <g id="ytick_6">
     <g id="line2d_11">
      <path d="M 53.227656 68.495207 
L 696.655043 68.495207 
" clip-path="url(#pb4a4d785b7)" style="fill: none; stroke: #cccccc; stroke-opacity: 0.3; stroke-linecap: round"/>
     </g>
     <g id="text_12">
      <!-- 0.50 -->
      <g style="fill: #262626" transform="translate(22.320625 72.432004) scale(0.11 -0.11)">
       <use xlink:href="#ArialMT-30"/>
       <use xlink:href="#ArialMT-2e" x="55.615234"/>
       <use xlink:href="#ArialMT-35" x="83.398438"/>
       <use xlink:href="#ArialMT-30" x="139.013672"/>
      </g>
     </g>
    </g>
    <g id="ytick_7">
     <g id="line2d_12">
      <path d="M 53.227656 11.849614 
L 696.655043 11.849614 
" clip-path="url(#pb4a4d785b7)" style="fill: none; stroke: #cccccc; stroke-opacity: 0.3; stroke-linecap: round"/>
     </g>
     <g id="text_13">
      <!-- 0.55 -->
      <g style="fill: #262626" transform="translate(22.320625 15.786411) scale(0.11 -0.11)">
       <use xlink:href="#ArialMT-30"/>
       <use xlink:href="#ArialMT-2e" x="55.615234"/>
       <use xlink:href="#ArialMT-35" x="83.398438"/>
       <use xlink:href="#ArialMT-35" x="139.013672"/>
      </g>
     </g>
    </g>
    <g id="text_14">
     <!-- Top 3 Countries Medal Share -->
     <g style="fill: #262626" transform="translate(15.935625 270.72375) rotate(-90) scale(0.12 -0.12)">
      <defs>
       <path id="ArialMT-54" d="M 1659 0 
L 1659 4041 
L 150 4041 
L 150 4581 
L 3781 4581 
L 3781 4041 
L 2266 4041 
L 2266 0 
L 1659 0 
z
" transform="scale(0.015625)"/>
       <path id="ArialMT-70" d="M 422 -1272 
L 422 3319 
L 934 3319 
L 934 2888 
Q 1116 3141 1344 3267 
Q 1572 3394 1897 3394 
Q 2322 3394 2647 3175 
Q 2972 2956 3137 2557 
Q 3303 2159 3303 1684 
Q 3303 1175 3120 767 
Q 2938 359 2589 142 
Q 2241 -75 1856 -75 
Q 1575 -75 1351 44 
Q 1128 163 984 344 
L 984 -1272 
L 422 -1272 
z
M 931 1641 
Q 931 1000 1190 694 
Q 1450 388 1819 388 
Q 2194 388 2461 705 
Q 2728 1022 2728 1688 
Q 2728 2322 2467 2637 
Q 2206 2953 1844 2953 
Q 1484 2953 1207 2617 
Q 931 2281 931 1641 
z
" transform="scale(0.015625)"/>
       <path id="ArialMT-53" d="M 288 1472 
L 859 1522 
Q 900 1178 1048 958 
Q 1197 738 1509 602 
Q 1822 466 2213 466 
Q 2559 466 2825 569 
Q 3091 672 3220 851 
Q 3350 1031 3350 1244 
Q 3350 1459 3225 1620 
Q 3100 1781 2813 1891 
Q 2628 1963 1997 2114 
Q 1366 2266 1113 2400 
Q 784 2572 623 2826 
Q 463 3081 463 3397 
Q 463 3744 659 4045 
Q 856 4347 1234 4503 
Q 1613 4659 2075 4659 
Q 2584 4659 2973 4495 
Q 3363 4331 3572 4012 
Q 3781 3694 3797 3291 
L 3216 3247 
Q 3169 3681 2898 3903 
Q 2628 4125 2100 4125 
Q 1550 4125 1298 3923 
Q 1047 3722 1047 3438 
Q 1047 3191 1225 3031 
Q 1400 2872 2139 2705 
Q 2878 2538 3153 2413 
Q 3553 2228 3743 1945 
Q 3934 1663 3934 1294 
Q 3934 928 3725 604 
Q 3516 281 3123 101 
Q 2731 -78 2241 -78 
Q 1619 -78 1198 103 
Q 778 284 539 648 
Q 300 1013 288 1472 
z
" transform="scale(0.015625)"/>
       <path id="ArialMT-68" d="M 422 0 
L 422 4581 
L 984 4581 
L 984 2938 
Q 1378 3394 1978 3394 
Q 2347 3394 2619 3248 
Q 2891 3103 3008 2847 
Q 3125 2591 3125 2103 
L 3125 0 
L 2563 0 
L 2563 2103 
Q 2563 2525 2380 2717 
Q 2197 2909 1863 2909 
Q 1613 2909 1392 2779 
Q 1172 2650 1078 2428 
Q 984 2206 984 1816 
L 984 0 
L 422 0 
z
" transform="scale(0.015625)"/>
      </defs>
      <use xlink:href="#ArialMT-54"/>
      <use xlink:href="#ArialMT-6f" x="49.958984"/>
      <use xlink:href="#ArialMT-70" x="105.574219"/>
      <use xlink:href="#ArialMT-20" x="161.189453"/>
      <use xlink:href="#ArialMT-33" x="188.972656"/>
      <use xlink:href="#ArialMT-20" x="244.587891"/>
      <use xlink:href="#ArialMT-43" x="272.371094"/>
      <use xlink:href="#ArialMT-6f" x="344.587891"/>
      <use xlink:href="#ArialMT-75" x="400.203125"/>
      <use xlink:href="#ArialMT-6e" x="455.818359"/>
      <use xlink:href="#ArialMT-74" x="511.433594"/>
      <use xlink:href="#ArialMT-72" x="539.216797"/>
      <use xlink:href="#ArialMT-69" x="572.517578"/>
      <use xlink:href="#ArialMT-65" x="594.734375"/>
      <use xlink:href="#ArialMT-73" x="650.349609"/>
      <use xlink:href="#ArialMT-20" x="700.349609"/>
      <use xlink:href="#ArialMT-4d" x="728.132812"/>
      <use xlink:href="#ArialMT-65" x="811.433594"/>
      <use xlink:href="#ArialMT-64" x="867.048828"/>
      <use xlink:href="#ArialMT-61" x="922.664062"/>
      <use xlink:href="#ArialMT-6c" x="978.279297"/>
      <use xlink:href="#ArialMT-20" x="1000.496094"/>
      <use xlink:href="#ArialMT-53" x="1028.279297"/>
      <use xlink:href="#ArialMT-68" x="1094.978516"/>
      <use xlink:href="#ArialMT-61" x="1150.59375"/>
      <use xlink:href="#ArialMT-72" x="1206.208984"/>
      <use xlink:href="#ArialMT-65" x="1239.509766"/>
     </g>
    </g>
   </g>
   <g id="PathCollection_1">
    <path d="M 667.408343 175.56759 
C 669.381613 175.56759 671.274328 174.783602 672.669641 173.38829 
C 674.064953 171.992977 674.848941 170.100262 674.848941 168.126992 
C 674.848941 166.153722 674.064953 164.261007 672.669641 162.865695 
C 671.274328 161.470382 669.381613 160.686394 667.408343 160.686394 
C 665.435074 160.686394 663.542358 161.470382 662.147046 162.865695 
C 660.751733 164.261007 659.967745 166.153722 659.967745 168.126992 
C 659.967745 170.100262 660.751733 171.992977 662.147046 173.38829 
C 663.542358 174.783602 665.435074 175.56759 667.408343 175.56759 
z
" clip-path="url(#pb4a4d785b7)" style="fill: #440154; fill-opacity: 0.6; stroke: #440154; stroke-opacity: 0.6"/>
    <path d="M 337.09268 30.678868 
C 338.839299 30.678868 340.514617 29.984928 341.749664 28.749882 
C 342.98471 27.514835 343.67865 25.839517 343.67865 24.092898 
C 343.67865 22.346278 342.98471 20.67096 341.749664 19.435914 
C 340.514617 18.200867 338.839299 17.506928 337.09268 17.506928 
C 335.34606 17.506928 333.670742 18.200867 332.435696 19.435914 
C 331.200649 20.67096 330.50671 22.346278 330.50671 24.092898 
C 330.50671 25.839517 331.200649 27.514835 332.435696 28.749882 
C 333.670742 29.984928 335.34606 30.678868 337.09268 30.678868 
z
" clip-path="url(#pb4a4d785b7)" style="fill: #481467; fill-opacity: 0.6; stroke: #481467; stroke-opacity: 0.6"/>
    <path d="M 247.632187 305.254256 
C 249.318105 305.254256 250.9352 304.584434 252.127324 303.39231 
C 253.319448 302.200186 253.98927 300.583092 253.98927 298.897174 
C 253.98927 297.211256 253.319448 295.594161 252.127324 294.402037 
C 250.9352 293.209913 249.318105 292.540091 247.632187 292.540091 
C 245.946269 292.540091 244.329175 293.209913 243.137051 294.402037 
C 241.944927 295.594161 241.275105 297.211256 241.275105 298.897174 
C 241.275105 300.583092 241.944927 302.200186 243.137051 303.39231 
C 244.329175 304.584434 245.946269 305.254256 247.632187 305.254256 
z
" clip-path="url(#pb4a4d785b7)" style="fill: #482576; fill-opacity: 0.6; stroke: #482576; stroke-opacity: 0.6"/>
    <path d="M 206.342729 314.850654 
C 207.751055 314.850654 209.101889 314.29112 210.097726 313.295283 
C 211.093563 312.299447 211.653097 310.948613 211.653097 309.540287 
C 211.653097 308.131961 211.093563 306.781127 210.097726 305.78529 
C 209.101889 304.789453 207.751055 304.22992 206.342729 304.22992 
C 204.934404 304.22992 203.58357 304.789453 202.587733 305.78529 
C 201.591896 306.781127 201.032362 308.131961 201.032362 309.540287 
C 201.032362 310.948613 201.591896 312.299447 202.587733 313.295283 
C 203.58357 314.29112 204.934404 314.850654 206.342729 314.850654 
z
" clip-path="url(#pb4a4d785b7)" style="fill: #453781; fill-opacity: 0.6; stroke: #453781; stroke-opacity: 0.6"/>
    <path d="M 220.105882 63.67724 
C 221.406121 63.67724 222.653281 63.16065 223.572689 62.241242 
C 224.492097 61.321834 225.008687 60.074674 225.008687 58.774435 
C 225.008687 57.474196 224.492097 56.227036 223.572689 55.307628 
C 222.653281 54.38822 221.406121 53.871629 220.105882 53.871629 
C 218.805643 53.871629 217.558483 54.38822 216.639075 55.307628 
C 215.719667 56.227036 215.203077 57.474196 215.203077 58.774435 
C 215.203077 60.074674 215.719667 61.321834 216.639075 62.241242 
C 217.558483 63.16065 218.805643 63.67724 220.105882 63.67724 
z
" clip-path="url(#pb4a4d785b7)" style="fill: #404688; fill-opacity: 0.6; stroke: #404688; stroke-opacity: 0.6"/>
    <path d="M 199.461153 361.927858 
C 200.728522 361.927858 201.944152 361.424328 202.840317 360.528163 
C 203.736482 359.631998 204.240013 358.416367 204.240013 357.148999 
C 204.240013 355.88163 203.736482 354.665999 202.840317 353.769835 
C 201.944152 352.87367 200.728522 352.370139 199.461153 352.370139 
C 198.193785 352.370139 196.978154 352.87367 196.081989 353.769835 
C 195.185824 354.665999 194.682293 355.88163 194.682293 357.148999 
C 194.682293 358.416367 195.185824 359.631998 196.081989 360.528163 
C 196.978154 361.424328 198.193785 361.927858 199.461153 361.927858 
z
" clip-path="url(#pb4a4d785b7)" style="fill: #39558c; fill-opacity: 0.6; stroke: #39558c; stroke-opacity: 0.6"/>
    <path d="M 82.474356 169.629724 
C 83.71047 169.629724 84.896122 169.138611 85.770186 168.264546 
C 86.644251 167.390482 87.135364 166.204829 87.135364 164.968716 
C 87.135364 163.732602 86.644251 162.546949 85.770186 161.672885 
C 84.896122 160.79882 83.71047 160.307707 82.474356 160.307707 
C 81.238242 160.307707 80.052589 160.79882 79.178525 161.672885 
C 78.30446 162.546949 77.813347 163.732602 77.813347 164.968716 
C 77.813347 166.204829 78.30446 167.390482 79.178525 168.264546 
C 80.052589 169.138611 81.238242 169.629724 82.474356 169.629724 
z
" clip-path="url(#pb4a4d785b7)" style="fill: #33638d; fill-opacity: 0.6; stroke: #33638d; stroke-opacity: 0.6"/>
    <path d="M 419.671596 366.193493 
C 420.796757 366.193493 421.875986 365.746462 422.671596 364.950852 
C 423.467205 364.155243 423.914236 363.076014 423.914236 361.950852 
C 423.914236 360.825691 423.467205 359.746462 422.671596 358.950852 
C 421.875986 358.155243 420.796757 357.708212 419.671596 357.708212 
C 418.546434 357.708212 417.467205 358.155243 416.671596 358.950852 
C 415.875986 359.746462 415.428955 360.825691 415.428955 361.950852 
C 415.428955 363.076014 415.875986 364.155243 416.671596 364.950852 
C 417.467205 365.746462 418.546434 366.193493 419.671596 366.193493 
z
" clip-path="url(#pb4a4d785b7)" style="fill: #2d718e; fill-opacity: 0.6; stroke: #2d718e; stroke-opacity: 0.6"/>
    <path d="M 440.316325 269.31497 
C 441.400094 269.31497 442.439621 268.884384 443.205961 268.118044 
C 443.972302 267.351703 444.402888 266.312176 444.402888 265.228407 
C 444.402888 264.144638 443.972302 263.105111 443.205961 262.33877 
C 442.439621 261.57243 441.400094 261.141844 440.316325 261.141844 
C 439.232555 261.141844 438.193028 261.57243 437.426688 262.33877 
C 436.660347 263.105111 436.229761 264.144638 436.229761 265.228407 
C 436.229761 266.312176 436.660347 267.351703 437.426688 268.118044 
C 438.193028 268.884384 439.232555 269.31497 440.316325 269.31497 
z
" clip-path="url(#pb4a4d785b7)" style="fill: #287d8e; fill-opacity: 0.6; stroke: #287d8e; stroke-opacity: 0.6"/>
    <path d="M 261.39534 276.548538 
C 262.472192 276.548538 263.505084 276.1207 264.266533 275.359251 
C 265.027983 274.597802 265.45582 273.56491 265.45582 272.488058 
C 265.45582 271.411206 265.027983 270.378314 264.266533 269.616865 
C 263.505084 268.855415 262.472192 268.427578 261.39534 268.427578 
C 260.318488 268.427578 259.285596 268.855415 258.524147 269.616865 
C 257.762698 270.378314 257.33486 271.411206 257.33486 272.488058 
C 257.33486 273.56491 257.762698 274.597802 258.524147 275.359251 
C 259.285596 276.1207 260.318488 276.548538 261.39534 276.548538 
z
" clip-path="url(#pb4a4d785b7)" style="fill: #238a8d; fill-opacity: 0.6; stroke: #238a8d; stroke-opacity: 0.6"/>
    <path d="M 247.632187 228.995177 
C 248.685932 228.995177 249.696659 228.57652 250.441769 227.83141 
C 251.186879 227.0863 251.605536 226.075572 251.605536 225.021828 
C 251.605536 223.968084 251.186879 222.957356 250.441769 222.212246 
C 249.696659 221.467136 248.685932 221.048479 247.632187 221.048479 
C 246.578443 221.048479 245.567715 221.467136 244.822606 222.212246 
C 244.077496 222.957356 243.658839 223.968084 243.658839 225.021828 
C 243.658839 226.075572 244.077496 227.0863 244.822606 227.83141 
C 245.567715 228.57652 246.578443 228.995177 247.632187 228.995177 
z
" clip-path="url(#pb4a4d785b7)" style="fill: #1f968b; fill-opacity: 0.6; stroke: #1f968b; stroke-opacity: 0.6"/>
    <path d="M 123.763814 324.554812 
C 124.810862 324.554812 125.815167 324.138815 126.555542 323.39844 
C 127.295918 322.658065 127.711914 321.653759 127.711914 320.606711 
C 127.711914 319.559662 127.295918 318.555357 126.555542 317.814982 
C 125.815167 317.074607 124.810862 316.65861 123.763814 316.65861 
C 122.716765 316.65861 121.71246 317.074607 120.972085 317.814982 
C 120.23171 318.555357 119.815713 319.559662 119.815713 320.606711 
C 119.815713 321.653759 120.23171 322.658065 120.972085 323.39844 
C 121.71246 324.138815 122.716765 324.554812 123.763814 324.554812 
z
" clip-path="url(#pb4a4d785b7)" style="fill: #20a386; fill-opacity: 0.6; stroke: #20a386; stroke-opacity: 0.6"/>
    <path d="M 110.000661 63.604916 
C 111.037585 63.604916 112.032178 63.192942 112.765394 62.459726 
C 113.49861 61.72651 113.910584 60.731916 113.910584 59.694993 
C 113.910584 58.658069 113.49861 57.663475 112.765394 56.930259 
C 112.032178 56.197043 111.037585 55.785069 110.000661 55.785069 
C 108.963737 55.785069 107.969144 56.197043 107.235928 56.930259 
C 106.502712 57.663475 106.090738 58.658069 106.090738 59.694993 
C 106.090738 60.731916 106.502712 61.72651 107.235928 62.459726 
C 107.969144 63.192942 108.963737 63.604916 110.000661 63.604916 
z
" clip-path="url(#pb4a4d785b7)" style="fill: #29af7f; fill-opacity: 0.6; stroke: #29af7f; stroke-opacity: 0.6"/>
    <path d="M 96.237508 177.461319 
C 97.270184 177.461319 98.260703 177.051032 98.990915 176.32082 
C 99.721127 175.590608 100.131414 174.600089 100.131414 173.567413 
C 100.131414 172.534737 99.721127 171.544218 98.990915 170.814006 
C 98.260703 170.083794 97.270184 169.673508 96.237508 169.673508 
C 95.204832 169.673508 94.214313 170.083794 93.484101 170.814006 
C 92.753889 171.544218 92.343603 172.534737 92.343603 173.567413 
C 92.343603 174.600089 92.753889 175.590608 93.484101 176.32082 
C 94.214313 177.051032 95.204832 177.461319 96.237508 177.461319 
z
" clip-path="url(#pb4a4d785b7)" style="fill: #3dbc74; fill-opacity: 0.6; stroke: #3dbc74; stroke-opacity: 0.6"/>
    <path d="M 261.39534 242.004959 
C 262.407377 242.004959 263.378101 241.602872 264.093719 240.887253 
C 264.809338 240.171635 265.211424 239.200912 265.211424 238.188874 
C 265.211424 237.176837 264.809338 236.206114 264.093719 235.490495 
C 263.378101 234.774877 262.407377 234.37279 261.39534 234.37279 
C 260.383303 234.37279 259.412579 234.774877 258.696961 235.490495 
C 257.981342 236.206114 257.579256 237.176837 257.579256 238.188874 
C 257.579256 239.200912 257.981342 240.171635 258.696961 240.887253 
C 259.412579 241.602872 260.383303 242.004959 261.39534 242.004959 
z
" clip-path="url(#pb4a4d785b7)" style="fill: #56c667; fill-opacity: 0.6; stroke: #56c667; stroke-opacity: 0.6"/>
    <path d="M 110.000661 189.171138 
C 110.992517 189.171138 111.943883 188.777069 112.645231 188.075721 
C 113.346579 187.374373 113.740648 186.423007 113.740648 185.431151 
C 113.740648 184.439295 113.346579 183.48793 112.645231 182.786582 
C 111.943883 182.085233 110.992517 181.691165 110.000661 181.691165 
C 109.008805 181.691165 108.057439 182.085233 107.356091 182.786582 
C 106.654743 183.48793 106.260674 184.439295 106.260674 185.431151 
C 106.260674 186.423007 106.654743 187.374373 107.356091 188.075721 
C 108.057439 188.777069 109.008805 189.171138 110.000661 189.171138 
z
" clip-path="url(#pb4a4d785b7)" style="fill: #75d054; fill-opacity: 0.6; stroke: #75d054; stroke-opacity: 0.6"/>
    <path d="M 536.658393 356.423591 
C 537.618267 356.423591 538.538956 356.042229 539.21769 355.363495 
C 539.896423 354.684762 540.277785 353.764072 540.277785 352.804198 
C 540.277785 351.844324 539.896423 350.923635 539.21769 350.244902 
C 538.538956 349.566168 537.618267 349.184806 536.658393 349.184806 
C 535.698519 349.184806 534.77783 349.566168 534.099096 350.244902 
C 533.420363 350.923635 533.039001 351.844324 533.039001 352.804198 
C 533.039001 353.764072 533.420363 354.684762 534.099096 355.363495 
C 534.77783 356.042229 535.698519 356.423591 536.658393 356.423591 
z
" clip-path="url(#pb4a4d785b7)" style="fill: #95d840; fill-opacity: 0.6; stroke: #95d840; stroke-opacity: 0.6"/>
    <path d="M 165.053272 215.783556 
C 165.974351 215.783556 166.85783 215.417607 167.509132 214.766306 
C 168.160434 214.115004 168.526383 213.231525 168.526383 212.310445 
C 168.526383 211.389365 168.160434 210.505887 167.509132 209.854585 
C 166.85783 209.203283 165.974351 208.837334 165.053272 208.837334 
C 164.132192 208.837334 163.248713 209.203283 162.597411 209.854585 
C 161.946109 210.505887 161.580161 211.389365 161.580161 212.310445 
C 161.580161 213.231525 161.946109 214.115004 162.597411 214.766306 
C 163.248713 215.417607 164.132192 215.783556 165.053272 215.783556 
z
" clip-path="url(#pb4a4d785b7)" style="fill: #bade28; fill-opacity: 0.6; stroke: #bade28; stroke-opacity: 0.6"/>
    <path d="M 364.618985 218.813716 
C 365.433163 218.813716 366.214104 218.49024 366.789814 217.91453 
C 367.365525 217.338819 367.689001 216.557878 367.689001 215.7437 
C 367.689001 214.929522 367.365525 214.148582 366.789814 213.572871 
C 366.214104 212.99716 365.433163 212.673684 364.618985 212.673684 
C 363.804807 212.673684 363.023866 212.99716 362.448156 213.572871 
C 361.872445 214.148582 361.548969 214.929522 361.548969 215.7437 
C 361.548969 216.557878 361.872445 217.338819 362.448156 217.91453 
C 363.023866 218.49024 363.804807 218.813716 364.618985 218.813716 
z
" clip-path="url(#pb4a4d785b7)" style="fill: #dde318; fill-opacity: 0.6; stroke: #dde318; stroke-opacity: 0.6"/>
    <path d="M 433.434748 357.085814 
C 434.229252 357.085814 434.991321 356.770154 435.55312 356.208355 
C 436.114919 355.646556 436.430579 354.884487 436.430579 354.089983 
C 436.430579 353.29548 436.114919 352.53341 435.55312 351.971611 
C 434.991321 351.409812 434.229252 351.094153 433.434748 351.094153 
C 432.640245 351.094153 431.878175 351.409812 431.316376 351.971611 
C 430.754577 352.53341 430.438918 353.29548 430.438918 354.089983 
C 430.438918 354.884487 430.754577 355.646556 431.316376 356.208355 
C 431.878175 356.770154 432.640245 357.085814 433.434748 357.085814 
z
" clip-path="url(#pb4a4d785b7)" style="fill: #fde725; fill-opacity: 0.6; stroke: #fde725; stroke-opacity: 0.6"/>
   </g>
   <g id="line2d_13">
    <path d="M 53.227656 68.495207 
L 696.655043 68.495207 
" clip-path="url(#pb4a4d785b7)" style="fill: none; stroke-dasharray: 5.55,2.4; stroke-dashoffset: 0; stroke: #ff0000; stroke-opacity: 0.5; stroke-width: 1.5"/>
   </g>
   <g id="patch_3">
    <path d="M 53.227656 378.84375 
L 53.227656 7.2 
" style="fill: none; stroke: #cccccc; stroke-width: 1.25; stroke-linejoin: miter; stroke-linecap: square"/>
   </g>
   <g id="patch_4">
    <path d="M 696.655043 378.84375 
L 696.655043 7.2 
" style="fill: none; stroke: #cccccc; stroke-width: 1.25; stroke-linejoin: miter; stroke-linecap: square"/>
   </g>
   <g id="patch_5">
    <path d="M 53.227656 378.84375 
L 696.655043 378.84375 
" style="fill: none; stroke: #cccccc; stroke-width: 1.25; stroke-linejoin: miter; stroke-linecap: square"/>
   </g>
   <g id="patch_6">
    <path d="M 53.227656 7.2 
L 696.655043 7.2 
" style="fill: none; stroke: #cccccc; stroke-width: 1.25; stroke-linejoin: miter; stroke-linecap: square"/>
   </g>
   <g id="text_15">
    <!-- Athletics -->
    <g style="fill: #262626; opacity: 0.8" transform="translate(667.408343 168.126992) scale(0.08 -0.08)">
     <defs>
      <path id="ArialMT-41" d="M -9 0 
L 1750 4581 
L 2403 4581 
L 4278 0 
L 3588 0 
L 3053 1388 
L 1138 1388 
L 634 0 
L -9 0 
z
M 1313 1881 
L 2866 1881 
L 2388 3150 
Q 2169 3728 2063 4100 
Q 1975 3659 1816 3225 
L 1313 1881 
z
" transform="scale(0.015625)"/>
      <path id="ArialMT-63" d="M 2588 1216 
L 3141 1144 
Q 3050 572 2676 248 
Q 2303 -75 1759 -75 
Q 1078 -75 664 370 
Q 250 816 250 1647 
Q 250 2184 428 2587 
Q 606 2991 970 3192 
Q 1334 3394 1763 3394 
Q 2303 3394 2647 3120 
Q 2991 2847 3088 2344 
L 2541 2259 
Q 2463 2594 2264 2762 
Q 2066 2931 1784 2931 
Q 1359 2931 1093 2626 
Q 828 2322 828 1663 
Q 828 994 1084 691 
Q 1341 388 1753 388 
Q 2084 388 2306 591 
Q 2528 794 2588 1216 
z
" transform="scale(0.015625)"/>
     </defs>
     <use xlink:href="#ArialMT-41"/>
     <use xlink:href="#ArialMT-74" x="66.699219"/>
     <use xlink:href="#ArialMT-68" x="94.482422"/>
     <use xlink:href="#ArialMT-6c" x="150.097656"/>
     <use xlink:href="#ArialMT-65" x="172.314453"/>
     <use xlink:href="#ArialMT-74" x="227.929688"/>
     <use xlink:href="#ArialMT-69" x="255.712891"/>
     <use xlink:href="#ArialMT-63" x="277.929688"/>
     <use xlink:href="#ArialMT-73" x="327.929688"/>
    </g>
   </g>
   <g id="text_16">
    <!-- Swimming -->
    <g style="fill: #262626; opacity: 0.8" transform="translate(337.09268 24.092898) scale(0.08 -0.08)">
     <defs>
      <path id="ArialMT-77" d="M 1034 0 
L 19 3319 
L 600 3319 
L 1128 1403 
L 1325 691 
Q 1338 744 1497 1375 
L 2025 3319 
L 2603 3319 
L 3100 1394 
L 3266 759 
L 3456 1400 
L 4025 3319 
L 4572 3319 
L 3534 0 
L 2950 0 
L 2422 1988 
L 2294 2553 
L 1622 0 
L 1034 0 
z
" transform="scale(0.015625)"/>
     </defs>
     <use xlink:href="#ArialMT-53"/>
     <use xlink:href="#ArialMT-77" x="66.699219"/>
     <use xlink:href="#ArialMT-69" x="138.916016"/>
     <use xlink:href="#ArialMT-6d" x="161.132812"/>
     <use xlink:href="#ArialMT-6d" x="244.433594"/>
     <use xlink:href="#ArialMT-69" x="327.734375"/>
     <use xlink:href="#ArialMT-6e" x="349.951172"/>
     <use xlink:href="#ArialMT-67" x="405.566406"/>
    </g>
   </g>
   <g id="text_17">
    <!-- Rowing -->
    <g style="fill: #262626; opacity: 0.8" transform="translate(247.632187 298.897174) scale(0.08 -0.08)">
     <defs>
      <path id="ArialMT-52" d="M 503 0 
L 503 4581 
L 2534 4581 
Q 3147 4581 3465 4457 
Q 3784 4334 3975 4021 
Q 4166 3709 4166 3331 
Q 4166 2844 3850 2509 
Q 3534 2175 2875 2084 
Q 3116 1969 3241 1856 
Q 3506 1613 3744 1247 
L 4541 0 
L 3778 0 
L 3172 953 
Q 2906 1366 2734 1584 
Q 2563 1803 2427 1890 
Q 2291 1978 2150 2013 
Q 2047 2034 1813 2034 
L 1109 2034 
L 1109 0 
L 503 0 
z
M 1109 2559 
L 2413 2559 
Q 2828 2559 3062 2645 
Q 3297 2731 3419 2920 
Q 3541 3109 3541 3331 
Q 3541 3656 3305 3865 
Q 3069 4075 2559 4075 
L 1109 4075 
L 1109 2559 
z
" transform="scale(0.015625)"/>
     </defs>
     <use xlink:href="#ArialMT-52"/>
     <use xlink:href="#ArialMT-6f" x="72.216797"/>
     <use xlink:href="#ArialMT-77" x="127.832031"/>
     <use xlink:href="#ArialMT-69" x="200.048828"/>
     <use xlink:href="#ArialMT-6e" x="222.265625"/>
     <use xlink:href="#ArialMT-67" x="277.880859"/>
    </g>
   </g>
   <g id="text_18">
    <!-- Gymnastics -->
    <g style="fill: #262626; opacity: 0.8" transform="translate(206.342729 309.540287) scale(0.08 -0.08)">
     <defs>
      <path id="ArialMT-47" d="M 2638 1797 
L 2638 2334 
L 4578 2338 
L 4578 638 
Q 4131 281 3656 101 
Q 3181 -78 2681 -78 
Q 2006 -78 1454 211 
Q 903 500 622 1047 
Q 341 1594 341 2269 
Q 341 2938 620 3517 
Q 900 4097 1425 4378 
Q 1950 4659 2634 4659 
Q 3131 4659 3532 4498 
Q 3934 4338 4162 4050 
Q 4391 3763 4509 3300 
L 3963 3150 
Q 3859 3500 3706 3700 
Q 3553 3900 3268 4020 
Q 2984 4141 2638 4141 
Q 2222 4141 1919 4014 
Q 1616 3888 1430 3681 
Q 1244 3475 1141 3228 
Q 966 2803 966 2306 
Q 966 1694 1177 1281 
Q 1388 869 1791 669 
Q 2194 469 2647 469 
Q 3041 469 3416 620 
Q 3791 772 3984 944 
L 3984 1797 
L 2638 1797 
z
" transform="scale(0.015625)"/>
      <path id="ArialMT-79" d="M 397 -1278 
L 334 -750 
Q 519 -800 656 -800 
Q 844 -800 956 -737 
Q 1069 -675 1141 -563 
Q 1194 -478 1313 -144 
Q 1328 -97 1363 -6 
L 103 3319 
L 709 3319 
L 1400 1397 
Q 1534 1031 1641 628 
Q 1738 1016 1872 1384 
L 2581 3319 
L 3144 3319 
L 1881 -56 
Q 1678 -603 1566 -809 
Q 1416 -1088 1222 -1217 
Q 1028 -1347 759 -1347 
Q 597 -1347 397 -1278 
z
" transform="scale(0.015625)"/>
     </defs>
     <use xlink:href="#ArialMT-47"/>
     <use xlink:href="#ArialMT-79" x="77.783203"/>
     <use xlink:href="#ArialMT-6d" x="127.783203"/>
     <use xlink:href="#ArialMT-6e" x="211.083984"/>
     <use xlink:href="#ArialMT-61" x="266.699219"/>
     <use xlink:href="#ArialMT-73" x="322.314453"/>
     <use xlink:href="#ArialMT-74" x="372.314453"/>
     <use xlink:href="#ArialMT-69" x="400.097656"/>
     <use xlink:href="#ArialMT-63" x="422.314453"/>
     <use xlink:href="#ArialMT-73" x="472.314453"/>
    </g>
   </g>
   <g id="text_19">
    <!-- Fencing -->
    <g style="fill: #262626; opacity: 0.8" transform="translate(220.105882 58.774435) scale(0.08 -0.08)">
     <defs>
      <path id="ArialMT-46" d="M 525 0 
L 525 4581 
L 3616 4581 
L 3616 4041 
L 1131 4041 
L 1131 2622 
L 3281 2622 
L 3281 2081 
L 1131 2081 
L 1131 0 
L 525 0 
z
" transform="scale(0.015625)"/>
     </defs>
     <use xlink:href="#ArialMT-46"/>
     <use xlink:href="#ArialMT-65" x="61.083984"/>
     <use xlink:href="#ArialMT-6e" x="116.699219"/>
     <use xlink:href="#ArialMT-63" x="172.314453"/>
     <use xlink:href="#ArialMT-69" x="222.314453"/>
     <use xlink:href="#ArialMT-6e" x="244.53125"/>
     <use xlink:href="#ArialMT-67" x="300.146484"/>
    </g>
   </g>
   <g id="text_20">
    <!-- Football -->
    <g style="fill: #262626; opacity: 0.8" transform="translate(199.461153 357.148999) scale(0.08 -0.08)">
     <use xlink:href="#ArialMT-46"/>
     <use xlink:href="#ArialMT-6f" x="61.083984"/>
     <use xlink:href="#ArialMT-6f" x="116.699219"/>
     <use xlink:href="#ArialMT-74" x="172.314453"/>
     <use xlink:href="#ArialMT-62" x="200.097656"/>
     <use xlink:href="#ArialMT-61" x="255.712891"/>
     <use xlink:href="#ArialMT-6c" x="311.328125"/>
     <use xlink:href="#ArialMT-6c" x="333.544922"/>
    </g>
   </g>
   <g id="text_21">
    <!-- Hockey -->
    <g style="fill: #262626; opacity: 0.8" transform="translate(82.474356 164.968716) scale(0.08 -0.08)">
     <defs>
      <path id="ArialMT-48" d="M 513 0 
L 513 4581 
L 1119 4581 
L 1119 2700 
L 3500 2700 
L 3500 4581 
L 4106 4581 
L 4106 0 
L 3500 0 
L 3500 2159 
L 1119 2159 
L 1119 0 
L 513 0 
z
" transform="scale(0.015625)"/>
      <path id="ArialMT-6b" d="M 425 0 
L 425 4581 
L 988 4581 
L 988 1969 
L 2319 3319 
L 3047 3319 
L 1778 2088 
L 3175 0 
L 2481 0 
L 1384 1697 
L 988 1316 
L 988 0 
L 425 0 
z
" transform="scale(0.015625)"/>
     </defs>
     <use xlink:href="#ArialMT-48"/>
     <use xlink:href="#ArialMT-6f" x="72.216797"/>
     <use xlink:href="#ArialMT-63" x="127.832031"/>
     <use xlink:href="#ArialMT-6b" x="177.832031"/>
     <use xlink:href="#ArialMT-65" x="227.832031"/>
     <use xlink:href="#ArialMT-79" x="283.447266"/>
    </g>
   </g>
   <g id="text_22">
    <!-- Wrestling -->
    <g style="fill: #262626; opacity: 0.8" transform="translate(419.671596 361.950852) scale(0.08 -0.08)">
     <use xlink:href="#ArialMT-57"/>
     <use xlink:href="#ArialMT-72" x="92.634766"/>
     <use xlink:href="#ArialMT-65" x="125.935547"/>
     <use xlink:href="#ArialMT-73" x="181.550781"/>
     <use xlink:href="#ArialMT-74" x="231.550781"/>
     <use xlink:href="#ArialMT-6c" x="259.333984"/>
     <use xlink:href="#ArialMT-69" x="281.550781"/>
     <use xlink:href="#ArialMT-6e" x="303.767578"/>
     <use xlink:href="#ArialMT-67" x="359.382812"/>
    </g>
   </g>
   <g id="text_23">
    <!-- Shooting -->
    <g style="fill: #262626; opacity: 0.8" transform="translate(440.316325 265.228407) scale(0.08 -0.08)">
     <use xlink:href="#ArialMT-53"/>
     <use xlink:href="#ArialMT-68" x="66.699219"/>
     <use xlink:href="#ArialMT-6f" x="122.314453"/>
     <use xlink:href="#ArialMT-6f" x="177.929688"/>
     <use xlink:href="#ArialMT-74" x="233.544922"/>
     <use xlink:href="#ArialMT-69" x="261.328125"/>
     <use xlink:href="#ArialMT-6e" x="283.544922"/>
     <use xlink:href="#ArialMT-67" x="339.160156"/>
    </g>
   </g>
   <g id="text_24">
    <!-- Sailing -->
    <g style="fill: #262626; opacity: 0.8" transform="translate(261.39534 272.488058) scale(0.08 -0.08)">
     <use xlink:href="#ArialMT-53"/>
     <use xlink:href="#ArialMT-61" x="66.699219"/>
     <use xlink:href="#ArialMT-69" x="122.314453"/>
     <use xlink:href="#ArialMT-6c" x="144.53125"/>
     <use xlink:href="#ArialMT-69" x="166.748047"/>
     <use xlink:href="#ArialMT-6e" x="188.964844"/>
     <use xlink:href="#ArialMT-67" x="244.580078"/>
    </g>
   </g>
   <g id="text_25">
    <!-- Cycling -->
    <g style="fill: #262626; opacity: 0.8" transform="translate(247.632187 225.021828) scale(0.08 -0.08)">
     <use xlink:href="#ArialMT-43"/>
     <use xlink:href="#ArialMT-79" x="72.216797"/>
     <use xlink:href="#ArialMT-63" x="122.216797"/>
     <use xlink:href="#ArialMT-6c" x="172.216797"/>
     <use xlink:href="#ArialMT-69" x="194.433594"/>
     <use xlink:href="#ArialMT-6e" x="216.650391"/>
     <use xlink:href="#ArialMT-67" x="272.265625"/>
    </g>
   </g>
   <g id="text_26">
    <!-- Handball -->
    <g style="fill: #262626; opacity: 0.8" transform="translate(123.763814 320.606711) scale(0.08 -0.08)">
     <use xlink:href="#ArialMT-48"/>
     <use xlink:href="#ArialMT-61" x="72.216797"/>
     <use xlink:href="#ArialMT-6e" x="127.832031"/>
     <use xlink:href="#ArialMT-64" x="183.447266"/>
     <use xlink:href="#ArialMT-62" x="239.0625"/>
     <use xlink:href="#ArialMT-61" x="294.677734"/>
     <use xlink:href="#ArialMT-6c" x="350.292969"/>
     <use xlink:href="#ArialMT-6c" x="372.509766"/>
    </g>
   </g>
   <g id="text_27">
    <!-- Basketball -->
    <g style="fill: #262626; opacity: 0.8" transform="translate(110.000661 59.694993) scale(0.08 -0.08)">
     <defs>
      <path id="ArialMT-42" d="M 469 0 
L 469 4581 
L 2188 4581 
Q 2713 4581 3030 4442 
Q 3347 4303 3526 4014 
Q 3706 3725 3706 3409 
Q 3706 3116 3547 2856 
Q 3388 2597 3066 2438 
Q 3481 2316 3704 2022 
Q 3928 1728 3928 1328 
Q 3928 1006 3792 729 
Q 3656 453 3456 303 
Q 3256 153 2954 76 
Q 2653 0 2216 0 
L 469 0 
z
M 1075 2656 
L 2066 2656 
Q 2469 2656 2644 2709 
Q 2875 2778 2992 2937 
Q 3109 3097 3109 3338 
Q 3109 3566 3000 3739 
Q 2891 3913 2687 3977 
Q 2484 4041 1991 4041 
L 1075 4041 
L 1075 2656 
z
M 1075 541 
L 2216 541 
Q 2509 541 2628 563 
Q 2838 600 2978 687 
Q 3119 775 3209 942 
Q 3300 1109 3300 1328 
Q 3300 1584 3169 1773 
Q 3038 1963 2805 2039 
Q 2572 2116 2134 2116 
L 1075 2116 
L 1075 541 
z
" transform="scale(0.015625)"/>
     </defs>
     <use xlink:href="#ArialMT-42"/>
     <use xlink:href="#ArialMT-61" x="66.699219"/>
     <use xlink:href="#ArialMT-73" x="122.314453"/>
     <use xlink:href="#ArialMT-6b" x="172.314453"/>
     <use xlink:href="#ArialMT-65" x="222.314453"/>
     <use xlink:href="#ArialMT-74" x="277.929688"/>
     <use xlink:href="#ArialMT-62" x="305.712891"/>
     <use xlink:href="#ArialMT-61" x="361.328125"/>
     <use xlink:href="#ArialMT-6c" x="416.943359"/>
     <use xlink:href="#ArialMT-6c" x="439.160156"/>
    </g>
   </g>
   <g id="text_28">
    <!-- Water Polo -->
    <g style="fill: #262626; opacity: 0.8" transform="translate(96.237508 173.567413) scale(0.08 -0.08)">
     <defs>
      <path id="ArialMT-50" d="M 494 0 
L 494 4581 
L 2222 4581 
Q 2678 4581 2919 4538 
Q 3256 4481 3484 4323 
Q 3713 4166 3852 3881 
Q 3991 3597 3991 3256 
Q 3991 2672 3619 2267 
Q 3247 1863 2275 1863 
L 1100 1863 
L 1100 0 
L 494 0 
z
M 1100 2403 
L 2284 2403 
Q 2872 2403 3119 2622 
Q 3366 2841 3366 3238 
Q 3366 3525 3220 3729 
Q 3075 3934 2838 4000 
Q 2684 4041 2272 4041 
L 1100 4041 
L 1100 2403 
z
" transform="scale(0.015625)"/>
     </defs>
     <use xlink:href="#ArialMT-57"/>
     <use xlink:href="#ArialMT-61" x="90.634766"/>
     <use xlink:href="#ArialMT-74" x="146.25"/>
     <use xlink:href="#ArialMT-65" x="174.033203"/>
     <use xlink:href="#ArialMT-72" x="229.648438"/>
     <use xlink:href="#ArialMT-20" x="262.949219"/>
     <use xlink:href="#ArialMT-50" x="290.732422"/>
     <use xlink:href="#ArialMT-6f" x="357.431641"/>
     <use xlink:href="#ArialMT-6c" x="413.046875"/>
     <use xlink:href="#ArialMT-6f" x="435.263672"/>
    </g>
   </g>
   <g id="text_29">
    <!-- Canoeing -->
    <g style="fill: #262626; opacity: 0.8" transform="translate(261.39534 238.188874) scale(0.08 -0.08)">
     <use xlink:href="#ArialMT-43"/>
     <use xlink:href="#ArialMT-61" x="72.216797"/>
     <use xlink:href="#ArialMT-6e" x="127.832031"/>
     <use xlink:href="#ArialMT-6f" x="183.447266"/>
     <use xlink:href="#ArialMT-65" x="239.0625"/>
     <use xlink:href="#ArialMT-69" x="294.677734"/>
     <use xlink:href="#ArialMT-6e" x="316.894531"/>
     <use xlink:href="#ArialMT-67" x="372.509766"/>
    </g>
   </g>
   <g id="text_30">
    <!-- Volleyball -->
    <g style="fill: #262626; opacity: 0.8" transform="translate(110.000661 185.431151) scale(0.08 -0.08)">
     <defs>
      <path id="ArialMT-56" d="M 1803 0 
L 28 4581 
L 684 4581 
L 1875 1253 
Q 2019 853 2116 503 
Q 2222 878 2363 1253 
L 3600 4581 
L 4219 4581 
L 2425 0 
L 1803 0 
z
" transform="scale(0.015625)"/>
     </defs>
     <use xlink:href="#ArialMT-56"/>
     <use xlink:href="#ArialMT-6f" x="61.199219"/>
     <use xlink:href="#ArialMT-6c" x="116.814453"/>
     <use xlink:href="#ArialMT-6c" x="139.03125"/>
     <use xlink:href="#ArialMT-65" x="161.248047"/>
     <use xlink:href="#ArialMT-79" x="216.863281"/>
     <use xlink:href="#ArialMT-62" x="266.863281"/>
     <use xlink:href="#ArialMT-61" x="322.478516"/>
     <use xlink:href="#ArialMT-6c" x="378.09375"/>
     <use xlink:href="#ArialMT-6c" x="400.310547"/>
    </g>
   </g>
   <g id="text_31">
    <!-- Boxing -->
    <g style="fill: #262626; opacity: 0.8" transform="translate(536.658393 352.804198) scale(0.08 -0.08)">
     <defs>
      <path id="ArialMT-78" d="M 47 0 
L 1259 1725 
L 138 3319 
L 841 3319 
L 1350 2541 
Q 1494 2319 1581 2169 
Q 1719 2375 1834 2534 
L 2394 3319 
L 3066 3319 
L 1919 1756 
L 3153 0 
L 2463 0 
L 1781 1031 
L 1600 1309 
L 728 0 
L 47 0 
z
" transform="scale(0.015625)"/>
     </defs>
     <use xlink:href="#ArialMT-42"/>
     <use xlink:href="#ArialMT-6f" x="66.699219"/>
     <use xlink:href="#ArialMT-78" x="122.314453"/>
     <use xlink:href="#ArialMT-69" x="172.314453"/>
     <use xlink:href="#ArialMT-6e" x="194.53125"/>
     <use xlink:href="#ArialMT-67" x="250.146484"/>
    </g>
   </g>
   <g id="text_32">
    <!-- Equestrianism -->
    <g style="fill: #262626; opacity: 0.8" transform="translate(165.053272 212.310445) scale(0.08 -0.08)">
     <defs>
      <path id="ArialMT-45" d="M 506 0 
L 506 4581 
L 3819 4581 
L 3819 4041 
L 1113 4041 
L 1113 2638 
L 3647 2638 
L 3647 2100 
L 1113 2100 
L 1113 541 
L 3925 541 
L 3925 0 
L 506 0 
z
" transform="scale(0.015625)"/>
      <path id="ArialMT-71" d="M 2538 -1272 
L 2538 353 
Q 2406 169 2170 47 
Q 1934 -75 1669 -75 
Q 1078 -75 651 397 
Q 225 869 225 1691 
Q 225 2191 398 2587 
Q 572 2984 901 3189 
Q 1231 3394 1625 3394 
Q 2241 3394 2594 2875 
L 2594 3319 
L 3100 3319 
L 3100 -1272 
L 2538 -1272 
z
M 803 1669 
Q 803 1028 1072 708 
Q 1341 388 1716 388 
Q 2075 388 2334 692 
Q 2594 997 2594 1619 
Q 2594 2281 2320 2615 
Q 2047 2950 1678 2950 
Q 1313 2950 1058 2639 
Q 803 2328 803 1669 
z
" transform="scale(0.015625)"/>
     </defs>
     <use xlink:href="#ArialMT-45"/>
     <use xlink:href="#ArialMT-71" x="66.699219"/>
     <use xlink:href="#ArialMT-75" x="122.314453"/>
     <use xlink:href="#ArialMT-65" x="177.929688"/>
     <use xlink:href="#ArialMT-73" x="233.544922"/>
     <use xlink:href="#ArialMT-74" x="283.544922"/>
     <use xlink:href="#ArialMT-72" x="311.328125"/>
     <use xlink:href="#ArialMT-69" x="344.628906"/>
     <use xlink:href="#ArialMT-61" x="366.845703"/>
     <use xlink:href="#ArialMT-6e" x="422.460938"/>
     <use xlink:href="#ArialMT-69" x="478.076172"/>
     <use xlink:href="#ArialMT-73" x="500.292969"/>
     <use xlink:href="#ArialMT-6d" x="550.292969"/>
    </g>
   </g>
   <g id="text_33">
    <!-- Judo -->
    <g style="fill: #262626; opacity: 0.8" transform="translate(364.618985 215.7437) scale(0.08 -0.08)">
     <defs>
      <path id="ArialMT-4a" d="M 184 1300 
L 731 1375 
Q 753 850 928 656 
Q 1103 463 1413 463 
Q 1641 463 1806 567 
Q 1972 672 2034 851 
Q 2097 1031 2097 1425 
L 2097 4581 
L 2703 4581 
L 2703 1459 
Q 2703 884 2564 568 
Q 2425 253 2123 87 
Q 1822 -78 1416 -78 
Q 813 -78 492 269 
Q 172 616 184 1300 
z
" transform="scale(0.015625)"/>
     </defs>
     <use xlink:href="#ArialMT-4a"/>
     <use xlink:href="#ArialMT-75" x="50"/>
     <use xlink:href="#ArialMT-64" x="105.615234"/>
     <use xlink:href="#ArialMT-6f" x="161.230469"/>
    </g>
   </g>
   <g id="text_34">
    <!-- Weightlifting -->
    <g style="fill: #262626; opacity: 0.8" transform="translate(433.434748 354.089983) scale(0.08 -0.08)">
     <use xlink:href="#ArialMT-57"/>
     <use xlink:href="#ArialMT-65" x="92.634766"/>
     <use xlink:href="#ArialMT-69" x="148.25"/>
     <use xlink:href="#ArialMT-67" x="170.466797"/>
     <use xlink:href="#ArialMT-68" x="226.082031"/>
     <use xlink:href="#ArialMT-74" x="281.697266"/>
     <use xlink:href="#ArialMT-6c" x="309.480469"/>
     <use xlink:href="#ArialMT-69" x="331.697266"/>
     <use xlink:href="#ArialMT-66" x="353.914062"/>
     <use xlink:href="#ArialMT-74" x="381.697266"/>
     <use xlink:href="#ArialMT-69" x="409.480469"/>
     <use xlink:href="#ArialMT-6e" x="431.697266"/>
     <use xlink:href="#ArialMT-67" x="487.3125"/>
    </g>
   </g>
  </g>
 </g>
 <defs>
  <clipPath id="pb4a4d785b7">
   <rect x="53.227656" y="7.2" width="643.427386" height="371.64375"/>
  </clipPath>
 </defs>
</svg>
