<?xml version="1.0" encoding="utf-8" standalone="no"?>
<!DOCTYPE svg PUBLIC "-//W3C//DTD SVG 1.1//EN"
  "http://www.w3.org/Graphics/SVG/1.1/DTD/svg11.dtd">
<svg xmlns:xlink="http://www.w3.org/1999/xlink" width="708.519531pt" height="420.184219pt" viewBox="0 0 708.519531 420.184219" xmlns="http://www.w3.org/2000/svg" version="1.1">
 <metadata>
  <rdf:RDF xmlns:dc="http://purl.org/dc/elements/1.1/" xmlns:cc="http://creativecommons.org/ns#" xmlns:rdf="http://www.w3.org/1999/02/22-rdf-syntax-ns#">
   <cc:Work>
    <dc:type rdf:resource="http://purl.org/dc/dcmitype/StillImage"/>
    <dc:date>2026-01-26T20:02:06.121161</dc:date>
    <dc:format>image/svg+xml</dc:format>
    <dc:creator>
     <cc:Agent>
      <dc:title>Matplotlib v3.9.4, https://matplotlib.org/</dc:title>
     </cc:Agent>
    </dc:creator>
   </cc:Work>
  </rdf:RDF>
 </metadata>
 <defs>
  <style type="text/css">*{stroke-linejoin: round; stroke-linecap: butt}</style>
 </defs>
 <g id="figure_1">
  <g id="patch_1">
   <path d="M 0 420.184219 
L 708.519531 420.184219 
L 708.519531 0 
L 0 0 
z
" style="fill: #ffffff"/>
  </g>
  <g id="axes_1">
   <g id="patch_2">
    <path d="M 53.375781 378.163125 
L 701.319531 378.163125 
L 701.319531 21.935625 
L 53.375781 21.935625 
z
" style="fill: #ffffff"/>
   </g>
   <g id="patch_3">
    <path d="M 82.82777 323.301308 
L 253.69988 323.301308 
L 253.69988 21.935625 
L 82.82777 21.935625 
z
" clip-path="url(#pb9cce4b6af)" style="fill: #27ae60; opacity: 0.08; stroke: #ffffff; stroke-linejoin: miter"/>
   </g>
   <g id="patch_4">
    <path d="M 253.69988 378.163125 
L 671.867543 378.163125 
L 671.867543 323.301308 
L 253.69988 323.301308 
z
" clip-path="url(#pb9cce4b6af)" style="fill: #c0392b; opacity: 0.08; stroke: #ffffff; stroke-linejoin: miter"/>
   </g>
   <g id="patch_5">
    <path d="M 253.69988 323.301308 
L 671.867543 323.301308 
L 671.867543 21.935625 
L 253.69988 21.935625 
z
" clip-path="url(#pb9cce4b6af)" style="fill: #e67e22; opacity: 0.05; stroke: #ffffff; stroke-linejoin: miter"/>
   </g>
   <g id="patch_6">
    <path d="M 82.82777 378.163125 
L 253.69988 378.163125 
L 253.69988 323.301308 
L 82.82777 323.301308 
z
" clip-path="url(#pb9cce4b6af)" style="fill: #7f8c8d; opacity: 0.05; stroke: #ffffff; stroke-linejoin: miter"/>
   </g>
   <g id="matplotlib.axis_1">
    <g id="xtick_1">
     <g id="line2d_1">
      <path d="M 64.385037 378.163125 
L 64.385037 21.935625 
" clip-path="url(#pb9cce4b6af)" style="fill: none; stroke: #cccccc; stroke-opacity: 0.3; stroke-linecap: round"/>
     </g>
     <g id="text_1">
      <!-- 0.2 -->
      <g style="fill: #262626" transform="translate(56.740037 395.536719) scale(0.11 -0.11)">
       <defs>
        <path id="ArialMT-30" d="M 266 2259 
Q 266 3072 433 3567 
Q 600 4063 929 4331 
Q 1259 4600 1759 4600 
Q 2128 4600 2406 4451 
Q 2684 4303 2865 4023 
Q 3047 3744 3150 3342 
Q 3253 2941 3253 2259 
Q 3253 1453 3087 958 
Q 2922 463 2592 192 
Q 2263 -78 1759 -78 
Q 1097 -78 719 397 
Q 266 969 266 2259 
z
M 844 2259 
Q 844 1131 1108 757 
Q 1372 384 1759 384 
Q 2147 384 2411 759 
Q 2675 1134 2675 2259 
Q 2675 3391 2411 3762 
Q 2147 4134 1753 4134 
Q 1366 4134 1134 3806 
Q 844 3388 844 2259 
z
" transform="scale(0.015625)"/>
        <path id="ArialMT-2e" d="M 581 0 
L 581 641 
L 1222 641 
L 1222 0 
L 581 0 
z
" transform="scale(0.015625)"/>
        <path id="ArialMT-32" d="M 3222 541 
L 3222 0 
L 194 0 
Q 188 203 259 391 
Q 375 700 629 1000 
Q 884 1300 1366 1694 
Q 2113 2306 2375 2664 
Q 2638 3022 2638 3341 
Q 2638 3675 2398 3904 
Q 2159 4134 1775 4134 
Q 1369 4134 1125 3890 
Q 881 3647 878 3216 
L 300 3275 
Q 359 3922 746 4261 
Q 1134 4600 1788 4600 
Q 2447 4600 2831 4234 
Q 3216 3869 3216 3328 
Q 3216 3053 3103 2787 
Q 2991 2522 2730 2228 
Q 2469 1934 1863 1422 
Q 1356 997 1212 845 
Q 1069 694 975 541 
L 3222 541 
z
" transform="scale(0.015625)"/>
       </defs>
       <use xlink:href="#ArialMT-30"/>
       <use xlink:href="#ArialMT-2e" x="55.615234"/>
       <use xlink:href="#ArialMT-32" x="83.398438"/>
      </g>
     </g>
    </g>
    <g id="xtick_2">
     <g id="line2d_2">
      <path d="M 174.745827 378.163125 
L 174.745827 21.935625 
" clip-path="url(#pb9cce4b6af)" style="fill: none; stroke: #cccccc; stroke-opacity: 0.3; stroke-linecap: round"/>
     </g>
     <g id="text_2">
      <!-- 0.3 -->
      <g style="fill: #262626" transform="translate(167.100827 395.536719) scale(0.11 -0.11)">
       <defs>
        <path id="ArialMT-33" d="M 269 1209 
L 831 1284 
Q 928 806 1161 595 
Q 1394 384 1728 384 
Q 2125 384 2398 659 
Q 2672 934 2672 1341 
Q 2672 1728 2419 1979 
Q 2166 2231 1775 2231 
Q 1616 2231 1378 2169 
L 1441 2663 
Q 1497 2656 1531 2656 
Q 1891 2656 2178 2843 
Q 2466 3031 2466 3422 
Q 2466 3731 2256 3934 
Q 2047 4138 1716 4138 
Q 1388 4138 1169 3931 
Q 950 3725 888 3313 
L 325 3413 
Q 428 3978 793 4289 
Q 1159 4600 1703 4600 
Q 2078 4600 2393 4439 
Q 2709 4278 2876 4000 
Q 3044 3722 3044 3409 
Q 3044 3113 2884 2869 
Q 2725 2625 2413 2481 
Q 2819 2388 3044 2092 
Q 3269 1797 3269 1353 
Q 3269 753 2831 336 
Q 2394 -81 1725 -81 
Q 1122 -81 723 278 
Q 325 638 269 1209 
z
" transform="scale(0.015625)"/>
       </defs>
       <use xlink:href="#ArialMT-30"/>
       <use xlink:href="#ArialMT-2e" x="55.615234"/>
       <use xlink:href="#ArialMT-33" x="83.398438"/>
      </g>
     </g>
    </g>
    <g id="xtick_3">
     <g id="line2d_3">
      <path d="M 285.106618 378.163125 
L 285.106618 21.935625 
" clip-path="url(#pb9cce4b6af)" style="fill: none; stroke: #cccccc; stroke-opacity: 0.3; stroke-linecap: round"/>
     </g>
     <g id="text_3">
      <!-- 0.4 -->
      <g style="fill: #262626" transform="translate(277.461618 395.536719) scale(0.11 -0.11)">
       <defs>
        <path id="ArialMT-34" d="M 2069 0 
L 2069 1097 
L 81 1097 
L 81 1613 
L 2172 4581 
L 2631 4581 
L 2631 1613 
L 3250 1613 
L 3250 1097 
L 2631 1097 
L 2631 0 
L 2069 0 
z
M 2069 1613 
L 2069 3678 
L 634 1613 
L 2069 1613 
z
" transform="scale(0.015625)"/>
       </defs>
       <use xlink:href="#ArialMT-30"/>
       <use xlink:href="#ArialMT-2e" x="55.615234"/>
       <use xlink:href="#ArialMT-34" x="83.398438"/>
      </g>
     </g>
    </g>
    <g id="xtick_4">
     <g id="line2d_4">
      <path d="M 395.467409 378.163125 
L 395.467409 21.935625 
" clip-path="url(#pb9cce4b6af)" style="fill: none; stroke: #cccccc; stroke-opacity: 0.3; stroke-linecap: round"/>
     </g>
     <g id="text_4">
      <!-- 0.5 -->
      <g style="fill: #262626" transform="translate(387.822409 395.536719) scale(0.11 -0.11)">
       <defs>
        <path id="ArialMT-35" d="M 266 1200 
L 856 1250 
Q 922 819 1161 601 
Q 1400 384 1738 384 
Q 2144 384 2425 690 
Q 2706 997 2706 1503 
Q 2706 1984 2436 2262 
Q 2166 2541 1728 2541 
Q 1456 2541 1237 2417 
Q 1019 2294 894 2097 
L 366 2166 
L 809 4519 
L 3088 4519 
L 3088 3981 
L 1259 3981 
L 1013 2750 
Q 1425 3038 1878 3038 
Q 2478 3038 2890 2622 
Q 3303 2206 3303 1553 
Q 3303 931 2941 478 
Q 2500 -78 1738 -78 
Q 1113 -78 717 272 
Q 322 622 266 1200 
z
" transform="scale(0.015625)"/>
       </defs>
       <use xlink:href="#ArialMT-30"/>
       <use xlink:href="#ArialMT-2e" x="55.615234"/>
       <use xlink:href="#ArialMT-35" x="83.398438"/>
      </g>
     </g>
    </g>
    <g id="xtick_5">
     <g id="line2d_5">
      <path d="M 505.8282 378.163125 
L 505.8282 21.935625 
" clip-path="url(#pb9cce4b6af)" style="fill: none; stroke: #cccccc; stroke-opacity: 0.3; stroke-linecap: round"/>
     </g>
     <g id="text_5">
      <!-- 0.6 -->
      <g style="fill: #262626" transform="translate(498.1832 395.536719) scale(0.11 -0.11)">
       <defs>
        <path id="ArialMT-36" d="M 3184 3459 
L 2625 3416 
Q 2550 3747 2413 3897 
Q 2184 4138 1850 4138 
Q 1581 4138 1378 3988 
Q 1113 3794 959 3422 
Q 806 3050 800 2363 
Q 1003 2672 1297 2822 
Q 1591 2972 1913 2972 
Q 2475 2972 2870 2558 
Q 3266 2144 3266 1488 
Q 3266 1056 3080 686 
Q 2894 316 2569 119 
Q 2244 -78 1831 -78 
Q 1128 -78 684 439 
Q 241 956 241 2144 
Q 241 3472 731 4075 
Q 1159 4600 1884 4600 
Q 2425 4600 2770 4297 
Q 3116 3994 3184 3459 
z
M 888 1484 
Q 888 1194 1011 928 
Q 1134 663 1356 523 
Q 1578 384 1822 384 
Q 2178 384 2434 671 
Q 2691 959 2691 1453 
Q 2691 1928 2437 2201 
Q 2184 2475 1800 2475 
Q 1419 2475 1153 2201 
Q 888 1928 888 1484 
z
" transform="scale(0.015625)"/>
       </defs>
       <use xlink:href="#ArialMT-30"/>
       <use xlink:href="#ArialMT-2e" x="55.615234"/>
       <use xlink:href="#ArialMT-36" x="83.398438"/>
      </g>
     </g>
    </g>
    <g id="xtick_6">
     <g id="line2d_6">
      <path d="M 616.188991 378.163125 
L 616.188991 21.935625 
" clip-path="url(#pb9cce4b6af)" style="fill: none; stroke: #cccccc; stroke-opacity: 0.3; stroke-linecap: round"/>
     </g>
     <g id="text_6">
      <!-- 0.7 -->
      <g style="fill: #262626" transform="translate(608.543991 395.536719) scale(0.11 -0.11)">
       <defs>
        <path id="ArialMT-37" d="M 303 3981 
L 303 4522 
L 3269 4522 
L 3269 4084 
Q 2831 3619 2401 2847 
Q 1972 2075 1738 1259 
Q 1569 684 1522 0 
L 944 0 
Q 953 541 1156 1306 
Q 1359 2072 1739 2783 
Q 2119 3494 2547 3981 
L 303 3981 
z
" transform="scale(0.015625)"/>
       </defs>
       <use xlink:href="#ArialMT-30"/>
       <use xlink:href="#ArialMT-2e" x="55.615234"/>
       <use xlink:href="#ArialMT-37" x="83.398438"/>
      </g>
     </g>
    </g>
    <g id="text_7">
     <!-- Top 3 Countries Monopoly (Higher = More Concentrated) -->
     <g style="fill: #262626" transform="translate(226.118594 410.458594) scale(0.12 -0.12)">
      <defs>
       <path id="ArialMT-54" d="M 1659 0 
L 1659 4041 
L 150 4041 
L 150 4581 
L 3781 4581 
L 3781 4041 
L 2266 4041 
L 2266 0 
L 1659 0 
z
" transform="scale(0.015625)"/>
       <path id="ArialMT-6f" d="M 213 1659 
Q 213 2581 725 3025 
Q 1153 3394 1769 3394 
Q 2453 3394 2887 2945 
Q 3322 2497 3322 1706 
Q 3322 1066 3130 698 
Q 2938 331 2570 128 
Q 2203 -75 1769 -75 
Q 1072 -75 642 372 
Q 213 819 213 1659 
z
M 791 1659 
Q 791 1022 1069 705 
Q 1347 388 1769 388 
Q 2188 388 2466 706 
Q 2744 1025 2744 1678 
Q 2744 2294 2464 2611 
Q 2184 2928 1769 2928 
Q 1347 2928 1069 2612 
Q 791 2297 791 1659 
z
" transform="scale(0.015625)"/>
       <path id="ArialMT-70" d="M 422 -1272 
L 422 3319 
L 934 3319 
L 934 2888 
Q 1116 3141 1344 3267 
Q 1572 3394 1897 3394 
Q 2322 3394 2647 3175 
Q 2972 2956 3137 2557 
Q 3303 2159 3303 1684 
Q 3303 1175 3120 767 
Q 2938 359 2589 142 
Q 2241 -75 1856 -75 
Q 1575 -75 1351 44 
Q 1128 163 984 344 
L 984 -1272 
L 422 -1272 
z
M 931 1641 
Q 931 1000 1190 694 
Q 1450 388 1819 388 
Q 2194 388 2461 705 
Q 2728 1022 2728 1688 
Q 2728 2322 2467 2637 
Q 2206 2953 1844 2953 
Q 1484 2953 1207 2617 
Q 931 2281 931 1641 
z
" transform="scale(0.015625)"/>
       <path id="ArialMT-20" transform="scale(0.015625)"/>
       <path id="ArialMT-43" d="M 3763 1606 
L 4369 1453 
Q 4178 706 3683 314 
Q 3188 -78 2472 -78 
Q 1731 -78 1267 223 
Q 803 525 561 1097 
Q 319 1669 319 2325 
Q 319 3041 592 3573 
Q 866 4106 1370 4382 
Q 1875 4659 2481 4659 
Q 3169 4659 3637 4309 
Q 4106 3959 4291 3325 
L 3694 3184 
Q 3534 3684 3231 3912 
Q 2928 4141 2469 4141 
Q 1941 4141 1586 3887 
Q 1231 3634 1087 3207 
Q 944 2781 944 2328 
Q 944 1744 1114 1308 
Q 1284 872 1643 656 
Q 2003 441 2422 441 
Q 2931 441 3284 734 
Q 3638 1028 3763 1606 
z
" transform="scale(0.015625)"/>
       <path id="ArialMT-75" d="M 2597 0 
L 2597 488 
Q 2209 -75 1544 -75 
Q 1250 -75 995 37 
Q 741 150 617 320 
Q 494 491 444 738 
Q 409 903 409 1263 
L 409 3319 
L 972 3319 
L 972 1478 
Q 972 1038 1006 884 
Q 1059 663 1231 536 
Q 1403 409 1656 409 
Q 1909 409 2131 539 
Q 2353 669 2445 892 
Q 2538 1116 2538 1541 
L 2538 3319 
L 3100 3319 
L 3100 0 
L 2597 0 
z
" transform="scale(0.015625)"/>
       <path id="ArialMT-6e" d="M 422 0 
L 422 3319 
L 928 3319 
L 928 2847 
Q 1294 3394 1984 3394 
Q 2284 3394 2536 3286 
Q 2788 3178 2913 3003 
Q 3038 2828 3088 2588 
Q 3119 2431 3119 2041 
L 3119 0 
L 2556 0 
L 2556 2019 
Q 2556 2363 2490 2533 
Q 2425 2703 2258 2804 
Q 2091 2906 1866 2906 
Q 1506 2906 1245 2678 
Q 984 2450 984 1813 
L 984 0 
L 422 0 
z
" transform="scale(0.015625)"/>
       <path id="ArialMT-74" d="M 1650 503 
L 1731 6 
Q 1494 -44 1306 -44 
Q 1000 -44 831 53 
Q 663 150 594 308 
Q 525 466 525 972 
L 525 2881 
L 113 2881 
L 113 3319 
L 525 3319 
L 525 4141 
L 1084 4478 
L 1084 3319 
L 1650 3319 
L 1650 2881 
L 1084 2881 
L 1084 941 
Q 1084 700 1114 631 
Q 1144 563 1211 522 
Q 1278 481 1403 481 
Q 1497 481 1650 503 
z
" transform="scale(0.015625)"/>
       <path id="ArialMT-72" d="M 416 0 
L 416 3319 
L 922 3319 
L 922 2816 
Q 1116 3169 1280 3281 
Q 1444 3394 1641 3394 
Q 1925 3394 2219 3213 
L 2025 2691 
Q 1819 2813 1613 2813 
Q 1428 2813 1281 2702 
Q 1134 2591 1072 2394 
Q 978 2094 978 1738 
L 978 0 
L 416 0 
z
" transform="scale(0.015625)"/>
       <path id="ArialMT-69" d="M 425 3934 
L 425 4581 
L 988 4581 
L 988 3934 
L 425 3934 
z
M 425 0 
L 425 3319 
L 988 3319 
L 988 0 
L 425 0 
z
" transform="scale(0.015625)"/>
       <path id="ArialMT-65" d="M 2694 1069 
L 3275 997 
Q 3138 488 2766 206 
Q 2394 -75 1816 -75 
Q 1088 -75 661 373 
Q 234 822 234 1631 
Q 234 2469 665 2931 
Q 1097 3394 1784 3394 
Q 2450 3394 2872 2941 
Q 3294 2488 3294 1666 
Q 3294 1616 3291 1516 
L 816 1516 
Q 847 969 1125 678 
Q 1403 388 1819 388 
Q 2128 388 2347 550 
Q 2566 713 2694 1069 
z
M 847 1978 
L 2700 1978 
Q 2663 2397 2488 2606 
Q 2219 2931 1791 2931 
Q 1403 2931 1139 2672 
Q 875 2413 847 1978 
z
" transform="scale(0.015625)"/>
       <path id="ArialMT-73" d="M 197 991 
L 753 1078 
Q 800 744 1014 566 
Q 1228 388 1613 388 
Q 2000 388 2187 545 
Q 2375 703 2375 916 
Q 2375 1106 2209 1216 
Q 2094 1291 1634 1406 
Q 1016 1563 777 1677 
Q 538 1791 414 1992 
Q 291 2194 291 2438 
Q 291 2659 392 2848 
Q 494 3038 669 3163 
Q 800 3259 1026 3326 
Q 1253 3394 1513 3394 
Q 1903 3394 2198 3281 
Q 2494 3169 2634 2976 
Q 2775 2784 2828 2463 
L 2278 2388 
Q 2241 2644 2061 2787 
Q 1881 2931 1553 2931 
Q 1166 2931 1000 2803 
Q 834 2675 834 2503 
Q 834 2394 903 2306 
Q 972 2216 1119 2156 
Q 1203 2125 1616 2013 
Q 2213 1853 2448 1751 
Q 2684 1650 2818 1456 
Q 2953 1263 2953 975 
Q 2953 694 2789 445 
Q 2625 197 2315 61 
Q 2006 -75 1616 -75 
Q 969 -75 630 194 
Q 291 463 197 991 
z
" transform="scale(0.015625)"/>
       <path id="ArialMT-4d" d="M 475 0 
L 475 4581 
L 1388 4581 
L 2472 1338 
Q 2622 884 2691 659 
Q 2769 909 2934 1394 
L 4031 4581 
L 4847 4581 
L 4847 0 
L 4263 0 
L 4263 3834 
L 2931 0 
L 2384 0 
L 1059 3900 
L 1059 0 
L 475 0 
z
" transform="scale(0.015625)"/>
       <path id="ArialMT-6c" d="M 409 0 
L 409 4581 
L 972 4581 
L 972 0 
L 409 0 
z
" transform="scale(0.015625)"/>
       <path id="ArialMT-79" d="M 397 -1278 
L 334 -750 
Q 519 -800 656 -800 
Q 844 -800 956 -737 
Q 1069 -675 1141 -563 
Q 1194 -478 1313 -144 
Q 1328 -97 1363 -6 
L 103 3319 
L 709 3319 
L 1400 1397 
Q 1534 1031 1641 628 
Q 1738 1016 1872 1384 
L 2581 3319 
L 3144 3319 
L 1881 -56 
Q 1678 -603 1566 -809 
Q 1416 -1088 1222 -1217 
Q 1028 -1347 759 -1347 
Q 597 -1347 397 -1278 
z
" transform="scale(0.015625)"/>
       <path id="ArialMT-28" d="M 1497 -1347 
Q 1031 -759 709 28 
Q 388 816 388 1659 
Q 388 2403 628 3084 
Q 909 3875 1497 4659 
L 1900 4659 
Q 1522 4009 1400 3731 
Q 1209 3300 1100 2831 
Q 966 2247 966 1656 
Q 966 153 1900 -1347 
L 1497 -1347 
z
" transform="scale(0.015625)"/>
       <path id="ArialMT-48" d="M 513 0 
L 513 4581 
L 1119 4581 
L 1119 2700 
L 3500 2700 
L 3500 4581 
L 4106 4581 
L 4106 0 
L 3500 0 
L 3500 2159 
L 1119 2159 
L 1119 0 
L 513 0 
z
" transform="scale(0.015625)"/>
       <path id="ArialMT-67" d="M 319 -275 
L 866 -356 
Q 900 -609 1056 -725 
Q 1266 -881 1628 -881 
Q 2019 -881 2231 -725 
Q 2444 -569 2519 -288 
Q 2563 -116 2559 434 
Q 2191 0 1641 0 
Q 956 0 581 494 
Q 206 988 206 1678 
Q 206 2153 378 2554 
Q 550 2956 876 3175 
Q 1203 3394 1644 3394 
Q 2231 3394 2613 2919 
L 2613 3319 
L 3131 3319 
L 3131 450 
Q 3131 -325 2973 -648 
Q 2816 -972 2473 -1159 
Q 2131 -1347 1631 -1347 
Q 1038 -1347 672 -1080 
Q 306 -813 319 -275 
z
M 784 1719 
Q 784 1066 1043 766 
Q 1303 466 1694 466 
Q 2081 466 2343 764 
Q 2606 1063 2606 1700 
Q 2606 2309 2336 2618 
Q 2066 2928 1684 2928 
Q 1309 2928 1046 2623 
Q 784 2319 784 1719 
z
" transform="scale(0.015625)"/>
       <path id="ArialMT-68" d="M 422 0 
L 422 4581 
L 984 4581 
L 984 2938 
Q 1378 3394 1978 3394 
Q 2347 3394 2619 3248 
Q 2891 3103 3008 2847 
Q 3125 2591 3125 2103 
L 3125 0 
L 2563 0 
L 2563 2103 
Q 2563 2525 2380 2717 
Q 2197 2909 1863 2909 
Q 1613 2909 1392 2779 
Q 1172 2650 1078 2428 
Q 984 2206 984 1816 
L 984 0 
L 422 0 
z
" transform="scale(0.015625)"/>
       <path id="ArialMT-3d" d="M 3381 2694 
L 356 2694 
L 356 3219 
L 3381 3219 
L 3381 2694 
z
M 3381 1303 
L 356 1303 
L 356 1828 
L 3381 1828 
L 3381 1303 
z
" transform="scale(0.015625)"/>
       <path id="ArialMT-63" d="M 2588 1216 
L 3141 1144 
Q 3050 572 2676 248 
Q 2303 -75 1759 -75 
Q 1078 -75 664 370 
Q 250 816 250 1647 
Q 250 2184 428 2587 
Q 606 2991 970 3192 
Q 1334 3394 1763 3394 
Q 2303 3394 2647 3120 
Q 2991 2847 3088 2344 
L 2541 2259 
Q 2463 2594 2264 2762 
Q 2066 2931 1784 2931 
Q 1359 2931 1093 2626 
Q 828 2322 828 1663 
Q 828 994 1084 691 
Q 1341 388 1753 388 
Q 2084 388 2306 591 
Q 2528 794 2588 1216 
z
" transform="scale(0.015625)"/>
       <path id="ArialMT-61" d="M 2588 409 
Q 2275 144 1986 34 
Q 1697 -75 1366 -75 
Q 819 -75 525 192 
Q 231 459 231 875 
Q 231 1119 342 1320 
Q 453 1522 633 1644 
Q 813 1766 1038 1828 
Q 1203 1872 1538 1913 
Q 2219 1994 2541 2106 
Q 2544 2222 2544 2253 
Q 2544 2597 2384 2738 
Q 2169 2928 1744 2928 
Q 1347 2928 1158 2789 
Q 969 2650 878 2297 
L 328 2372 
Q 403 2725 575 2942 
Q 747 3159 1072 3276 
Q 1397 3394 1825 3394 
Q 2250 3394 2515 3294 
Q 2781 3194 2906 3042 
Q 3031 2891 3081 2659 
Q 3109 2516 3109 2141 
L 3109 1391 
Q 3109 606 3145 398 
Q 3181 191 3288 0 
L 2700 0 
Q 2613 175 2588 409 
z
M 2541 1666 
Q 2234 1541 1622 1453 
Q 1275 1403 1131 1340 
Q 988 1278 909 1158 
Q 831 1038 831 891 
Q 831 666 1001 516 
Q 1172 366 1500 366 
Q 1825 366 2078 508 
Q 2331 650 2450 897 
Q 2541 1088 2541 1459 
L 2541 1666 
z
" transform="scale(0.015625)"/>
       <path id="ArialMT-64" d="M 2575 0 
L 2575 419 
Q 2259 -75 1647 -75 
Q 1250 -75 917 144 
Q 584 363 401 755 
Q 219 1147 219 1656 
Q 219 2153 384 2558 
Q 550 2963 881 3178 
Q 1213 3394 1622 3394 
Q 1922 3394 2156 3267 
Q 2391 3141 2538 2938 
L 2538 4581 
L 3097 4581 
L 3097 0 
L 2575 0 
z
M 797 1656 
Q 797 1019 1065 703 
Q 1334 388 1700 388 
Q 2069 388 2326 689 
Q 2584 991 2584 1609 
Q 2584 2291 2321 2609 
Q 2059 2928 1675 2928 
Q 1300 2928 1048 2622 
Q 797 2316 797 1656 
z
" transform="scale(0.015625)"/>
       <path id="ArialMT-29" d="M 791 -1347 
L 388 -1347 
Q 1322 153 1322 1656 
Q 1322 2244 1188 2822 
Q 1081 3291 891 3722 
Q 769 4003 388 4659 
L 791 4659 
Q 1378 3875 1659 3084 
Q 1900 2403 1900 1659 
Q 1900 816 1576 28 
Q 1253 -759 791 -1347 
z
" transform="scale(0.015625)"/>
      </defs>
      <use xlink:href="#ArialMT-54"/>
      <use xlink:href="#ArialMT-6f" x="49.958984"/>
      <use xlink:href="#ArialMT-70" x="105.574219"/>
      <use xlink:href="#ArialMT-20" x="161.189453"/>
      <use xlink:href="#ArialMT-33" x="188.972656"/>
      <use xlink:href="#ArialMT-20" x="244.587891"/>
      <use xlink:href="#ArialMT-43" x="272.371094"/>
      <use xlink:href="#ArialMT-6f" x="344.587891"/>
      <use xlink:href="#ArialMT-75" x="400.203125"/>
      <use xlink:href="#ArialMT-6e" x="455.818359"/>
      <use xlink:href="#ArialMT-74" x="511.433594"/>
      <use xlink:href="#ArialMT-72" x="539.216797"/>
      <use xlink:href="#ArialMT-69" x="572.517578"/>
      <use xlink:href="#ArialMT-65" x="594.734375"/>
      <use xlink:href="#ArialMT-73" x="650.349609"/>
      <use xlink:href="#ArialMT-20" x="700.349609"/>
      <use xlink:href="#ArialMT-4d" x="728.132812"/>
      <use xlink:href="#ArialMT-6f" x="811.433594"/>
      <use xlink:href="#ArialMT-6e" x="867.048828"/>
      <use xlink:href="#ArialMT-6f" x="922.664062"/>
      <use xlink:href="#ArialMT-70" x="978.279297"/>
      <use xlink:href="#ArialMT-6f" x="1033.894531"/>
      <use xlink:href="#ArialMT-6c" x="1089.509766"/>
      <use xlink:href="#ArialMT-79" x="1111.726562"/>
      <use xlink:href="#ArialMT-20" x="1161.726562"/>
      <use xlink:href="#ArialMT-28" x="1189.509766"/>
      <use xlink:href="#ArialMT-48" x="1222.810547"/>
      <use xlink:href="#ArialMT-69" x="1295.027344"/>
      <use xlink:href="#ArialMT-67" x="1317.244141"/>
      <use xlink:href="#ArialMT-68" x="1372.859375"/>
      <use xlink:href="#ArialMT-65" x="1428.474609"/>
      <use xlink:href="#ArialMT-72" x="1484.089844"/>
      <use xlink:href="#ArialMT-20" x="1517.390625"/>
      <use xlink:href="#ArialMT-3d" x="1545.173828"/>
      <use xlink:href="#ArialMT-20" x="1603.572266"/>
      <use xlink:href="#ArialMT-4d" x="1631.355469"/>
      <use xlink:href="#ArialMT-6f" x="1714.65625"/>
      <use xlink:href="#ArialMT-72" x="1770.271484"/>
      <use xlink:href="#ArialMT-65" x="1803.572266"/>
      <use xlink:href="#ArialMT-20" x="1859.1875"/>
      <use xlink:href="#ArialMT-43" x="1886.970703"/>
      <use xlink:href="#ArialMT-6f" x="1959.1875"/>
      <use xlink:href="#ArialMT-6e" x="2014.802734"/>
      <use xlink:href="#ArialMT-63" x="2070.417969"/>
      <use xlink:href="#ArialMT-65" x="2120.417969"/>
      <use xlink:href="#ArialMT-6e" x="2176.033203"/>
      <use xlink:href="#ArialMT-74" x="2231.648438"/>
      <use xlink:href="#ArialMT-72" x="2259.431641"/>
      <use xlink:href="#ArialMT-61" x="2292.732422"/>
      <use xlink:href="#ArialMT-74" x="2348.347656"/>
      <use xlink:href="#ArialMT-65" x="2376.130859"/>
      <use xlink:href="#ArialMT-64" x="2431.746094"/>
      <use xlink:href="#ArialMT-29" x="2487.361328"/>
     </g>
    </g>
   </g>
   <g id="matplotlib.axis_2">
    <g id="ytick_1">
     <g id="line2d_7">
      <path d="M 53.375781 361.970966 
L 701.319531 361.970966 
" clip-path="url(#pb9cce4b6af)" style="fill: none; stroke: #cccccc; stroke-opacity: 0.3; stroke-linecap: round"/>
     </g>
     <g id="text_8">
      <!-- 0.00 -->
      <g style="fill: #262626" transform="translate(22.46875 365.907763) scale(0.11 -0.11)">
       <use xlink:href="#ArialMT-30"/>
       <use xlink:href="#ArialMT-2e" x="55.615234"/>
       <use xlink:href="#ArialMT-30" x="83.398438"/>
       <use xlink:href="#ArialMT-30" x="139.013672"/>
      </g>
     </g>
    </g>
    <g id="ytick_2">
     <g id="line2d_8">
      <path d="M 53.375781 304.447635 
L 701.319531 304.447635 
" clip-path="url(#pb9cce4b6af)" style="fill: none; stroke: #cccccc; stroke-opacity: 0.3; stroke-linecap: round"/>
     </g>
     <g id="text_9">
      <!-- 0.01 -->
      <g style="fill: #262626" transform="translate(22.46875 308.384432) scale(0.11 -0.11)">
       <defs>
        <path id="ArialMT-31" d="M 2384 0 
L 1822 0 
L 1822 3584 
Q 1619 3391 1289 3197 
Q 959 3003 697 2906 
L 697 3450 
Q 1169 3672 1522 3987 
Q 1875 4303 2022 4600 
L 2384 4600 
L 2384 0 
z
" transform="scale(0.015625)"/>
       </defs>
       <use xlink:href="#ArialMT-30"/>
       <use xlink:href="#ArialMT-2e" x="55.615234"/>
       <use xlink:href="#ArialMT-30" x="83.398438"/>
       <use xlink:href="#ArialMT-31" x="139.013672"/>
      </g>
     </g>
    </g>
    <g id="ytick_3">
     <g id="line2d_9">
      <path d="M 53.375781 246.924303 
L 701.319531 246.924303 
" clip-path="url(#pb9cce4b6af)" style="fill: none; stroke: #cccccc; stroke-opacity: 0.3; stroke-linecap: round"/>
     </g>
     <g id="text_10">
      <!-- 0.02 -->
      <g style="fill: #262626" transform="translate(22.46875 250.8611) scale(0.11 -0.11)">
       <use xlink:href="#ArialMT-30"/>
       <use xlink:href="#ArialMT-2e" x="55.615234"/>
       <use xlink:href="#ArialMT-30" x="83.398438"/>
       <use xlink:href="#ArialMT-32" x="139.013672"/>
      </g>
     </g>
    </g>
    <g id="ytick_4">
     <g id="line2d_10">
      <path d="M 53.375781 189.400972 
L 701.319531 189.400972 
" clip-path="url(#pb9cce4b6af)" style="fill: none; stroke: #cccccc; stroke-opacity: 0.3; stroke-linecap: round"/>
     </g>
     <g id="text_11">
      <!-- 0.03 -->
      <g style="fill: #262626" transform="translate(22.46875 193.337769) scale(0.11 -0.11)">
       <use xlink:href="#ArialMT-30"/>
       <use xlink:href="#ArialMT-2e" x="55.615234"/>
       <use xlink:href="#ArialMT-30" x="83.398438"/>
       <use xlink:href="#ArialMT-33" x="139.013672"/>
      </g>
     </g>
    </g>
    <g id="ytick_5">
     <g id="line2d_11">
      <path d="M 53.375781 131.877641 
L 701.319531 131.877641 
" clip-path="url(#pb9cce4b6af)" style="fill: none; stroke: #cccccc; stroke-opacity: 0.3; stroke-linecap: round"/>
     </g>
     <g id="text_12">
      <!-- 0.04 -->
      <g style="fill: #262626" transform="translate(22.46875 135.814438) scale(0.11 -0.11)">
       <use xlink:href="#ArialMT-30"/>
       <use xlink:href="#ArialMT-2e" x="55.615234"/>
       <use xlink:href="#ArialMT-30" x="83.398438"/>
       <use xlink:href="#ArialMT-34" x="139.013672"/>
      </g>
     </g>
    </g>
    <g id="ytick_6">
     <g id="line2d_12">
      <path d="M 53.375781 74.35431 
L 701.319531 74.35431 
" clip-path="url(#pb9cce4b6af)" style="fill: none; stroke: #cccccc; stroke-opacity: 0.3; stroke-linecap: round"/>
     </g>
     <g id="text_13">
      <!-- 0.05 -->
      <g style="fill: #262626" transform="translate(22.46875 78.291106) scale(0.11 -0.11)">
       <use xlink:href="#ArialMT-30"/>
       <use xlink:href="#ArialMT-2e" x="55.615234"/>
       <use xlink:href="#ArialMT-30" x="83.398438"/>
       <use xlink:href="#ArialMT-35" x="139.013672"/>
      </g>
     </g>
    </g>
    <g id="text_14">
     <!-- Small Countries Medal Share (Higher = More Opportunity) -->
     <g style="fill: #262626" transform="translate(15.943125 354.604687) rotate(-90) scale(0.12 -0.12)">
      <defs>
       <path id="ArialMT-53" d="M 288 1472 
L 859 1522 
Q 900 1178 1048 958 
Q 1197 738 1509 602 
Q 1822 466 2213 466 
Q 2559 466 2825 569 
Q 3091 672 3220 851 
Q 3350 1031 3350 1244 
Q 3350 1459 3225 1620 
Q 3100 1781 2813 1891 
Q 2628 1963 1997 2114 
Q 1366 2266 1113 2400 
Q 784 2572 623 2826 
Q 463 3081 463 3397 
Q 463 3744 659 4045 
Q 856 4347 1234 4503 
Q 1613 4659 2075 4659 
Q 2584 4659 2973 4495 
Q 3363 4331 3572 4012 
Q 3781 3694 3797 3291 
L 3216 3247 
Q 3169 3681 2898 3903 
Q 2628 4125 2100 4125 
Q 1550 4125 1298 3923 
Q 1047 3722 1047 3438 
Q 1047 3191 1225 3031 
Q 1400 2872 2139 2705 
Q 2878 2538 3153 2413 
Q 3553 2228 3743 1945 
Q 3934 1663 3934 1294 
Q 3934 928 3725 604 
Q 3516 281 3123 101 
Q 2731 -78 2241 -78 
Q 1619 -78 1198 103 
Q 778 284 539 648 
Q 300 1013 288 1472 
z
" transform="scale(0.015625)"/>
       <path id="ArialMT-6d" d="M 422 0 
L 422 3319 
L 925 3319 
L 925 2853 
Q 1081 3097 1340 3245 
Q 1600 3394 1931 3394 
Q 2300 3394 2536 3241 
Q 2772 3088 2869 2813 
Q 3263 3394 3894 3394 
Q 4388 3394 4653 3120 
Q 4919 2847 4919 2278 
L 4919 0 
L 4359 0 
L 4359 2091 
Q 4359 2428 4304 2576 
Q 4250 2725 4106 2815 
Q 3963 2906 3769 2906 
Q 3419 2906 3187 2673 
Q 2956 2441 2956 1928 
L 2956 0 
L 2394 0 
L 2394 2156 
Q 2394 2531 2256 2718 
Q 2119 2906 1806 2906 
Q 1569 2906 1367 2781 
Q 1166 2656 1075 2415 
Q 984 2175 984 1722 
L 984 0 
L 422 0 
z
" transform="scale(0.015625)"/>
       <path id="ArialMT-4f" d="M 309 2231 
Q 309 3372 921 4017 
Q 1534 4663 2503 4663 
Q 3138 4663 3647 4359 
Q 4156 4056 4423 3514 
Q 4691 2972 4691 2284 
Q 4691 1588 4409 1038 
Q 4128 488 3612 205 
Q 3097 -78 2500 -78 
Q 1853 -78 1343 234 
Q 834 547 571 1087 
Q 309 1628 309 2231 
z
M 934 2222 
Q 934 1394 1379 917 
Q 1825 441 2497 441 
Q 3181 441 3623 922 
Q 4066 1403 4066 2288 
Q 4066 2847 3877 3264 
Q 3688 3681 3323 3911 
Q 2959 4141 2506 4141 
Q 1863 4141 1398 3698 
Q 934 3256 934 2222 
z
" transform="scale(0.015625)"/>
      </defs>
      <use xlink:href="#ArialMT-53"/>
      <use xlink:href="#ArialMT-6d" x="66.699219"/>
      <use xlink:href="#ArialMT-61" x="150"/>
      <use xlink:href="#ArialMT-6c" x="205.615234"/>
      <use xlink:href="#ArialMT-6c" x="227.832031"/>
      <use xlink:href="#ArialMT-20" x="250.048828"/>
      <use xlink:href="#ArialMT-43" x="277.832031"/>
      <use xlink:href="#ArialMT-6f" x="350.048828"/>
      <use xlink:href="#ArialMT-75" x="405.664062"/>
      <use xlink:href="#ArialMT-6e" x="461.279297"/>
      <use xlink:href="#ArialMT-74" x="516.894531"/>
      <use xlink:href="#ArialMT-72" x="544.677734"/>
      <use xlink:href="#ArialMT-69" x="577.978516"/>
      <use xlink:href="#ArialMT-65" x="600.195312"/>
      <use xlink:href="#ArialMT-73" x="655.810547"/>
      <use xlink:href="#ArialMT-20" x="705.810547"/>
      <use xlink:href="#ArialMT-4d" x="733.59375"/>
      <use xlink:href="#ArialMT-65" x="816.894531"/>
      <use xlink:href="#ArialMT-64" x="872.509766"/>
      <use xlink:href="#ArialMT-61" x="928.125"/>
      <use xlink:href="#ArialMT-6c" x="983.740234"/>
      <use xlink:href="#ArialMT-20" x="1005.957031"/>
      <use xlink:href="#ArialMT-53" x="1033.740234"/>
      <use xlink:href="#ArialMT-68" x="1100.439453"/>
      <use xlink:href="#ArialMT-61" x="1156.054688"/>
      <use xlink:href="#ArialMT-72" x="1211.669922"/>
      <use xlink:href="#ArialMT-65" x="1244.970703"/>
      <use xlink:href="#ArialMT-20" x="1300.585938"/>
      <use xlink:href="#ArialMT-28" x="1328.369141"/>
      <use xlink:href="#ArialMT-48" x="1361.669922"/>
      <use xlink:href="#ArialMT-69" x="1433.886719"/>
      <use xlink:href="#ArialMT-67" x="1456.103516"/>
      <use xlink:href="#ArialMT-68" x="1511.71875"/>
      <use xlink:href="#ArialMT-65" x="1567.333984"/>
      <use xlink:href="#ArialMT-72" x="1622.949219"/>
      <use xlink:href="#ArialMT-20" x="1656.25"/>
      <use xlink:href="#ArialMT-3d" x="1684.033203"/>
      <use xlink:href="#ArialMT-20" x="1742.431641"/>
      <use xlink:href="#ArialMT-4d" x="1770.214844"/>
      <use xlink:href="#ArialMT-6f" x="1853.515625"/>
      <use xlink:href="#ArialMT-72" x="1909.130859"/>
      <use xlink:href="#ArialMT-65" x="1942.431641"/>
      <use xlink:href="#ArialMT-20" x="1998.046875"/>
      <use xlink:href="#ArialMT-4f" x="2025.830078"/>
      <use xlink:href="#ArialMT-70" x="2103.613281"/>
      <use xlink:href="#ArialMT-70" x="2159.228516"/>
      <use xlink:href="#ArialMT-6f" x="2214.84375"/>
      <use xlink:href="#ArialMT-72" x="2270.458984"/>
      <use xlink:href="#ArialMT-74" x="2303.759766"/>
      <use xlink:href="#ArialMT-75" x="2331.542969"/>
      <use xlink:href="#ArialMT-6e" x="2387.158203"/>
      <use xlink:href="#ArialMT-69" x="2442.773438"/>
      <use xlink:href="#ArialMT-74" x="2464.990234"/>
      <use xlink:href="#ArialMT-79" x="2492.773438"/>
      <use xlink:href="#ArialMT-29" x="2542.773438"/>
     </g>
    </g>
   </g>
   <g id="patch_7">
    <path d="M 53.375781 378.163125 
L 53.375781 21.935625 
" style="fill: none; stroke: #cccccc; stroke-width: 1.25; stroke-linejoin: miter; stroke-linecap: square"/>
   </g>
   <g id="patch_8">
    <path d="M 701.319531 378.163125 
L 701.319531 21.935625 
" style="fill: none; stroke: #cccccc; stroke-width: 1.25; stroke-linejoin: miter; stroke-linecap: square"/>
   </g>
   <g id="patch_9">
    <path d="M 53.375781 378.163125 
L 701.319531 378.163125 
" style="fill: none; stroke: #cccccc; stroke-width: 1.25; stroke-linejoin: miter; stroke-linecap: square"/>
   </g>
   <g id="patch_10">
    <path d="M 53.375781 21.935625 
L 701.319531 21.935625 
" style="fill: none; stroke: #cccccc; stroke-width: 1.25; stroke-linejoin: miter; stroke-linecap: square"/>
   </g>
   <g id="PathCollection_1">
    <path d="M 383.442626 365.18422 
C 384.29479 365.18422 385.112168 364.845651 385.714739 364.243079 
C 386.317311 363.640508 386.655879 362.823131 386.655879 361.970966 
C 386.655879 361.118801 386.317311 360.301424 385.714739 359.698852 
C 385.112168 359.096281 384.29479 358.757712 383.442626 358.757712 
C 382.590461 358.757712 381.773084 359.096281 381.170512 359.698852 
C 380.56794 360.301424 380.229372 361.118801 380.229372 361.970966 
C 380.229372 362.823131 380.56794 363.640508 381.170512 364.243079 
C 381.773084 364.845651 382.590461 365.18422 383.442626 365.18422 
z
" clip-path="url(#pb9cce4b6af)" style="fill: #c0392b; fill-opacity: 0.8; stroke: #ffffff; stroke-opacity: 0.8; stroke-width: 0.5"/>
    <path d="M 298.412706 227.029277 
C 301.203331 227.029277 303.880034 225.92055 305.853304 223.947281 
C 307.826574 221.974011 308.935301 219.297307 308.935301 216.506683 
C 308.935301 213.716058 307.826574 211.039354 305.853304 209.066085 
C 303.880034 207.092815 301.203331 205.984088 298.412706 205.984088 
C 295.622081 205.984088 292.945378 207.092815 290.972108 209.066085 
C 288.998838 211.039354 287.890111 213.716058 287.890111 216.506683 
C 287.890111 219.297307 288.998838 221.974011 290.972108 223.947281 
C 292.945378 225.92055 295.622081 227.029277 298.412706 227.029277 
z
" clip-path="url(#pb9cce4b6af)" style="fill: #e67e22; fill-opacity: 0.8; stroke: #ffffff; stroke-opacity: 0.8; stroke-width: 0.5"/>
    <path d="M 645.093007 364.869241 
C 645.861639 364.869241 646.598893 364.563861 647.142398 364.020356 
C 647.685902 363.476851 647.991283 362.739598 647.991283 361.970966 
C 647.991283 361.202334 647.685902 360.46508 647.142398 359.921576 
C 646.598893 359.378071 645.861639 359.072691 645.093007 359.072691 
C 644.324376 359.072691 643.587122 359.378071 643.043617 359.921576 
C 642.500113 360.46508 642.194732 361.202334 642.194732 361.970966 
C 642.194732 362.739598 642.500113 363.476851 643.043617 364.020356 
C 643.587122 364.563861 644.324376 364.869241 645.093007 364.869241 
z
" clip-path="url(#pb9cce4b6af)" style="fill: #c0392b; fill-opacity: 0.8; stroke: #ffffff; stroke-opacity: 0.8; stroke-width: 0.5"/>
    <path d="M 404.039997 367.500432 
C 405.506429 367.500432 406.912997 366.917813 407.94992 365.880889 
C 408.986844 364.843965 409.569464 363.437398 409.569464 361.970966 
C 409.569464 360.504534 408.986844 359.097966 407.94992 358.061043 
C 406.912997 357.024119 405.506429 356.441499 404.039997 356.441499 
C 402.573565 356.441499 401.166998 357.024119 400.130074 358.061043 
C 399.09315 359.097966 398.510531 360.504534 398.510531 361.970966 
C 398.510531 363.437398 399.09315 364.843965 400.130074 365.880889 
C 401.166998 366.917813 402.573565 367.500432 404.039997 367.500432 
z
" clip-path="url(#pb9cce4b6af)" style="fill: #c0392b; fill-opacity: 0.8; stroke: #ffffff; stroke-opacity: 0.8; stroke-width: 0.5"/>
    <path d="M 118.512371 43.246378 
C 119.869838 43.246378 121.171889 42.70705 122.131763 41.747176 
C 123.091637 40.787302 123.630965 39.485251 123.630965 38.127784 
C 123.630965 36.770317 123.091637 35.468266 122.131763 34.508392 
C 121.171889 33.548518 119.869838 33.009191 118.512371 33.009191 
C 117.154904 33.009191 115.852853 33.548518 114.892979 34.508392 
C 113.933105 35.468266 113.393777 36.770317 113.393777 38.127784 
C 113.393777 39.485251 113.933105 40.787302 114.892979 41.747176 
C 115.852853 42.70705 117.154904 43.246378 118.512371 43.246378 
z
" clip-path="url(#pb9cce4b6af)" style="fill: #27ae60; fill-opacity: 0.8; stroke: #ffffff; stroke-opacity: 0.8; stroke-width: 0.5"/>
    <path d="M 230.163049 352.554849 
C 231.594286 352.554849 232.967096 351.986213 233.979133 350.974175 
C 234.99117 349.962138 235.559807 348.589328 235.559807 347.158091 
C 235.559807 345.726854 234.99117 344.354044 233.979133 343.342007 
C 232.967096 342.329969 231.594286 341.761333 230.163049 341.761333 
C 228.731812 341.761333 227.359002 342.329969 226.346964 343.342007 
C 225.334927 344.354044 224.76629 345.726854 224.76629 347.158091 
C 224.76629 348.589328 225.334927 349.962138 226.346964 350.974175 
C 227.359002 351.986213 228.731812 352.554849 230.163049 352.554849 
z
" clip-path="url(#pb9cce4b6af)" style="fill: #7f8c8d; fill-opacity: 0.8; stroke: #ffffff; stroke-opacity: 0.8; stroke-width: 0.5"/>
    <path d="M 242.989515 353.92663 
C 244.479735 353.92663 245.909119 353.33456 246.962864 352.280816 
C 248.016608 351.227071 248.608679 349.797686 248.608679 348.307467 
C 248.608679 346.817247 248.016608 345.387862 246.962864 344.334118 
C 245.909119 343.280374 244.479735 342.688303 242.989515 342.688303 
C 241.499296 342.688303 240.069911 343.280374 239.016166 344.334118 
C 237.962422 345.387862 237.370352 346.817247 237.370352 348.307467 
C 237.370352 349.797686 237.962422 351.227071 239.016166 352.280816 
C 240.069911 353.33456 241.499296 353.92663 242.989515 353.92663 
z
" clip-path="url(#pb9cce4b6af)" style="fill: #7f8c8d; fill-opacity: 0.8; stroke: #ffffff; stroke-opacity: 0.8; stroke-width: 0.5"/>
    <path d="M 507.155183 330.919797 
C 508.09188 330.919797 508.990338 330.547644 509.652682 329.8853 
C 510.315027 329.222955 510.68718 328.324497 510.68718 327.387801 
C 510.68718 326.451104 510.315027 325.552646 509.652682 324.890302 
C 508.990338 324.227958 508.09188 323.855804 507.155183 323.855804 
C 506.218487 323.855804 505.320029 324.227958 504.657685 324.890302 
C 503.99534 325.552646 503.623187 326.451104 503.623187 327.387801 
C 503.623187 328.324497 503.99534 329.222955 504.657685 329.8853 
C 505.320029 330.547644 506.218487 330.919797 507.155183 330.919797 
z
" clip-path="url(#pb9cce4b6af)" style="fill: #c0392b; fill-opacity: 0.8; stroke: #ffffff; stroke-opacity: 0.8; stroke-width: 0.5"/>
    <path d="M 255.372105 337.077852 
C 256.674708 337.077852 257.924136 336.560322 258.845216 335.639242 
C 259.766295 334.718162 260.283825 333.468735 260.283825 332.166131 
C 260.283825 330.863527 259.766295 329.6141 258.845216 328.69302 
C 257.924136 327.77194 256.674708 327.25441 255.372105 327.25441 
C 254.069501 327.25441 252.820073 327.77194 251.898994 328.69302 
C 250.977914 329.6141 250.460384 330.863527 250.460384 332.166131 
C 250.460384 333.468735 250.977914 334.718162 251.898994 335.639242 
C 252.820073 336.560322 254.069501 337.077852 255.372105 337.077852 
z
" clip-path="url(#pb9cce4b6af)" style="fill: #c0392b; fill-opacity: 0.8; stroke: #ffffff; stroke-opacity: 0.8; stroke-width: 0.5"/>
    <path d="M 404.936744 333.008585 
C 406.77556 333.008585 408.53931 332.278016 409.839549 330.977777 
C 411.139788 329.677538 411.870358 327.913787 411.870358 326.074971 
C 411.870358 324.236155 411.139788 322.472405 409.839549 321.172166 
C 408.53931 319.871927 406.77556 319.141358 404.936744 319.141358 
C 403.097928 319.141358 401.334178 319.871927 400.033938 321.172166 
C 398.733699 322.472405 398.00313 324.236155 398.00313 326.074971 
C 398.00313 327.913787 398.733699 329.677538 400.033938 330.977777 
C 401.334178 332.278016 403.097928 333.008585 404.936744 333.008585 
z
" clip-path="url(#pb9cce4b6af)" style="fill: #c0392b; fill-opacity: 0.8; stroke: #ffffff; stroke-opacity: 0.8; stroke-width: 0.5"/>
    <path d="M 114.279953 195.561083 
C 116.072283 195.561083 117.791445 194.848983 119.058813 193.581614 
C 120.326182 192.314246 121.038282 190.595084 121.038282 188.802755 
C 121.038282 187.010425 120.326182 185.291263 119.058813 184.023895 
C 117.791445 182.756527 116.072283 182.044426 114.279953 182.044426 
C 112.487624 182.044426 110.768462 182.756527 109.501094 184.023895 
C 108.233725 185.291263 107.521625 187.010425 107.521625 188.802755 
C 107.521625 190.595084 108.233725 192.314246 109.501094 193.581614 
C 110.768462 194.848983 112.487624 195.561083 114.279953 195.561083 
z
" clip-path="url(#pb9cce4b6af)" style="fill: #27ae60; fill-opacity: 0.8; stroke: #ffffff; stroke-opacity: 0.8; stroke-width: 0.5"/>
    <path d="M 160.657216 369.480959 
C 162.648889 369.480959 164.559257 368.689659 165.967583 367.281333 
C 167.375909 365.873007 168.167209 363.962639 168.167209 361.970966 
C 168.167209 359.979292 167.375909 358.068925 165.967583 356.660599 
C 164.559257 355.252273 162.648889 354.460973 160.657216 354.460973 
C 158.665542 354.460973 156.755174 355.252273 155.346849 356.660599 
C 153.938523 358.068925 153.147222 359.979292 153.147222 361.970966 
C 153.147222 363.962639 153.938523 365.873007 155.346849 367.281333 
C 156.755174 368.689659 158.665542 369.480959 160.657216 369.480959 
z
" clip-path="url(#pb9cce4b6af)" style="fill: #7f8c8d; fill-opacity: 0.8; stroke: #ffffff; stroke-opacity: 0.8; stroke-width: 0.5"/>
    <path d="M 149.877037 238.392172 
C 151.357787 238.392172 152.778089 237.803864 153.825137 236.756815 
C 154.872186 235.709767 155.460494 234.289465 155.460494 232.808714 
C 155.460494 231.327964 154.872186 229.907662 153.825137 228.860614 
C 152.778089 227.813565 151.357787 227.225257 149.877037 227.225257 
C 148.396286 227.225257 146.975984 227.813565 145.928936 228.860614 
C 144.881887 229.907662 144.293579 231.327964 144.293579 232.808714 
C 144.293579 234.289465 144.881887 235.709767 145.928936 236.756815 
C 146.975984 237.803864 148.396286 238.392172 149.877037 238.392172 
z
" clip-path="url(#pb9cce4b6af)" style="fill: #27ae60; fill-opacity: 0.8; stroke: #ffffff; stroke-opacity: 0.8; stroke-width: 0.5"/>
    <path d="M 301.48929 318.916484 
C 303.237419 318.916484 304.914185 318.221945 306.150299 316.985831 
C 307.386413 315.749717 308.080952 314.072952 308.080952 312.324823 
C 308.080952 310.576694 307.386413 308.899928 306.150299 307.663814 
C 304.914185 306.4277 303.237419 305.733161 301.48929 305.733161 
C 299.741161 305.733161 298.064396 306.4277 296.828282 307.663814 
C 295.592168 308.899928 294.897629 310.576694 294.897629 312.324823 
C 294.897629 314.072952 295.592168 315.749717 296.828282 316.985831 
C 298.064396 318.221945 299.741161 318.916484 301.48929 318.916484 
z
" clip-path="url(#pb9cce4b6af)" style="fill: #e67e22; fill-opacity: 0.8; stroke: #ffffff; stroke-opacity: 0.8; stroke-width: 0.5"/>
    <path d="M 252.027654 251.876289 
C 253.179076 251.876289 254.283493 251.418825 255.097671 250.604647 
C 255.911849 249.790469 256.369313 248.686052 256.369313 247.53463 
C 256.369313 246.383209 255.911849 245.278792 255.097671 244.464614 
C 254.283493 243.650436 253.179076 243.192972 252.027654 243.192972 
C 250.876233 243.192972 249.771816 243.650436 248.957638 244.464614 
C 248.14346 245.278792 247.685996 246.383209 247.685996 247.53463 
C 247.685996 248.686052 248.14346 249.790469 248.957638 250.604647 
C 249.771816 251.418825 250.876233 251.876289 252.027654 251.876289 
z
" clip-path="url(#pb9cce4b6af)" style="fill: #27ae60; fill-opacity: 0.8; stroke: #ffffff; stroke-opacity: 0.8; stroke-width: 0.5"/>
    <path d="M 171.025034 369.181983 
C 173.409282 369.181983 175.696198 368.234711 177.382116 366.548793 
C 179.068034 364.862875 180.015306 362.575959 180.015306 360.19171 
C 180.015306 357.807462 179.068034 355.520546 177.382116 353.834628 
C 175.696198 352.14871 173.409282 351.201438 171.025034 351.201438 
C 168.640785 351.201438 166.353869 352.14871 164.667951 353.834628 
C 162.982033 355.520546 162.034761 357.807462 162.034761 360.19171 
C 162.034761 362.575959 162.982033 364.862875 164.667951 366.548793 
C 166.353869 368.234711 168.640785 369.181983 171.025034 369.181983 
z
" clip-path="url(#pb9cce4b6af)" style="fill: #7f8c8d; fill-opacity: 0.8; stroke: #ffffff; stroke-opacity: 0.8; stroke-width: 0.5"/>
    <path d="M 196.75105 337.185428 
C 198.273948 337.185428 199.734678 336.580374 200.81153 335.503522 
C 201.888382 334.42667 202.493436 332.96594 202.493436 331.443042 
C 202.493436 329.920143 201.888382 328.459413 200.81153 327.382562 
C 199.734678 326.30571 198.273948 325.700656 196.75105 325.700656 
C 195.228151 325.700656 193.767421 326.30571 192.690569 327.382562 
C 191.613717 328.459413 191.008663 329.920143 191.008663 331.443042 
C 191.008663 332.96594 191.613717 334.42667 192.690569 335.503522 
C 193.767421 336.580374 195.228151 337.185428 196.75105 337.185428 
z
" clip-path="url(#pb9cce4b6af)" style="fill: #7f8c8d; fill-opacity: 0.8; stroke: #ffffff; stroke-opacity: 0.8; stroke-width: 0.5"/>
    <path d="M 203.822922 251.497998 
C 205.355603 251.497998 206.825716 250.889057 207.909485 249.805288 
C 208.993255 248.721519 209.602195 247.251406 209.602195 245.718725 
C 209.602195 244.186043 208.993255 242.71593 207.909485 241.632161 
C 206.825716 240.548392 205.355603 239.939451 203.822922 239.939451 
C 202.290241 239.939451 200.820128 240.548392 199.736359 241.632161 
C 198.652589 242.71593 198.043649 244.186043 198.043649 245.718725 
C 198.043649 247.251406 198.652589 248.721519 199.736359 249.805288 
C 200.820128 250.889057 202.290241 251.497998 203.822922 251.497998 
z
" clip-path="url(#pb9cce4b6af)" style="fill: #27ae60; fill-opacity: 0.8; stroke: #ffffff; stroke-opacity: 0.8; stroke-width: 0.5"/>
    <path d="M 438.721206 329.841612 
C 441.191299 329.841612 443.560556 328.860233 445.307176 327.113614 
C 447.053796 325.366994 448.035174 322.997737 448.035174 320.527644 
C 448.035174 318.05755 447.053796 315.688293 445.307176 313.941674 
C 443.560556 312.195054 441.191299 311.213676 438.721206 311.213676 
C 436.251113 311.213676 433.881856 312.195054 432.135236 313.941674 
C 430.388617 315.688293 429.407238 318.05755 429.407238 320.527644 
C 429.407238 322.997737 430.388617 325.366994 432.135236 327.113614 
C 433.881856 328.860233 436.251113 329.841612 438.721206 329.841612 
z
" clip-path="url(#pb9cce4b6af)" style="fill: #e67e22; fill-opacity: 0.8; stroke: #ffffff; stroke-opacity: 0.8; stroke-width: 0.5"/>
    <path d="M 330.047353 246.480641 
C 330.873323 246.480641 331.665575 246.15248 332.249624 245.568431 
C 332.833673 244.984381 333.161835 244.19213 333.161835 243.366159 
C 333.161835 242.540189 332.833673 241.747937 332.249624 241.163888 
C 331.665575 240.579838 330.873323 240.251677 330.047353 240.251677 
C 329.221382 240.251677 328.42913 240.579838 327.845081 241.163888 
C 327.261032 241.747937 326.93287 242.540189 326.93287 243.366159 
C 326.93287 244.19213 327.261032 244.984381 327.845081 245.568431 
C 328.42913 246.15248 329.221382 246.480641 330.047353 246.480641 
z
" clip-path="url(#pb9cce4b6af)" style="fill: #e67e22; fill-opacity: 0.8; stroke: #ffffff; stroke-opacity: 0.8; stroke-width: 0.5"/>
    <path d="M 281.556137 305.572887 
C 282.958833 305.572887 284.304268 305.01559 285.296124 304.023734 
C 286.28798 303.031878 286.845277 301.686444 286.845277 300.283747 
C 286.845277 298.881051 286.28798 297.535617 285.296124 296.543761 
C 284.304268 295.551905 282.958833 294.994608 281.556137 294.994608 
C 280.153441 294.994608 278.808006 295.551905 277.81615 296.543761 
C 276.824294 297.535617 276.266997 298.881051 276.266997 300.283747 
C 276.266997 301.686444 276.824294 303.031878 277.81615 304.023734 
C 278.808006 305.01559 280.153441 305.572887 281.556137 305.572887 
z
" clip-path="url(#pb9cce4b6af)" style="fill: #e67e22; fill-opacity: 0.8; stroke: #ffffff; stroke-opacity: 0.8; stroke-width: 0.5"/>
    <path d="M 293.113007 367.47778 
C 294.573431 367.47778 295.974237 366.897547 297.006913 365.864871 
C 298.039588 364.832196 298.619821 363.43139 298.619821 361.970966 
C 298.619821 360.510542 298.039588 359.109736 297.006913 358.07706 
C 295.974237 357.044385 294.573431 356.464152 293.113007 356.464152 
C 291.652583 356.464152 290.251777 357.044385 289.219102 358.07706 
C 288.186426 359.109736 287.606193 360.510542 287.606193 361.970966 
C 287.606193 363.43139 288.186426 364.832196 289.219102 365.864871 
C 290.251777 366.897547 291.652583 367.47778 293.113007 367.47778 
z
" clip-path="url(#pb9cce4b6af)" style="fill: #c0392b; fill-opacity: 0.8; stroke: #ffffff; stroke-opacity: 0.8; stroke-width: 0.5"/>
    <path d="M 117.259844 117.847923 
C 118.383442 117.847923 119.461171 117.401513 120.255675 116.607009 
C 121.050178 115.812506 121.496588 114.734777 121.496588 113.611179 
C 121.496588 112.487581 121.050178 111.409852 120.255675 110.615349 
C 119.461171 109.820845 118.383442 109.374435 117.259844 109.374435 
C 116.136247 109.374435 115.058517 109.820845 114.264014 110.615349 
C 113.46951 111.409852 113.0231 112.487581 113.0231 113.611179 
C 113.0231 114.734777 113.46951 115.812506 114.264014 116.607009 
C 115.058517 117.401513 116.136247 117.847923 117.259844 117.847923 
z
" clip-path="url(#pb9cce4b6af)" style="fill: #27ae60; fill-opacity: 0.8; stroke: #ffffff; stroke-opacity: 0.8; stroke-width: 0.5"/>
    <path d="M 109.602305 216.173286 
C 111.193524 216.173286 112.719784 215.541088 113.844946 214.415927 
C 114.970107 213.290765 115.602305 211.764505 115.602305 210.173286 
C 115.602305 208.582068 114.970107 207.055807 113.844946 205.930645 
C 112.719784 204.805484 111.193524 204.173286 109.602305 204.173286 
C 108.011086 204.173286 106.484826 204.805484 105.359664 205.930645 
C 104.234503 207.055807 103.602305 208.582068 103.602305 210.173286 
C 103.602305 211.764505 104.234503 213.290765 105.359664 214.415927 
C 106.484826 215.541088 108.011086 216.173286 109.602305 216.173286 
z
" clip-path="url(#pb9cce4b6af)" style="fill: #27ae60; fill-opacity: 0.8; stroke: #ffffff; stroke-opacity: 0.8; stroke-width: 0.5"/>
   </g>
   <g id="patch_11">
    <path d="M 390.703646 358.254992 
Q 387.964809 359.656647 385.225972 361.058302 
" style="fill: none; opacity: 0.5; stroke: #808080; stroke-width: 0.5; stroke-linecap: round"/>
   </g>
   <g id="patch_12">
    <path d="M 425.463535 359.324817 
Q 415.744226 360.525307 406.024917 361.725797 
" style="fill: none; opacity: 0.5; stroke: #808080; stroke-width: 0.5; stroke-linecap: round"/>
   </g>
   <g id="patch_13">
    <path d="M 249.44128 343.309168 
Q 240.78349 345.037707 232.125701 346.766245 
" style="fill: none; opacity: 0.5; stroke: #808080; stroke-width: 0.5; stroke-linecap: round"/>
   </g>
   <g id="patch_14">
    <path d="M 256.93937 352.031629 
Q 250.929966 350.427312 244.920562 348.822994 
" style="fill: none; opacity: 0.5; stroke: #808080; stroke-width: 0.5; stroke-linecap: round"/>
   </g>
   <g id="patch_15">
    <path d="M 182.61968 363.874407 
Q 172.634426 363.009006 162.649173 362.143605 
" style="fill: none; opacity: 0.5; stroke: #808080; stroke-width: 0.5; stroke-linecap: round"/>
   </g>
   <g id="patch_16">
    <path d="M 313.937373 312.324823 
Q 308.714709 312.324823 303.492046 312.324823 
" style="fill: none; opacity: 0.5; stroke: #808080; stroke-width: 0.5; stroke-linecap: round"/>
   </g>
   <g id="patch_17">
    <path d="M 185.455742 356.189212 
Q 179.203962 357.923204 172.952181 359.657197 
" style="fill: none; opacity: 0.5; stroke: #808080; stroke-width: 0.5; stroke-linecap: round"/>
   </g>
   <g id="patch_18">
    <path d="M 125.761064 210.859442 
Q 118.681745 210.55883 111.602425 210.258218 
" style="fill: none; opacity: 0.5; stroke: #808080; stroke-width: 0.5; stroke-linecap: round"/>
   </g>
   <g id="text_15">
    <!-- Sport Investment Efficiency Matrix -->
    <g style="fill: #262626" transform="translate(286.759844 15.935625) scale(0.12 -0.12)">
     <defs>
      <path id="ArialMT-49" d="M 597 0 
L 597 4581 
L 1203 4581 
L 1203 0 
L 597 0 
z
" transform="scale(0.015625)"/>
      <path id="ArialMT-76" d="M 1344 0 
L 81 3319 
L 675 3319 
L 1388 1331 
Q 1503 1009 1600 663 
Q 1675 925 1809 1294 
L 2547 3319 
L 3125 3319 
L 1869 0 
L 1344 0 
z
" transform="scale(0.015625)"/>
      <path id="ArialMT-45" d="M 506 0 
L 506 4581 
L 3819 4581 
L 3819 4041 
L 1113 4041 
L 1113 2638 
L 3647 2638 
L 3647 2100 
L 1113 2100 
L 1113 541 
L 3925 541 
L 3925 0 
L 506 0 
z
" transform="scale(0.015625)"/>
      <path id="ArialMT-66" d="M 556 0 
L 556 2881 
L 59 2881 
L 59 3319 
L 556 3319 
L 556 3672 
Q 556 4006 616 4169 
Q 697 4388 901 4523 
Q 1106 4659 1475 4659 
Q 1713 4659 2000 4603 
L 1916 4113 
Q 1741 4144 1584 4144 
Q 1328 4144 1222 4034 
Q 1116 3925 1116 3625 
L 1116 3319 
L 1763 3319 
L 1763 2881 
L 1116 2881 
L 1116 0 
L 556 0 
z
" transform="scale(0.015625)"/>
      <path id="ArialMT-78" d="M 47 0 
L 1259 1725 
L 138 3319 
L 841 3319 
L 1350 2541 
Q 1494 2319 1581 2169 
Q 1719 2375 1834 2534 
L 2394 3319 
L 3066 3319 
L 1919 1756 
L 3153 0 
L 2463 0 
L 1781 1031 
L 1600 1309 
L 728 0 
L 47 0 
z
" transform="scale(0.015625)"/>
     </defs>
     <use xlink:href="#ArialMT-53"/>
     <use xlink:href="#ArialMT-70" x="66.699219"/>
     <use xlink:href="#ArialMT-6f" x="122.314453"/>
     <use xlink:href="#ArialMT-72" x="177.929688"/>
     <use xlink:href="#ArialMT-74" x="211.230469"/>
     <use xlink:href="#ArialMT-20" x="239.013672"/>
     <use xlink:href="#ArialMT-49" x="266.796875"/>
     <use xlink:href="#ArialMT-6e" x="294.580078"/>
     <use xlink:href="#ArialMT-76" x="350.195312"/>
     <use xlink:href="#ArialMT-65" x="400.195312"/>
     <use xlink:href="#ArialMT-73" x="455.810547"/>
     <use xlink:href="#ArialMT-74" x="505.810547"/>
     <use xlink:href="#ArialMT-6d" x="533.59375"/>
     <use xlink:href="#ArialMT-65" x="616.894531"/>
     <use xlink:href="#ArialMT-6e" x="672.509766"/>
     <use xlink:href="#ArialMT-74" x="728.125"/>
     <use xlink:href="#ArialMT-20" x="755.908203"/>
     <use xlink:href="#ArialMT-45" x="783.691406"/>
     <use xlink:href="#ArialMT-66" x="850.390625"/>
     <use xlink:href="#ArialMT-66" x="876.423828"/>
     <use xlink:href="#ArialMT-69" x="904.207031"/>
     <use xlink:href="#ArialMT-63" x="926.423828"/>
     <use xlink:href="#ArialMT-69" x="976.423828"/>
     <use xlink:href="#ArialMT-65" x="998.640625"/>
     <use xlink:href="#ArialMT-6e" x="1054.255859"/>
     <use xlink:href="#ArialMT-63" x="1109.871094"/>
     <use xlink:href="#ArialMT-79" x="1159.871094"/>
     <use xlink:href="#ArialMT-20" x="1209.871094"/>
     <use xlink:href="#ArialMT-4d" x="1237.654297"/>
     <use xlink:href="#ArialMT-61" x="1320.955078"/>
     <use xlink:href="#ArialMT-74" x="1376.570312"/>
     <use xlink:href="#ArialMT-72" x="1404.353516"/>
     <use xlink:href="#ArialMT-69" x="1437.654297"/>
     <use xlink:href="#ArialMT-78" x="1459.871094"/>
    </g>
   </g>
   <g id="text_16">
    <!-- Archery -->
    <g style="fill: #262626; opacity: 0.9" transform="translate(380.424439 359.113228) scale(0.07 -0.07)">
     <defs>
      <path id="ArialMT-41" d="M -9 0 
L 1750 4581 
L 2403 4581 
L 4278 0 
L 3588 0 
L 3053 1388 
L 1138 1388 
L 634 0 
L -9 0 
z
M 1313 1881 
L 2866 1881 
L 2388 3150 
Q 2169 3728 2063 4100 
Q 1975 3659 1816 3225 
L 1313 1881 
z
" transform="scale(0.015625)"/>
     </defs>
     <use xlink:href="#ArialMT-41"/>
     <use xlink:href="#ArialMT-72" x="66.699219"/>
     <use xlink:href="#ArialMT-63" x="100"/>
     <use xlink:href="#ArialMT-68" x="150"/>
     <use xlink:href="#ArialMT-65" x="205.615234"/>
     <use xlink:href="#ArialMT-72" x="261.230469"/>
     <use xlink:href="#ArialMT-79" x="294.53125"/>
    </g>
   </g>
   <g id="text_17">
    <!-- Athletics -->
    <g style="fill: #262626; opacity: 0.9" transform="translate(301.436288 215.039307) scale(0.07 -0.07)">
     <use xlink:href="#ArialMT-41"/>
     <use xlink:href="#ArialMT-74" x="66.699219"/>
     <use xlink:href="#ArialMT-68" x="94.482422"/>
     <use xlink:href="#ArialMT-6c" x="150.097656"/>
     <use xlink:href="#ArialMT-65" x="172.314453"/>
     <use xlink:href="#ArialMT-74" x="227.929688"/>
     <use xlink:href="#ArialMT-69" x="255.712891"/>
     <use xlink:href="#ArialMT-63" x="277.929688"/>
     <use xlink:href="#ArialMT-73" x="327.929688"/>
    </g>
   </g>
   <g id="text_18">
    <!-- Baseball -->
    <g style="fill: #262626; opacity: 0.9" transform="translate(648.153761 360.503591) scale(0.07 -0.07)">
     <defs>
      <path id="ArialMT-42" d="M 469 0 
L 469 4581 
L 2188 4581 
Q 2713 4581 3030 4442 
Q 3347 4303 3526 4014 
Q 3706 3725 3706 3409 
Q 3706 3116 3547 2856 
Q 3388 2597 3066 2438 
Q 3481 2316 3704 2022 
Q 3928 1728 3928 1328 
Q 3928 1006 3792 729 
Q 3656 453 3456 303 
Q 3256 153 2954 76 
Q 2653 0 2216 0 
L 469 0 
z
M 1075 2656 
L 2066 2656 
Q 2469 2656 2644 2709 
Q 2875 2778 2992 2937 
Q 3109 3097 3109 3338 
Q 3109 3566 3000 3739 
Q 2891 3913 2687 3977 
Q 2484 4041 1991 4041 
L 1075 4041 
L 1075 2656 
z
M 1075 541 
L 2216 541 
Q 2509 541 2628 563 
Q 2838 600 2978 687 
Q 3119 775 3209 942 
Q 3300 1109 3300 1328 
Q 3300 1584 3169 1773 
Q 3038 1963 2805 2039 
Q 2572 2116 2134 2116 
L 1075 2116 
L 1075 541 
z
" transform="scale(0.015625)"/>
      <path id="ArialMT-62" d="M 941 0 
L 419 0 
L 419 4581 
L 981 4581 
L 981 2947 
Q 1338 3394 1891 3394 
Q 2197 3394 2470 3270 
Q 2744 3147 2920 2923 
Q 3097 2700 3197 2384 
Q 3297 2069 3297 1709 
Q 3297 856 2875 390 
Q 2453 -75 1863 -75 
Q 1275 -75 941 416 
L 941 0 
z
M 934 1684 
Q 934 1088 1097 822 
Q 1363 388 1816 388 
Q 2184 388 2453 708 
Q 2722 1028 2722 1663 
Q 2722 2313 2464 2622 
Q 2206 2931 1841 2931 
Q 1472 2931 1203 2611 
Q 934 2291 934 1684 
z
" transform="scale(0.015625)"/>
     </defs>
     <use xlink:href="#ArialMT-42"/>
     <use xlink:href="#ArialMT-61" x="66.699219"/>
     <use xlink:href="#ArialMT-73" x="122.314453"/>
     <use xlink:href="#ArialMT-65" x="172.314453"/>
     <use xlink:href="#ArialMT-62" x="227.929688"/>
     <use xlink:href="#ArialMT-61" x="283.544922"/>
     <use xlink:href="#ArialMT-6c" x="339.160156"/>
     <use xlink:href="#ArialMT-6c" x="361.376953"/>
    </g>
   </g>
   <g id="text_19">
    <!-- Basketball -->
    <g style="fill: #262626; opacity: 0.9" transform="translate(411.302 360.889118) scale(0.07 -0.07)">
     <defs>
      <path id="ArialMT-6b" d="M 425 0 
L 425 4581 
L 988 4581 
L 988 1969 
L 2319 3319 
L 3047 3319 
L 1778 2088 
L 3175 0 
L 2481 0 
L 1384 1697 
L 988 1316 
L 988 0 
L 425 0 
z
" transform="scale(0.015625)"/>
     </defs>
     <use xlink:href="#ArialMT-42"/>
     <use xlink:href="#ArialMT-61" x="66.699219"/>
     <use xlink:href="#ArialMT-73" x="122.314453"/>
     <use xlink:href="#ArialMT-6b" x="172.314453"/>
     <use xlink:href="#ArialMT-65" x="222.314453"/>
     <use xlink:href="#ArialMT-74" x="277.929688"/>
     <use xlink:href="#ArialMT-62" x="305.712891"/>
     <use xlink:href="#ArialMT-61" x="361.328125"/>
     <use xlink:href="#ArialMT-6c" x="416.943359"/>
     <use xlink:href="#ArialMT-6c" x="439.160156"/>
    </g>
   </g>
   <g id="text_20">
    <!-- Boxing -->
    <g style="fill: #262626; opacity: 0.9" transform="translate(121.083517 36.619393) scale(0.07 -0.07)">
     <use xlink:href="#ArialMT-42"/>
     <use xlink:href="#ArialMT-6f" x="66.699219"/>
     <use xlink:href="#ArialMT-78" x="122.314453"/>
     <use xlink:href="#ArialMT-69" x="172.314453"/>
     <use xlink:href="#ArialMT-6e" x="194.53125"/>
     <use xlink:href="#ArialMT-67" x="250.146484"/>
    </g>
   </g>
   <g id="text_21">
    <!-- Canoeing -->
    <g style="fill: #262626; opacity: 0.9" transform="translate(236.420827 344.728537) scale(0.07 -0.07)">
     <use xlink:href="#ArialMT-43"/>
     <use xlink:href="#ArialMT-61" x="72.216797"/>
     <use xlink:href="#ArialMT-6e" x="127.832031"/>
     <use xlink:href="#ArialMT-6f" x="183.447266"/>
     <use xlink:href="#ArialMT-65" x="239.0625"/>
     <use xlink:href="#ArialMT-69" x="294.677734"/>
     <use xlink:href="#ArialMT-6e" x="316.894531"/>
     <use xlink:href="#ArialMT-67" x="372.509766"/>
    </g>
   </g>
   <g id="text_22">
    <!-- Cycling -->
    <g style="fill: #262626; opacity: 0.9" transform="translate(247.398963 354.35952) scale(0.07 -0.07)">
     <use xlink:href="#ArialMT-43"/>
     <use xlink:href="#ArialMT-79" x="72.216797"/>
     <use xlink:href="#ArialMT-63" x="122.216797"/>
     <use xlink:href="#ArialMT-6c" x="172.216797"/>
     <use xlink:href="#ArialMT-69" x="194.433594"/>
     <use xlink:href="#ArialMT-6e" x="216.650391"/>
     <use xlink:href="#ArialMT-67" x="272.265625"/>
    </g>
   </g>
   <g id="text_23">
    <!-- Diving -->
    <g style="fill: #262626; opacity: 0.9" transform="translate(509.578504 325.87941) scale(0.07 -0.07)">
     <defs>
      <path id="ArialMT-44" d="M 494 0 
L 494 4581 
L 2072 4581 
Q 2606 4581 2888 4516 
Q 3281 4425 3559 4188 
Q 3922 3881 4101 3404 
Q 4281 2928 4281 2316 
Q 4281 1794 4159 1391 
Q 4038 988 3847 723 
Q 3656 459 3429 307 
Q 3203 156 2883 78 
Q 2563 0 2147 0 
L 494 0 
z
M 1100 541 
L 2078 541 
Q 2531 541 2789 625 
Q 3047 709 3200 863 
Q 3416 1078 3536 1442 
Q 3656 1806 3656 2325 
Q 3656 3044 3420 3430 
Q 3184 3816 2847 3947 
Q 2603 4041 2063 4041 
L 1100 4041 
L 1100 541 
z
" transform="scale(0.015625)"/>
     </defs>
     <use xlink:href="#ArialMT-44"/>
     <use xlink:href="#ArialMT-69" x="72.216797"/>
     <use xlink:href="#ArialMT-76" x="94.433594"/>
     <use xlink:href="#ArialMT-69" x="144.433594"/>
     <use xlink:href="#ArialMT-6e" x="166.650391"/>
     <use xlink:href="#ArialMT-67" x="222.265625"/>
    </g>
   </g>
   <g id="text_24">
    <!-- Equestrianism -->
    <g style="fill: #262626; opacity: 0.9" transform="translate(260.7089 335.903378) scale(0.07 -0.07)">
     <defs>
      <path id="ArialMT-71" d="M 2538 -1272 
L 2538 353 
Q 2406 169 2170 47 
Q 1934 -75 1669 -75 
Q 1078 -75 651 397 
Q 225 869 225 1691 
Q 225 2191 398 2587 
Q 572 2984 901 3189 
Q 1231 3394 1625 3394 
Q 2241 3394 2594 2875 
L 2594 3319 
L 3100 3319 
L 3100 -1272 
L 2538 -1272 
z
M 803 1669 
Q 803 1028 1072 708 
Q 1341 388 1716 388 
Q 2075 388 2334 692 
Q 2594 997 2594 1619 
Q 2594 2281 2320 2615 
Q 2047 2950 1678 2950 
Q 1313 2950 1058 2639 
Q 803 2328 803 1669 
z
" transform="scale(0.015625)"/>
     </defs>
     <use xlink:href="#ArialMT-45"/>
     <use xlink:href="#ArialMT-71" x="66.699219"/>
     <use xlink:href="#ArialMT-75" x="122.314453"/>
     <use xlink:href="#ArialMT-65" x="177.929688"/>
     <use xlink:href="#ArialMT-73" x="233.544922"/>
     <use xlink:href="#ArialMT-74" x="283.544922"/>
     <use xlink:href="#ArialMT-72" x="311.328125"/>
     <use xlink:href="#ArialMT-69" x="344.628906"/>
     <use xlink:href="#ArialMT-61" x="366.845703"/>
     <use xlink:href="#ArialMT-6e" x="422.460938"/>
     <use xlink:href="#ArialMT-69" x="478.076172"/>
     <use xlink:href="#ArialMT-73" x="500.292969"/>
     <use xlink:href="#ArialMT-6d" x="550.292969"/>
    </g>
   </g>
   <g id="text_25">
    <!-- Fencing -->
    <g style="fill: #262626; opacity: 0.9" transform="translate(407.848578 324.834315) scale(0.07 -0.07)">
     <defs>
      <path id="ArialMT-46" d="M 525 0 
L 525 4581 
L 3616 4581 
L 3616 4041 
L 1131 4041 
L 1131 2622 
L 3281 2622 
L 3281 2081 
L 1131 2081 
L 1131 0 
L 525 0 
z
" transform="scale(0.015625)"/>
     </defs>
     <use xlink:href="#ArialMT-46"/>
     <use xlink:href="#ArialMT-65" x="61.083984"/>
     <use xlink:href="#ArialMT-6e" x="116.699219"/>
     <use xlink:href="#ArialMT-63" x="172.314453"/>
     <use xlink:href="#ArialMT-69" x="222.314453"/>
     <use xlink:href="#ArialMT-6e" x="244.53125"/>
     <use xlink:href="#ArialMT-67" x="300.146484"/>
    </g>
   </g>
   <g id="text_26">
    <!-- Football -->
    <g style="fill: #262626; opacity: 0.9" transform="translate(117.217914 186.37156) scale(0.07 -0.07)">
     <use xlink:href="#ArialMT-46"/>
     <use xlink:href="#ArialMT-6f" x="61.083984"/>
     <use xlink:href="#ArialMT-6f" x="116.699219"/>
     <use xlink:href="#ArialMT-74" x="172.314453"/>
     <use xlink:href="#ArialMT-62" x="200.097656"/>
     <use xlink:href="#ArialMT-61" x="255.712891"/>
     <use xlink:href="#ArialMT-6c" x="311.328125"/>
     <use xlink:href="#ArialMT-6c" x="333.544922"/>
    </g>
   </g>
   <g id="text_27">
    <!-- Gymnastics -->
    <g style="fill: #262626; opacity: 0.9" transform="translate(166.33056 365.858236) scale(0.07 -0.07)">
     <defs>
      <path id="ArialMT-47" d="M 2638 1797 
L 2638 2334 
L 4578 2338 
L 4578 638 
Q 4131 281 3656 101 
Q 3181 -78 2681 -78 
Q 2006 -78 1454 211 
Q 903 500 622 1047 
Q 341 1594 341 2269 
Q 341 2938 620 3517 
Q 900 4097 1425 4378 
Q 1950 4659 2634 4659 
Q 3131 4659 3532 4498 
Q 3934 4338 4162 4050 
Q 4391 3763 4509 3300 
L 3963 3150 
Q 3859 3500 3706 3700 
Q 3553 3900 3268 4020 
Q 2984 4141 2638 4141 
Q 2222 4141 1919 4014 
Q 1616 3888 1430 3681 
Q 1244 3475 1141 3228 
Q 966 2803 966 2306 
Q 966 1694 1177 1281 
Q 1388 869 1791 669 
Q 2194 469 2647 469 
Q 3041 469 3416 620 
Q 3791 772 3984 944 
L 3984 1797 
L 2638 1797 
z
" transform="scale(0.015625)"/>
     </defs>
     <use xlink:href="#ArialMT-47"/>
     <use xlink:href="#ArialMT-79" x="77.783203"/>
     <use xlink:href="#ArialMT-6d" x="127.783203"/>
     <use xlink:href="#ArialMT-6e" x="211.083984"/>
     <use xlink:href="#ArialMT-61" x="266.699219"/>
     <use xlink:href="#ArialMT-73" x="322.314453"/>
     <use xlink:href="#ArialMT-74" x="372.314453"/>
     <use xlink:href="#ArialMT-69" x="400.097656"/>
     <use xlink:href="#ArialMT-63" x="422.314453"/>
     <use xlink:href="#ArialMT-73" x="472.314453"/>
    </g>
   </g>
   <g id="text_28">
    <!-- Handball -->
    <g style="fill: #262626; opacity: 0.9" transform="translate(153.018697 231.341339) scale(0.07 -0.07)">
     <use xlink:href="#ArialMT-48"/>
     <use xlink:href="#ArialMT-61" x="72.216797"/>
     <use xlink:href="#ArialMT-6e" x="127.832031"/>
     <use xlink:href="#ArialMT-64" x="183.447266"/>
     <use xlink:href="#ArialMT-62" x="239.0625"/>
     <use xlink:href="#ArialMT-61" x="294.677734"/>
     <use xlink:href="#ArialMT-6c" x="350.292969"/>
     <use xlink:href="#ArialMT-6c" x="372.509766"/>
    </g>
   </g>
   <g id="text_29">
    <!-- Hockey -->
    <g style="fill: #262626; opacity: 0.9" transform="translate(304.267078 314.093416) scale(0.07 -0.07)">
     <use xlink:href="#ArialMT-48"/>
     <use xlink:href="#ArialMT-6f" x="72.216797"/>
     <use xlink:href="#ArialMT-63" x="127.832031"/>
     <use xlink:href="#ArialMT-6b" x="177.832031"/>
     <use xlink:href="#ArialMT-65" x="227.832031"/>
     <use xlink:href="#ArialMT-79" x="283.447266"/>
    </g>
   </g>
   <g id="text_30">
    <!-- Judo -->
    <g style="fill: #262626; opacity: 0.9" transform="translate(254.105573 246.067255) scale(0.07 -0.07)">
     <defs>
      <path id="ArialMT-4a" d="M 184 1300 
L 731 1375 
Q 753 850 928 656 
Q 1103 463 1413 463 
Q 1641 463 1806 567 
Q 1972 672 2034 851 
Q 2097 1031 2097 1425 
L 2097 4581 
L 2703 4581 
L 2703 1459 
Q 2703 884 2564 568 
Q 2425 253 2123 87 
Q 1822 -78 1416 -78 
Q 813 -78 492 269 
Q 172 616 184 1300 
z
" transform="scale(0.015625)"/>
     </defs>
     <use xlink:href="#ArialMT-4a"/>
     <use xlink:href="#ArialMT-75" x="50"/>
     <use xlink:href="#ArialMT-64" x="105.615234"/>
     <use xlink:href="#ArialMT-6f" x="161.230469"/>
    </g>
   </g>
   <g id="text_31">
    <!-- Rowing -->
    <g style="fill: #262626; opacity: 0.9" transform="translate(175.712942 357.422736) scale(0.07 -0.07)">
     <defs>
      <path id="ArialMT-52" d="M 503 0 
L 503 4581 
L 2534 4581 
Q 3147 4581 3465 4457 
Q 3784 4334 3975 4021 
Q 4166 3709 4166 3331 
Q 4166 2844 3850 2509 
Q 3534 2175 2875 2084 
Q 3116 1969 3241 1856 
Q 3506 1613 3744 1247 
L 4541 0 
L 3778 0 
L 3172 953 
Q 2906 1366 2734 1584 
Q 2563 1803 2427 1890 
Q 2291 1978 2150 2013 
Q 2047 2034 1813 2034 
L 1109 2034 
L 1109 0 
L 503 0 
z
M 1109 2559 
L 2413 2559 
Q 2828 2559 3062 2645 
Q 3297 2731 3419 2920 
Q 3541 3109 3541 3331 
Q 3541 3656 3305 3865 
Q 3069 4075 2559 4075 
L 1109 4075 
L 1109 2559 
z
" transform="scale(0.015625)"/>
      <path id="ArialMT-77" d="M 1034 0 
L 19 3319 
L 600 3319 
L 1128 1403 
L 1325 691 
Q 1338 744 1497 1375 
L 2025 3319 
L 2603 3319 
L 3100 1394 
L 3266 759 
L 3456 1400 
L 4025 3319 
L 4572 3319 
L 3534 0 
L 2950 0 
L 2422 1988 
L 2294 2553 
L 1622 0 
L 1034 0 
z
" transform="scale(0.015625)"/>
     </defs>
     <use xlink:href="#ArialMT-52"/>
     <use xlink:href="#ArialMT-6f" x="72.216797"/>
     <use xlink:href="#ArialMT-77" x="127.832031"/>
     <use xlink:href="#ArialMT-69" x="200.048828"/>
     <use xlink:href="#ArialMT-6e" x="222.265625"/>
     <use xlink:href="#ArialMT-67" x="277.880859"/>
    </g>
   </g>
   <g id="text_32">
    <!-- Sailing -->
    <g style="fill: #262626; opacity: 0.9" transform="translate(198.497939 329.013488) scale(0.07 -0.07)">
     <use xlink:href="#ArialMT-53"/>
     <use xlink:href="#ArialMT-61" x="66.699219"/>
     <use xlink:href="#ArialMT-69" x="122.314453"/>
     <use xlink:href="#ArialMT-6c" x="144.53125"/>
     <use xlink:href="#ArialMT-69" x="166.748047"/>
     <use xlink:href="#ArialMT-6e" x="188.964844"/>
     <use xlink:href="#ArialMT-67" x="244.580078"/>
    </g>
   </g>
   <g id="text_33">
    <!-- Shooting -->
    <g style="fill: #262626; opacity: 0.9" transform="translate(206.936815 244.25299) scale(0.07 -0.07)">
     <use xlink:href="#ArialMT-53"/>
     <use xlink:href="#ArialMT-68" x="66.699219"/>
     <use xlink:href="#ArialMT-6f" x="122.314453"/>
     <use xlink:href="#ArialMT-6f" x="177.929688"/>
     <use xlink:href="#ArialMT-74" x="233.544922"/>
     <use xlink:href="#ArialMT-69" x="261.328125"/>
     <use xlink:href="#ArialMT-6e" x="283.544922"/>
     <use xlink:href="#ArialMT-67" x="339.160156"/>
    </g>
   </g>
   <g id="text_34">
    <!-- Swimming -->
    <g style="fill: #262626; opacity: 0.9" transform="translate(442.645545 318.676381) scale(0.07 -0.07)">
     <use xlink:href="#ArialMT-53"/>
     <use xlink:href="#ArialMT-77" x="66.699219"/>
     <use xlink:href="#ArialMT-69" x="138.916016"/>
     <use xlink:href="#ArialMT-6d" x="161.132812"/>
     <use xlink:href="#ArialMT-6d" x="244.433594"/>
     <use xlink:href="#ArialMT-69" x="327.734375"/>
     <use xlink:href="#ArialMT-6e" x="349.951172"/>
     <use xlink:href="#ArialMT-67" x="405.566406"/>
    </g>
   </g>
   <g id="text_35">
    <!-- Tennis -->
    <g style="fill: #262626; opacity: 0.9" transform="translate(332.603833 241.898784) scale(0.07 -0.07)">
     <use xlink:href="#ArialMT-54"/>
     <use xlink:href="#ArialMT-65" x="49.958984"/>
     <use xlink:href="#ArialMT-6e" x="105.574219"/>
     <use xlink:href="#ArialMT-6e" x="161.189453"/>
     <use xlink:href="#ArialMT-69" x="216.804688"/>
     <use xlink:href="#ArialMT-73" x="239.021484"/>
    </g>
   </g>
   <g id="text_36">
    <!-- Volleyball -->
    <g style="fill: #262626; opacity: 0.9" transform="translate(284.873938 297.811538) scale(0.07 -0.07)">
     <defs>
      <path id="ArialMT-56" d="M 1803 0 
L 28 4581 
L 684 4581 
L 1875 1253 
Q 2019 853 2116 503 
Q 2222 878 2363 1253 
L 3600 4581 
L 4219 4581 
L 2425 0 
L 1803 0 
z
" transform="scale(0.015625)"/>
     </defs>
     <use xlink:href="#ArialMT-56"/>
     <use xlink:href="#ArialMT-6f" x="61.199219"/>
     <use xlink:href="#ArialMT-6c" x="116.814453"/>
     <use xlink:href="#ArialMT-6c" x="139.03125"/>
     <use xlink:href="#ArialMT-65" x="161.248047"/>
     <use xlink:href="#ArialMT-79" x="216.863281"/>
     <use xlink:href="#ArialMT-62" x="266.863281"/>
     <use xlink:href="#ArialMT-61" x="322.478516"/>
     <use xlink:href="#ArialMT-6c" x="378.09375"/>
     <use xlink:href="#ArialMT-6c" x="400.310547"/>
    </g>
   </g>
   <g id="text_37">
    <!-- Water Polo -->
    <g style="fill: #262626; opacity: 0.9" transform="translate(297.200115 360.118063) scale(0.07 -0.07)">
     <defs>
      <path id="ArialMT-57" d="M 1294 0 
L 78 4581 
L 700 4581 
L 1397 1578 
Q 1509 1106 1591 641 
Q 1766 1375 1797 1488 
L 2669 4581 
L 3400 4581 
L 4056 2263 
Q 4303 1400 4413 641 
Q 4500 1075 4641 1638 
L 5359 4581 
L 5969 4581 
L 4713 0 
L 4128 0 
L 3163 3491 
Q 3041 3928 3019 4028 
Q 2947 3713 2884 3491 
L 1913 0 
L 1294 0 
z
" transform="scale(0.015625)"/>
      <path id="ArialMT-50" d="M 494 0 
L 494 4581 
L 2222 4581 
Q 2678 4581 2919 4538 
Q 3256 4481 3484 4323 
Q 3713 4166 3852 3881 
Q 3991 3597 3991 3256 
Q 3991 2672 3619 2267 
Q 3247 1863 2275 1863 
L 1100 1863 
L 1100 0 
L 494 0 
z
M 1100 2403 
L 2284 2403 
Q 2872 2403 3119 2622 
Q 3366 2841 3366 3238 
Q 3366 3525 3220 3729 
Q 3075 3934 2838 4000 
Q 2684 4041 2272 4041 
L 1100 4041 
L 1100 2403 
z
" transform="scale(0.015625)"/>
     </defs>
     <use xlink:href="#ArialMT-57"/>
     <use xlink:href="#ArialMT-61" x="90.634766"/>
     <use xlink:href="#ArialMT-74" x="146.25"/>
     <use xlink:href="#ArialMT-65" x="174.033203"/>
     <use xlink:href="#ArialMT-72" x="229.648438"/>
     <use xlink:href="#ArialMT-20" x="262.949219"/>
     <use xlink:href="#ArialMT-50" x="290.732422"/>
     <use xlink:href="#ArialMT-6f" x="357.431641"/>
     <use xlink:href="#ArialMT-6c" x="413.046875"/>
     <use xlink:href="#ArialMT-6f" x="435.263672"/>
    </g>
   </g>
   <g id="text_38">
    <!-- Weightlifting -->
    <g style="fill: #262626; opacity: 0.9" transform="translate(121.64158 111.759917) scale(0.07 -0.07)">
     <use xlink:href="#ArialMT-57"/>
     <use xlink:href="#ArialMT-65" x="92.634766"/>
     <use xlink:href="#ArialMT-69" x="148.25"/>
     <use xlink:href="#ArialMT-67" x="170.466797"/>
     <use xlink:href="#ArialMT-68" x="226.082031"/>
     <use xlink:href="#ArialMT-74" x="281.697266"/>
     <use xlink:href="#ArialMT-6c" x="309.480469"/>
     <use xlink:href="#ArialMT-69" x="331.697266"/>
     <use xlink:href="#ArialMT-66" x="353.914062"/>
     <use xlink:href="#ArialMT-74" x="381.697266"/>
     <use xlink:href="#ArialMT-69" x="409.480469"/>
     <use xlink:href="#ArialMT-6e" x="431.697266"/>
     <use xlink:href="#ArialMT-67" x="487.3125"/>
    </g>
   </g>
   <g id="text_39">
    <!-- Wrestling -->
    <g style="fill: #262626; opacity: 0.9" transform="translate(113.235953 212.712935) scale(0.07 -0.07)">
     <use xlink:href="#ArialMT-57"/>
     <use xlink:href="#ArialMT-72" x="92.634766"/>
     <use xlink:href="#ArialMT-65" x="125.935547"/>
     <use xlink:href="#ArialMT-73" x="181.550781"/>
     <use xlink:href="#ArialMT-74" x="231.550781"/>
     <use xlink:href="#ArialMT-6c" x="259.333984"/>
     <use xlink:href="#ArialMT-69" x="281.550781"/>
     <use xlink:href="#ArialMT-6e" x="303.767578"/>
     <use xlink:href="#ArialMT-67" x="359.382812"/>
    </g>
   </g>
   <g id="text_40">
    <!-- Blue Ocean -->
    <g style="fill: #1e8449" transform="translate(104.899928 57.139322) scale(0.09 -0.09)">
     <defs>
      <path id="Arial-BoldMT-42" d="M 469 4581 
L 2300 4581 
Q 2844 4581 3111 4536 
Q 3378 4491 3589 4347 
Q 3800 4203 3940 3964 
Q 4081 3725 4081 3428 
Q 4081 3106 3907 2837 
Q 3734 2569 3438 2434 
Q 3856 2313 4081 2019 
Q 4306 1725 4306 1328 
Q 4306 1016 4161 720 
Q 4016 425 3764 248 
Q 3513 72 3144 31 
Q 2913 6 2028 0 
L 469 0 
L 469 4581 
z
M 1394 3819 
L 1394 2759 
L 2000 2759 
Q 2541 2759 2672 2775 
Q 2909 2803 3045 2939 
Q 3181 3075 3181 3297 
Q 3181 3509 3064 3642 
Q 2947 3775 2716 3803 
Q 2578 3819 1925 3819 
L 1394 3819 
z
M 1394 1997 
L 1394 772 
L 2250 772 
Q 2750 772 2884 800 
Q 3091 838 3220 983 
Q 3350 1128 3350 1372 
Q 3350 1578 3250 1722 
Q 3150 1866 2961 1931 
Q 2772 1997 2141 1997 
L 1394 1997 
z
" transform="scale(0.015625)"/>
      <path id="Arial-BoldMT-6c" d="M 459 0 
L 459 4581 
L 1338 4581 
L 1338 0 
L 459 0 
z
" transform="scale(0.015625)"/>
      <path id="Arial-BoldMT-75" d="M 2644 0 
L 2644 497 
Q 2463 231 2167 78 
Q 1872 -75 1544 -75 
Q 1209 -75 943 72 
Q 678 219 559 484 
Q 441 750 441 1219 
L 441 3319 
L 1319 3319 
L 1319 1794 
Q 1319 1094 1367 936 
Q 1416 778 1544 686 
Q 1672 594 1869 594 
Q 2094 594 2272 717 
Q 2450 841 2515 1023 
Q 2581 1206 2581 1919 
L 2581 3319 
L 3459 3319 
L 3459 0 
L 2644 0 
z
" transform="scale(0.015625)"/>
      <path id="Arial-BoldMT-65" d="M 2381 1056 
L 3256 909 
Q 3088 428 2723 176 
Q 2359 -75 1813 -75 
Q 947 -75 531 491 
Q 203 944 203 1634 
Q 203 2459 634 2926 
Q 1066 3394 1725 3394 
Q 2466 3394 2894 2905 
Q 3322 2416 3303 1406 
L 1103 1406 
Q 1113 1016 1316 798 
Q 1519 581 1822 581 
Q 2028 581 2168 693 
Q 2309 806 2381 1056 
z
M 2431 1944 
Q 2422 2325 2234 2523 
Q 2047 2722 1778 2722 
Q 1491 2722 1303 2513 
Q 1116 2303 1119 1944 
L 2431 1944 
z
" transform="scale(0.015625)"/>
      <path id="Arial-BoldMT-20" transform="scale(0.015625)"/>
      <path id="Arial-BoldMT-4f" d="M 278 2263 
Q 278 2963 488 3438 
Q 644 3788 914 4066 
Q 1184 4344 1506 4478 
Q 1934 4659 2494 4659 
Q 3506 4659 4114 4031 
Q 4722 3403 4722 2284 
Q 4722 1175 4119 548 
Q 3516 -78 2506 -78 
Q 1484 -78 881 545 
Q 278 1169 278 2263 
z
M 1231 2294 
Q 1231 1516 1590 1114 
Q 1950 713 2503 713 
Q 3056 713 3411 1111 
Q 3766 1509 3766 2306 
Q 3766 3094 3420 3481 
Q 3075 3869 2503 3869 
Q 1931 3869 1581 3476 
Q 1231 3084 1231 2294 
z
" transform="scale(0.015625)"/>
      <path id="Arial-BoldMT-63" d="M 3353 2338 
L 2488 2181 
Q 2444 2441 2289 2572 
Q 2134 2703 1888 2703 
Q 1559 2703 1364 2476 
Q 1169 2250 1169 1719 
Q 1169 1128 1367 884 
Q 1566 641 1900 641 
Q 2150 641 2309 783 
Q 2469 925 2534 1272 
L 3397 1125 
Q 3263 531 2881 228 
Q 2500 -75 1859 -75 
Q 1131 -75 698 384 
Q 266 844 266 1656 
Q 266 2478 700 2936 
Q 1134 3394 1875 3394 
Q 2481 3394 2839 3133 
Q 3197 2872 3353 2338 
z
" transform="scale(0.015625)"/>
      <path id="Arial-BoldMT-61" d="M 1116 2306 
L 319 2450 
Q 453 2931 781 3162 
Q 1109 3394 1756 3394 
Q 2344 3394 2631 3255 
Q 2919 3116 3036 2902 
Q 3153 2688 3153 2116 
L 3144 1091 
Q 3144 653 3186 445 
Q 3228 238 3344 0 
L 2475 0 
Q 2441 88 2391 259 
Q 2369 338 2359 363 
Q 2134 144 1878 34 
Q 1622 -75 1331 -75 
Q 819 -75 523 203 
Q 228 481 228 906 
Q 228 1188 362 1408 
Q 497 1628 739 1745 
Q 981 1863 1438 1950 
Q 2053 2066 2291 2166 
L 2291 2253 
Q 2291 2506 2166 2614 
Q 2041 2722 1694 2722 
Q 1459 2722 1328 2630 
Q 1197 2538 1116 2306 
z
M 2291 1594 
Q 2122 1538 1756 1459 
Q 1391 1381 1278 1306 
Q 1106 1184 1106 997 
Q 1106 813 1243 678 
Q 1381 544 1594 544 
Q 1831 544 2047 700 
Q 2206 819 2256 991 
Q 2291 1103 2291 1419 
L 2291 1594 
z
" transform="scale(0.015625)"/>
      <path id="Arial-BoldMT-6e" d="M 3478 0 
L 2600 0 
L 2600 1694 
Q 2600 2231 2544 2389 
Q 2488 2547 2361 2634 
Q 2234 2722 2056 2722 
Q 1828 2722 1647 2597 
Q 1466 2472 1398 2265 
Q 1331 2059 1331 1503 
L 1331 0 
L 453 0 
L 453 3319 
L 1269 3319 
L 1269 2831 
Q 1703 3394 2363 3394 
Q 2653 3394 2893 3289 
Q 3134 3184 3257 3021 
Q 3381 2859 3429 2653 
Q 3478 2447 3478 2063 
L 3478 0 
z
" transform="scale(0.015625)"/>
     </defs>
     <use xlink:href="#Arial-BoldMT-42"/>
     <use xlink:href="#Arial-BoldMT-6c" x="72.216797"/>
     <use xlink:href="#Arial-BoldMT-75" x="100"/>
     <use xlink:href="#Arial-BoldMT-65" x="161.083984"/>
     <use xlink:href="#Arial-BoldMT-20" x="216.699219"/>
     <use xlink:href="#Arial-BoldMT-4f" x="244.482422"/>
     <use xlink:href="#Arial-BoldMT-63" x="322.265625"/>
     <use xlink:href="#Arial-BoldMT-65" x="377.880859"/>
     <use xlink:href="#Arial-BoldMT-61" x="433.496094"/>
     <use xlink:href="#Arial-BoldMT-6e" x="489.111328"/>
    </g>
    <!-- (Low Monopoly, High Opportunity) -->
    <g style="fill: #1e8449" transform="translate(104.899928 66.777478) scale(0.09 -0.09)">
     <defs>
      <path id="Arial-BoldMT-28" d="M 1916 -1347 
L 1313 -1347 
Q 834 -625 584 153 
Q 334 931 334 1659 
Q 334 2563 644 3369 
Q 913 4069 1325 4659 
L 1925 4659 
Q 1497 3713 1336 3048 
Q 1175 2384 1175 1641 
Q 1175 1128 1270 590 
Q 1366 53 1531 -431 
Q 1641 -750 1916 -1347 
z
" transform="scale(0.015625)"/>
      <path id="Arial-BoldMT-4c" d="M 491 0 
L 491 4544 
L 1416 4544 
L 1416 772 
L 3716 772 
L 3716 0 
L 491 0 
z
" transform="scale(0.015625)"/>
      <path id="Arial-BoldMT-6f" d="M 256 1706 
Q 256 2144 472 2553 
Q 688 2963 1083 3178 
Q 1478 3394 1966 3394 
Q 2719 3394 3200 2905 
Q 3681 2416 3681 1669 
Q 3681 916 3195 420 
Q 2709 -75 1972 -75 
Q 1516 -75 1102 131 
Q 688 338 472 736 
Q 256 1134 256 1706 
z
M 1156 1659 
Q 1156 1166 1390 903 
Q 1625 641 1969 641 
Q 2313 641 2545 903 
Q 2778 1166 2778 1666 
Q 2778 2153 2545 2415 
Q 2313 2678 1969 2678 
Q 1625 2678 1390 2415 
Q 1156 2153 1156 1659 
z
" transform="scale(0.015625)"/>
      <path id="Arial-BoldMT-77" d="M 1078 0 
L 28 3319 
L 881 3319 
L 1503 1144 
L 2075 3319 
L 2922 3319 
L 3475 1144 
L 4109 3319 
L 4975 3319 
L 3909 0 
L 3066 0 
L 2494 2134 
L 1931 0 
L 1078 0 
z
" transform="scale(0.015625)"/>
      <path id="Arial-BoldMT-4d" d="M 453 0 
L 453 4581 
L 1838 4581 
L 2669 1456 
L 3491 4581 
L 4878 4581 
L 4878 0 
L 4019 0 
L 4019 3606 
L 3109 0 
L 2219 0 
L 1313 3606 
L 1313 0 
L 453 0 
z
" transform="scale(0.015625)"/>
      <path id="Arial-BoldMT-70" d="M 434 3319 
L 1253 3319 
L 1253 2831 
Q 1413 3081 1684 3237 
Q 1956 3394 2288 3394 
Q 2866 3394 3269 2941 
Q 3672 2488 3672 1678 
Q 3672 847 3265 386 
Q 2859 -75 2281 -75 
Q 2006 -75 1782 34 
Q 1559 144 1313 409 
L 1313 -1263 
L 434 -1263 
L 434 3319 
z
M 1303 1716 
Q 1303 1156 1525 889 
Q 1747 622 2066 622 
Q 2372 622 2575 867 
Q 2778 1113 2778 1672 
Q 2778 2194 2568 2447 
Q 2359 2700 2050 2700 
Q 1728 2700 1515 2451 
Q 1303 2203 1303 1716 
z
" transform="scale(0.015625)"/>
      <path id="Arial-BoldMT-79" d="M 44 3319 
L 978 3319 
L 1772 963 
L 2547 3319 
L 3456 3319 
L 2284 125 
L 2075 -453 
Q 1959 -744 1854 -897 
Q 1750 -1050 1614 -1145 
Q 1478 -1241 1279 -1294 
Q 1081 -1347 831 -1347 
Q 578 -1347 334 -1294 
L 256 -606 
Q 463 -647 628 -647 
Q 934 -647 1081 -467 
Q 1228 -288 1306 -9 
L 44 3319 
z
" transform="scale(0.015625)"/>
      <path id="Arial-BoldMT-2c" d="M 438 878 
L 1316 878 
L 1316 250 
Q 1316 -131 1250 -351 
Q 1184 -572 1001 -747 
Q 819 -922 538 -1022 
L 366 -659 
Q 631 -572 743 -419 
Q 856 -266 863 0 
L 438 0 
L 438 878 
z
" transform="scale(0.015625)"/>
      <path id="Arial-BoldMT-48" d="M 469 0 
L 469 4581 
L 1394 4581 
L 1394 2778 
L 3206 2778 
L 3206 4581 
L 4131 4581 
L 4131 0 
L 3206 0 
L 3206 2003 
L 1394 2003 
L 1394 0 
L 469 0 
z
" transform="scale(0.015625)"/>
      <path id="Arial-BoldMT-69" d="M 459 3769 
L 459 4581 
L 1338 4581 
L 1338 3769 
L 459 3769 
z
M 459 0 
L 459 3319 
L 1338 3319 
L 1338 0 
L 459 0 
z
" transform="scale(0.015625)"/>
      <path id="Arial-BoldMT-67" d="M 378 -219 
L 1381 -341 
Q 1406 -516 1497 -581 
Q 1622 -675 1891 -675 
Q 2234 -675 2406 -572 
Q 2522 -503 2581 -350 
Q 2622 -241 2622 53 
L 2622 538 
Q 2228 0 1628 0 
Q 959 0 569 566 
Q 263 1013 263 1678 
Q 263 2513 664 2953 
Q 1066 3394 1663 3394 
Q 2278 3394 2678 2853 
L 2678 3319 
L 3500 3319 
L 3500 341 
Q 3500 -247 3403 -537 
Q 3306 -828 3131 -993 
Q 2956 -1159 2664 -1253 
Q 2372 -1347 1925 -1347 
Q 1081 -1347 728 -1058 
Q 375 -769 375 -325 
Q 375 -281 378 -219 
z
M 1163 1728 
Q 1163 1200 1367 954 
Q 1572 709 1872 709 
Q 2194 709 2416 961 
Q 2638 1213 2638 1706 
Q 2638 2222 2425 2472 
Q 2213 2722 1888 2722 
Q 1572 2722 1367 2476 
Q 1163 2231 1163 1728 
z
" transform="scale(0.015625)"/>
      <path id="Arial-BoldMT-68" d="M 1334 4581 
L 1334 2897 
Q 1759 3394 2350 3394 
Q 2653 3394 2897 3281 
Q 3141 3169 3264 2994 
Q 3388 2819 3433 2606 
Q 3478 2394 3478 1947 
L 3478 0 
L 2600 0 
L 2600 1753 
Q 2600 2275 2550 2415 
Q 2500 2556 2373 2639 
Q 2247 2722 2056 2722 
Q 1838 2722 1666 2615 
Q 1494 2509 1414 2295 
Q 1334 2081 1334 1663 
L 1334 0 
L 456 0 
L 456 4581 
L 1334 4581 
z
" transform="scale(0.015625)"/>
      <path id="Arial-BoldMT-72" d="M 1300 0 
L 422 0 
L 422 3319 
L 1238 3319 
L 1238 2847 
Q 1447 3181 1614 3287 
Q 1781 3394 1994 3394 
Q 2294 3394 2572 3228 
L 2300 2463 
Q 2078 2606 1888 2606 
Q 1703 2606 1575 2504 
Q 1447 2403 1373 2137 
Q 1300 1872 1300 1025 
L 1300 0 
z
" transform="scale(0.015625)"/>
      <path id="Arial-BoldMT-74" d="M 1981 3319 
L 1981 2619 
L 1381 2619 
L 1381 1281 
Q 1381 875 1398 808 
Q 1416 741 1477 697 
Q 1538 653 1625 653 
Q 1747 653 1978 738 
L 2053 56 
Q 1747 -75 1359 -75 
Q 1122 -75 931 4 
Q 741 84 652 211 
Q 563 338 528 553 
Q 500 706 500 1172 
L 500 2619 
L 97 2619 
L 97 3319 
L 500 3319 
L 500 3978 
L 1381 4491 
L 1381 3319 
L 1981 3319 
z
" transform="scale(0.015625)"/>
      <path id="Arial-BoldMT-29" d="M 216 -1347 
Q 475 -791 581 -494 
Q 688 -197 778 190 
Q 869 578 912 926 
Q 956 1275 956 1641 
Q 956 2384 797 3048 
Q 638 3713 209 4659 
L 806 4659 
Q 1278 3988 1539 3234 
Q 1800 2481 1800 1706 
Q 1800 1053 1594 306 
Q 1359 -531 822 -1347 
L 216 -1347 
z
" transform="scale(0.015625)"/>
     </defs>
     <use xlink:href="#Arial-BoldMT-28"/>
     <use xlink:href="#Arial-BoldMT-4c" x="33.300781"/>
     <use xlink:href="#Arial-BoldMT-6f" x="94.384766"/>
     <use xlink:href="#Arial-BoldMT-77" x="155.46875"/>
     <use xlink:href="#Arial-BoldMT-20" x="233.251953"/>
     <use xlink:href="#Arial-BoldMT-4d" x="261.035156"/>
     <use xlink:href="#Arial-BoldMT-6f" x="344.335938"/>
     <use xlink:href="#Arial-BoldMT-6e" x="405.419922"/>
     <use xlink:href="#Arial-BoldMT-6f" x="466.503906"/>
     <use xlink:href="#Arial-BoldMT-70" x="527.587891"/>
     <use xlink:href="#Arial-BoldMT-6f" x="588.671875"/>
     <use xlink:href="#Arial-BoldMT-6c" x="649.755859"/>
     <use xlink:href="#Arial-BoldMT-79" x="677.539062"/>
     <use xlink:href="#Arial-BoldMT-2c" x="725.779297"/>
     <use xlink:href="#Arial-BoldMT-20" x="753.5625"/>
     <use xlink:href="#Arial-BoldMT-48" x="781.345703"/>
     <use xlink:href="#Arial-BoldMT-69" x="853.5625"/>
     <use xlink:href="#Arial-BoldMT-67" x="881.345703"/>
     <use xlink:href="#Arial-BoldMT-68" x="942.429688"/>
     <use xlink:href="#Arial-BoldMT-20" x="1003.513672"/>
     <use xlink:href="#Arial-BoldMT-4f" x="1031.296875"/>
     <use xlink:href="#Arial-BoldMT-70" x="1109.080078"/>
     <use xlink:href="#Arial-BoldMT-70" x="1170.164062"/>
     <use xlink:href="#Arial-BoldMT-6f" x="1231.248047"/>
     <use xlink:href="#Arial-BoldMT-72" x="1292.332031"/>
     <use xlink:href="#Arial-BoldMT-74" x="1331.248047"/>
     <use xlink:href="#Arial-BoldMT-75" x="1364.548828"/>
     <use xlink:href="#Arial-BoldMT-6e" x="1425.632812"/>
     <use xlink:href="#Arial-BoldMT-69" x="1486.716797"/>
     <use xlink:href="#Arial-BoldMT-74" x="1514.5"/>
     <use xlink:href="#Arial-BoldMT-79" x="1547.800781"/>
     <use xlink:href="#Arial-BoldMT-29" x="1603.416016"/>
    </g>
   </g>
   <g id="text_41">
    <!-- Red Ocean -->
    <g style="fill: #922b21" transform="translate(602.781634 337.869084) scale(0.09 -0.09)">
     <defs>
      <path id="Arial-BoldMT-52" d="M 469 0 
L 469 4581 
L 2416 4581 
Q 3150 4581 3483 4457 
Q 3816 4334 4016 4018 
Q 4216 3703 4216 3297 
Q 4216 2781 3912 2445 
Q 3609 2109 3006 2022 
Q 3306 1847 3501 1637 
Q 3697 1428 4028 894 
L 4588 0 
L 3481 0 
L 2813 997 
Q 2456 1531 2325 1670 
Q 2194 1809 2047 1861 
Q 1900 1913 1581 1913 
L 1394 1913 
L 1394 0 
L 469 0 
z
M 1394 2644 
L 2078 2644 
Q 2744 2644 2909 2700 
Q 3075 2756 3169 2893 
Q 3263 3031 3263 3238 
Q 3263 3469 3139 3611 
Q 3016 3753 2791 3791 
Q 2678 3806 2116 3806 
L 1394 3806 
L 1394 2644 
z
" transform="scale(0.015625)"/>
      <path id="Arial-BoldMT-64" d="M 3503 0 
L 2688 0 
L 2688 488 
Q 2484 203 2207 64 
Q 1931 -75 1650 -75 
Q 1078 -75 670 386 
Q 263 847 263 1672 
Q 263 2516 659 2955 
Q 1056 3394 1663 3394 
Q 2219 3394 2625 2931 
L 2625 4581 
L 3503 4581 
L 3503 0 
z
M 1159 1731 
Q 1159 1200 1306 963 
Q 1519 619 1900 619 
Q 2203 619 2415 876 
Q 2628 1134 2628 1647 
Q 2628 2219 2422 2470 
Q 2216 2722 1894 2722 
Q 1581 2722 1370 2473 
Q 1159 2225 1159 1731 
z
" transform="scale(0.015625)"/>
     </defs>
     <use xlink:href="#Arial-BoldMT-52"/>
     <use xlink:href="#Arial-BoldMT-65" x="72.216797"/>
     <use xlink:href="#Arial-BoldMT-64" x="127.832031"/>
     <use xlink:href="#Arial-BoldMT-20" x="188.916016"/>
     <use xlink:href="#Arial-BoldMT-4f" x="216.699219"/>
     <use xlink:href="#Arial-BoldMT-63" x="294.482422"/>
     <use xlink:href="#Arial-BoldMT-65" x="350.097656"/>
     <use xlink:href="#Arial-BoldMT-61" x="405.712891"/>
     <use xlink:href="#Arial-BoldMT-6e" x="461.328125"/>
    </g>
    <!-- (High Monopoly, Low Opportunity) -->
    <g style="fill: #922b21" transform="translate(502.501947 347.507241) scale(0.09 -0.09)">
     <use xlink:href="#Arial-BoldMT-28"/>
     <use xlink:href="#Arial-BoldMT-48" x="33.300781"/>
     <use xlink:href="#Arial-BoldMT-69" x="105.517578"/>
     <use xlink:href="#Arial-BoldMT-67" x="133.300781"/>
     <use xlink:href="#Arial-BoldMT-68" x="194.384766"/>
     <use xlink:href="#Arial-BoldMT-20" x="255.46875"/>
     <use xlink:href="#Arial-BoldMT-4d" x="283.251953"/>
     <use xlink:href="#Arial-BoldMT-6f" x="366.552734"/>
     <use xlink:href="#Arial-BoldMT-6e" x="427.636719"/>
     <use xlink:href="#Arial-BoldMT-6f" x="488.720703"/>
     <use xlink:href="#Arial-BoldMT-70" x="549.804688"/>
     <use xlink:href="#Arial-BoldMT-6f" x="610.888672"/>
     <use xlink:href="#Arial-BoldMT-6c" x="671.972656"/>
     <use xlink:href="#Arial-BoldMT-79" x="699.755859"/>
     <use xlink:href="#Arial-BoldMT-2c" x="747.996094"/>
     <use xlink:href="#Arial-BoldMT-20" x="775.779297"/>
     <use xlink:href="#Arial-BoldMT-4c" x="803.5625"/>
     <use xlink:href="#Arial-BoldMT-6f" x="864.646484"/>
     <use xlink:href="#Arial-BoldMT-77" x="925.730469"/>
     <use xlink:href="#Arial-BoldMT-20" x="1003.513672"/>
     <use xlink:href="#Arial-BoldMT-4f" x="1031.296875"/>
     <use xlink:href="#Arial-BoldMT-70" x="1109.080078"/>
     <use xlink:href="#Arial-BoldMT-70" x="1170.164062"/>
     <use xlink:href="#Arial-BoldMT-6f" x="1231.248047"/>
     <use xlink:href="#Arial-BoldMT-72" x="1292.332031"/>
     <use xlink:href="#Arial-BoldMT-74" x="1331.248047"/>
     <use xlink:href="#Arial-BoldMT-75" x="1364.548828"/>
     <use xlink:href="#Arial-BoldMT-6e" x="1425.632812"/>
     <use xlink:href="#Arial-BoldMT-69" x="1486.716797"/>
     <use xlink:href="#Arial-BoldMT-74" x="1514.5"/>
     <use xlink:href="#Arial-BoldMT-79" x="1547.800781"/>
     <use xlink:href="#Arial-BoldMT-29" x="1603.416016"/>
    </g>
   </g>
   <g id="legend_1">
    <g id="patch_19">
     <path d="M 550.812969 67.829375 
L 696.419531 67.829375 
Q 697.819531 67.829375 697.819531 66.429375 
L 697.819531 26.835625 
Q 697.819531 25.435625 696.419531 25.435625 
L 550.812969 25.435625 
Q 549.412969 25.435625 549.412969 26.835625 
L 549.412969 66.429375 
Q 549.412969 67.829375 550.812969 67.829375 
z
" style="fill: #ffffff; opacity: 0.9; stroke: #cccccc; stroke-linejoin: miter"/>
    </g>
    <g id="patch_20">
     <path d="M 552.212969 33.335781 
L 566.212969 33.335781 
L 566.212969 28.435781 
L 552.212969 28.435781 
z
" style="fill: #27ae60; opacity: 0.6; stroke: #ffffff; stroke-linejoin: miter"/>
    </g>
    <g id="text_42">
     <!-- Blue Ocean (Low Monopoly, High Opp.) -->
     <g style="fill: #262626" transform="translate(571.812969 33.335781) scale(0.07 -0.07)">
      <defs>
       <path id="ArialMT-4c" d="M 469 0 
L 469 4581 
L 1075 4581 
L 1075 541 
L 3331 541 
L 3331 0 
L 469 0 
z
" transform="scale(0.015625)"/>
       <path id="ArialMT-2c" d="M 569 0 
L 569 641 
L 1209 641 
L 1209 0 
Q 1209 -353 1084 -570 
Q 959 -788 688 -906 
L 531 -666 
Q 709 -588 793 -436 
Q 878 -284 888 0 
L 569 0 
z
" transform="scale(0.015625)"/>
      </defs>
      <use xlink:href="#ArialMT-42"/>
      <use xlink:href="#ArialMT-6c" x="66.699219"/>
      <use xlink:href="#ArialMT-75" x="88.916016"/>
      <use xlink:href="#ArialMT-65" x="144.53125"/>
      <use xlink:href="#ArialMT-20" x="200.146484"/>
      <use xlink:href="#ArialMT-4f" x="227.929688"/>
      <use xlink:href="#ArialMT-63" x="305.712891"/>
      <use xlink:href="#ArialMT-65" x="355.712891"/>
      <use xlink:href="#ArialMT-61" x="411.328125"/>
      <use xlink:href="#ArialMT-6e" x="466.943359"/>
      <use xlink:href="#ArialMT-20" x="522.558594"/>
      <use xlink:href="#ArialMT-28" x="550.341797"/>
      <use xlink:href="#ArialMT-4c" x="583.642578"/>
      <use xlink:href="#ArialMT-6f" x="639.257812"/>
      <use xlink:href="#ArialMT-77" x="694.873047"/>
      <use xlink:href="#ArialMT-20" x="767.089844"/>
      <use xlink:href="#ArialMT-4d" x="794.873047"/>
      <use xlink:href="#ArialMT-6f" x="878.173828"/>
      <use xlink:href="#ArialMT-6e" x="933.789062"/>
      <use xlink:href="#ArialMT-6f" x="989.404297"/>
      <use xlink:href="#ArialMT-70" x="1045.019531"/>
      <use xlink:href="#ArialMT-6f" x="1100.634766"/>
      <use xlink:href="#ArialMT-6c" x="1156.25"/>
      <use xlink:href="#ArialMT-79" x="1178.466797"/>
      <use xlink:href="#ArialMT-2c" x="1221.091797"/>
      <use xlink:href="#ArialMT-20" x="1248.875"/>
      <use xlink:href="#ArialMT-48" x="1276.658203"/>
      <use xlink:href="#ArialMT-69" x="1348.875"/>
      <use xlink:href="#ArialMT-67" x="1371.091797"/>
      <use xlink:href="#ArialMT-68" x="1426.707031"/>
      <use xlink:href="#ArialMT-20" x="1482.322266"/>
      <use xlink:href="#ArialMT-4f" x="1510.105469"/>
      <use xlink:href="#ArialMT-70" x="1587.888672"/>
      <use xlink:href="#ArialMT-70" x="1643.503906"/>
      <use xlink:href="#ArialMT-2e" x="1699.119141"/>
      <use xlink:href="#ArialMT-29" x="1726.902344"/>
     </g>
    </g>
    <g id="patch_21">
     <path d="M 552.212969 43.409219 
L 566.212969 43.409219 
L 566.212969 38.509219 
L 552.212969 38.509219 
z
" style="fill: #c0392b; opacity: 0.6; stroke: #ffffff; stroke-linejoin: miter"/>
    </g>
    <g id="text_43">
     <!-- Red Ocean (High Monopoly, Low Opp.) -->
     <g style="fill: #262626" transform="translate(571.812969 43.409219) scale(0.07 -0.07)">
      <use xlink:href="#ArialMT-52"/>
      <use xlink:href="#ArialMT-65" x="72.216797"/>
      <use xlink:href="#ArialMT-64" x="127.832031"/>
      <use xlink:href="#ArialMT-20" x="183.447266"/>
      <use xlink:href="#ArialMT-4f" x="211.230469"/>
      <use xlink:href="#ArialMT-63" x="289.013672"/>
      <use xlink:href="#ArialMT-65" x="339.013672"/>
      <use xlink:href="#ArialMT-61" x="394.628906"/>
      <use xlink:href="#ArialMT-6e" x="450.244141"/>
      <use xlink:href="#ArialMT-20" x="505.859375"/>
      <use xlink:href="#ArialMT-28" x="533.642578"/>
      <use xlink:href="#ArialMT-48" x="566.943359"/>
      <use xlink:href="#ArialMT-69" x="639.160156"/>
      <use xlink:href="#ArialMT-67" x="661.376953"/>
      <use xlink:href="#ArialMT-68" x="716.992188"/>
      <use xlink:href="#ArialMT-20" x="772.607422"/>
      <use xlink:href="#ArialMT-4d" x="800.390625"/>
      <use xlink:href="#ArialMT-6f" x="883.691406"/>
      <use xlink:href="#ArialMT-6e" x="939.306641"/>
      <use xlink:href="#ArialMT-6f" x="994.921875"/>
      <use xlink:href="#ArialMT-70" x="1050.537109"/>
      <use xlink:href="#ArialMT-6f" x="1106.152344"/>
      <use xlink:href="#ArialMT-6c" x="1161.767578"/>
      <use xlink:href="#ArialMT-79" x="1183.984375"/>
      <use xlink:href="#ArialMT-2c" x="1226.609375"/>
      <use xlink:href="#ArialMT-20" x="1254.392578"/>
      <use xlink:href="#ArialMT-4c" x="1282.175781"/>
      <use xlink:href="#ArialMT-6f" x="1337.791016"/>
      <use xlink:href="#ArialMT-77" x="1393.40625"/>
      <use xlink:href="#ArialMT-20" x="1465.623047"/>
      <use xlink:href="#ArialMT-4f" x="1493.40625"/>
      <use xlink:href="#ArialMT-70" x="1571.189453"/>
      <use xlink:href="#ArialMT-70" x="1626.804688"/>
      <use xlink:href="#ArialMT-2e" x="1682.419922"/>
      <use xlink:href="#ArialMT-29" x="1710.203125"/>
     </g>
    </g>
    <g id="patch_22">
     <path d="M 552.212969 53.482656 
L 566.212969 53.482656 
L 566.212969 48.582656 
L 552.212969 48.582656 
z
" style="fill: #e67e22; opacity: 0.6; stroke: #ffffff; stroke-linejoin: miter"/>
    </g>
    <g id="text_44">
     <!-- Mixed (High Monopoly, High Opp.) -->
     <g style="fill: #262626" transform="translate(571.812969 53.482656) scale(0.07 -0.07)">
      <use xlink:href="#ArialMT-4d"/>
      <use xlink:href="#ArialMT-69" x="83.300781"/>
      <use xlink:href="#ArialMT-78" x="105.517578"/>
      <use xlink:href="#ArialMT-65" x="155.517578"/>
      <use xlink:href="#ArialMT-64" x="211.132812"/>
      <use xlink:href="#ArialMT-20" x="266.748047"/>
      <use xlink:href="#ArialMT-28" x="294.53125"/>
      <use xlink:href="#ArialMT-48" x="327.832031"/>
      <use xlink:href="#ArialMT-69" x="400.048828"/>
      <use xlink:href="#ArialMT-67" x="422.265625"/>
      <use xlink:href="#ArialMT-68" x="477.880859"/>
      <use xlink:href="#ArialMT-20" x="533.496094"/>
      <use xlink:href="#ArialMT-4d" x="561.279297"/>
      <use xlink:href="#ArialMT-6f" x="644.580078"/>
      <use xlink:href="#ArialMT-6e" x="700.195312"/>
      <use xlink:href="#ArialMT-6f" x="755.810547"/>
      <use xlink:href="#ArialMT-70" x="811.425781"/>
      <use xlink:href="#ArialMT-6f" x="867.041016"/>
      <use xlink:href="#ArialMT-6c" x="922.65625"/>
      <use xlink:href="#ArialMT-79" x="944.873047"/>
      <use xlink:href="#ArialMT-2c" x="987.498047"/>
      <use xlink:href="#ArialMT-20" x="1015.28125"/>
      <use xlink:href="#ArialMT-48" x="1043.064453"/>
      <use xlink:href="#ArialMT-69" x="1115.28125"/>
      <use xlink:href="#ArialMT-67" x="1137.498047"/>
      <use xlink:href="#ArialMT-68" x="1193.113281"/>
      <use xlink:href="#ArialMT-20" x="1248.728516"/>
      <use xlink:href="#ArialMT-4f" x="1276.511719"/>
      <use xlink:href="#ArialMT-70" x="1354.294922"/>
      <use xlink:href="#ArialMT-70" x="1409.910156"/>
      <use xlink:href="#ArialMT-2e" x="1465.525391"/>
      <use xlink:href="#ArialMT-29" x="1493.308594"/>
     </g>
    </g>
    <g id="patch_23">
     <path d="M 552.212969 63.556094 
L 566.212969 63.556094 
L 566.212969 58.656094 
L 552.212969 58.656094 
z
" style="fill: #7f8c8d; opacity: 0.6; stroke: #ffffff; stroke-linejoin: miter"/>
    </g>
    <g id="text_45">
     <!-- Mixed (Low Monopoly, Low Opp.) -->
     <g style="fill: #262626" transform="translate(571.812969 63.556094) scale(0.07 -0.07)">
      <use xlink:href="#ArialMT-4d"/>
      <use xlink:href="#ArialMT-69" x="83.300781"/>
      <use xlink:href="#ArialMT-78" x="105.517578"/>
      <use xlink:href="#ArialMT-65" x="155.517578"/>
      <use xlink:href="#ArialMT-64" x="211.132812"/>
      <use xlink:href="#ArialMT-20" x="266.748047"/>
      <use xlink:href="#ArialMT-28" x="294.53125"/>
      <use xlink:href="#ArialMT-4c" x="327.832031"/>
      <use xlink:href="#ArialMT-6f" x="383.447266"/>
      <use xlink:href="#ArialMT-77" x="439.0625"/>
      <use xlink:href="#ArialMT-20" x="511.279297"/>
      <use xlink:href="#ArialMT-4d" x="539.0625"/>
      <use xlink:href="#ArialMT-6f" x="622.363281"/>
      <use xlink:href="#ArialMT-6e" x="677.978516"/>
      <use xlink:href="#ArialMT-6f" x="733.59375"/>
      <use xlink:href="#ArialMT-70" x="789.208984"/>
      <use xlink:href="#ArialMT-6f" x="844.824219"/>
      <use xlink:href="#ArialMT-6c" x="900.439453"/>
      <use xlink:href="#ArialMT-79" x="922.65625"/>
      <use xlink:href="#ArialMT-2c" x="965.28125"/>
      <use xlink:href="#ArialMT-20" x="993.064453"/>
      <use xlink:href="#ArialMT-4c" x="1020.847656"/>
      <use xlink:href="#ArialMT-6f" x="1076.462891"/>
      <use xlink:href="#ArialMT-77" x="1132.078125"/>
      <use xlink:href="#ArialMT-20" x="1204.294922"/>
      <use xlink:href="#ArialMT-4f" x="1232.078125"/>
      <use xlink:href="#ArialMT-70" x="1309.861328"/>
      <use xlink:href="#ArialMT-70" x="1365.476562"/>
      <use xlink:href="#ArialMT-2e" x="1421.091797"/>
      <use xlink:href="#ArialMT-29" x="1448.875"/>
     </g>
    </g>
   </g>
  </g>
 </g>
 <defs>
  <clipPath id="pb9cce4b6af">
   <rect x="53.375781" y="21.935625" width="647.94375" height="356.2275"/>
  </clipPath>
 </defs>
</svg>
