<?xml version="1.0" encoding="utf-8" standalone="no"?>
<!DOCTYPE svg PUBLIC "-//W3C//DTD SVG 1.1//EN"
  "http://www.w3.org/Graphics/SVG/1.1/DTD/svg11.dtd">
<svg xmlns:xlink="http://www.w3.org/1999/xlink" width="852.554375pt" height="420.634219pt" viewBox="0 0 852.554375 420.634219" xmlns="http://www.w3.org/2000/svg" version="1.1">
 <metadata>
  <rdf:RDF xmlns:dc="http://purl.org/dc/elements/1.1/" xmlns:cc="http://creativecommons.org/ns#" xmlns:rdf="http://www.w3.org/1999/02/22-rdf-syntax-ns#">
   <cc:Work>
    <dc:type rdf:resource="http://purl.org/dc/dcmitype/StillImage"/>
    <dc:date>2026-01-26T19:55:40.096040</dc:date>
    <dc:format>image/svg+xml</dc:format>
    <dc:creator>
     <cc:Agent>
      <dc:title>Matplotlib v3.9.4, https://matplotlib.org/</dc:title>
     </cc:Agent>
    </dc:creator>
   </cc:Work>
  </rdf:RDF>
 </metadata>
 <defs>
  <style type="text/css">*{stroke-linejoin: round; stroke-linecap: butt}</style>
 </defs>
 <g id="figure_1">
  <g id="patch_1">
   <path d="M 0 420.634219 
L 852.554375 420.634219 
L 852.554375 0 
L 0 0 
z
" style="fill: #ffffff"/>
  </g>
  <g id="axes_1">
   <g id="patch_2">
    <path d="M 46.964375 378.9 
L 845.354375 378.9 
L 845.354375 7.2 
L 46.964375 7.2 
z
" style="fill: #ffffff"/>
   </g>
   <g id="matplotlib.axis_1">
    <g id="xtick_1">
     <g id="line2d_1">
      <path d="M 105.936364 378.9 
L 105.936364 7.2 
" clip-path="url(#pfc998ed9a7)" style="fill: none; stroke: #cccccc; stroke-opacity: 0.3; stroke-linecap: round"/>
     </g>
     <g id="text_1">
      <!-- 1900 -->
      <g style="fill: #262626" transform="translate(93.702301 396.273594) scale(0.11 -0.11)">
       <defs>
        <path id="ArialMT-31" d="M 2384 0 
L 1822 0 
L 1822 3584 
Q 1619 3391 1289 3197 
Q 959 3003 697 2906 
L 697 3450 
Q 1169 3672 1522 3987 
Q 1875 4303 2022 4600 
L 2384 4600 
L 2384 0 
z
" transform="scale(0.015625)"/>
        <path id="ArialMT-39" d="M 350 1059 
L 891 1109 
Q 959 728 1153 556 
Q 1347 384 1650 384 
Q 1909 384 2104 503 
Q 2300 622 2425 820 
Q 2550 1019 2634 1356 
Q 2719 1694 2719 2044 
Q 2719 2081 2716 2156 
Q 2547 1888 2255 1720 
Q 1963 1553 1622 1553 
Q 1053 1553 659 1965 
Q 266 2378 266 3053 
Q 266 3750 677 4175 
Q 1088 4600 1706 4600 
Q 2153 4600 2523 4359 
Q 2894 4119 3086 3673 
Q 3278 3228 3278 2384 
Q 3278 1506 3087 986 
Q 2897 466 2520 194 
Q 2144 -78 1638 -78 
Q 1100 -78 759 220 
Q 419 519 350 1059 
z
M 2653 3081 
Q 2653 3566 2395 3850 
Q 2138 4134 1775 4134 
Q 1400 4134 1122 3828 
Q 844 3522 844 3034 
Q 844 2597 1108 2323 
Q 1372 2050 1759 2050 
Q 2150 2050 2401 2323 
Q 2653 2597 2653 3081 
z
" transform="scale(0.015625)"/>
        <path id="ArialMT-30" d="M 266 2259 
Q 266 3072 433 3567 
Q 600 4063 929 4331 
Q 1259 4600 1759 4600 
Q 2128 4600 2406 4451 
Q 2684 4303 2865 4023 
Q 3047 3744 3150 3342 
Q 3253 2941 3253 2259 
Q 3253 1453 3087 958 
Q 2922 463 2592 192 
Q 2263 -78 1759 -78 
Q 1097 -78 719 397 
Q 266 969 266 2259 
z
M 844 2259 
Q 844 1131 1108 757 
Q 1372 384 1759 384 
Q 2147 384 2411 759 
Q 2675 1134 2675 2259 
Q 2675 3391 2411 3762 
Q 2147 4134 1753 4134 
Q 1366 4134 1134 3806 
Q 844 3388 844 2259 
z
" transform="scale(0.015625)"/>
       </defs>
       <use xlink:href="#ArialMT-31"/>
       <use xlink:href="#ArialMT-39" x="55.615234"/>
       <use xlink:href="#ArialMT-30" x="111.230469"/>
       <use xlink:href="#ArialMT-30" x="166.845703"/>
      </g>
     </g>
    </g>
    <g id="xtick_2">
     <g id="line2d_2">
      <path d="M 219.344034 378.9 
L 219.344034 7.2 
" clip-path="url(#pfc998ed9a7)" style="fill: none; stroke: #cccccc; stroke-opacity: 0.3; stroke-linecap: round"/>
     </g>
     <g id="text_2">
      <!-- 1920 -->
      <g style="fill: #262626" transform="translate(207.109972 396.273594) scale(0.11 -0.11)">
       <defs>
        <path id="ArialMT-32" d="M 3222 541 
L 3222 0 
L 194 0 
Q 188 203 259 391 
Q 375 700 629 1000 
Q 884 1300 1366 1694 
Q 2113 2306 2375 2664 
Q 2638 3022 2638 3341 
Q 2638 3675 2398 3904 
Q 2159 4134 1775 4134 
Q 1369 4134 1125 3890 
Q 881 3647 878 3216 
L 300 3275 
Q 359 3922 746 4261 
Q 1134 4600 1788 4600 
Q 2447 4600 2831 4234 
Q 3216 3869 3216 3328 
Q 3216 3053 3103 2787 
Q 2991 2522 2730 2228 
Q 2469 1934 1863 1422 
Q 1356 997 1212 845 
Q 1069 694 975 541 
L 3222 541 
z
" transform="scale(0.015625)"/>
       </defs>
       <use xlink:href="#ArialMT-31"/>
       <use xlink:href="#ArialMT-39" x="55.615234"/>
       <use xlink:href="#ArialMT-32" x="111.230469"/>
       <use xlink:href="#ArialMT-30" x="166.845703"/>
      </g>
     </g>
    </g>
    <g id="xtick_3">
     <g id="line2d_3">
      <path d="M 332.751705 378.9 
L 332.751705 7.2 
" clip-path="url(#pfc998ed9a7)" style="fill: none; stroke: #cccccc; stroke-opacity: 0.3; stroke-linecap: round"/>
     </g>
     <g id="text_3">
      <!-- 1940 -->
      <g style="fill: #262626" transform="translate(320.517642 396.273594) scale(0.11 -0.11)">
       <defs>
        <path id="ArialMT-34" d="M 2069 0 
L 2069 1097 
L 81 1097 
L 81 1613 
L 2172 4581 
L 2631 4581 
L 2631 1613 
L 3250 1613 
L 3250 1097 
L 2631 1097 
L 2631 0 
L 2069 0 
z
M 2069 1613 
L 2069 3678 
L 634 1613 
L 2069 1613 
z
" transform="scale(0.015625)"/>
       </defs>
       <use xlink:href="#ArialMT-31"/>
       <use xlink:href="#ArialMT-39" x="55.615234"/>
       <use xlink:href="#ArialMT-34" x="111.230469"/>
       <use xlink:href="#ArialMT-30" x="166.845703"/>
      </g>
     </g>
    </g>
    <g id="xtick_4">
     <g id="line2d_4">
      <path d="M 446.159375 378.9 
L 446.159375 7.2 
" clip-path="url(#pfc998ed9a7)" style="fill: none; stroke: #cccccc; stroke-opacity: 0.3; stroke-linecap: round"/>
     </g>
     <g id="text_4">
      <!-- 1960 -->
      <g style="fill: #262626" transform="translate(433.925312 396.273594) scale(0.11 -0.11)">
       <defs>
        <path id="ArialMT-36" d="M 3184 3459 
L 2625 3416 
Q 2550 3747 2413 3897 
Q 2184 4138 1850 4138 
Q 1581 4138 1378 3988 
Q 1113 3794 959 3422 
Q 806 3050 800 2363 
Q 1003 2672 1297 2822 
Q 1591 2972 1913 2972 
Q 2475 2972 2870 2558 
Q 3266 2144 3266 1488 
Q 3266 1056 3080 686 
Q 2894 316 2569 119 
Q 2244 -78 1831 -78 
Q 1128 -78 684 439 
Q 241 956 241 2144 
Q 241 3472 731 4075 
Q 1159 4600 1884 4600 
Q 2425 4600 2770 4297 
Q 3116 3994 3184 3459 
z
M 888 1484 
Q 888 1194 1011 928 
Q 1134 663 1356 523 
Q 1578 384 1822 384 
Q 2178 384 2434 671 
Q 2691 959 2691 1453 
Q 2691 1928 2437 2201 
Q 2184 2475 1800 2475 
Q 1419 2475 1153 2201 
Q 888 1928 888 1484 
z
" transform="scale(0.015625)"/>
       </defs>
       <use xlink:href="#ArialMT-31"/>
       <use xlink:href="#ArialMT-39" x="55.615234"/>
       <use xlink:href="#ArialMT-36" x="111.230469"/>
       <use xlink:href="#ArialMT-30" x="166.845703"/>
      </g>
     </g>
    </g>
    <g id="xtick_5">
     <g id="line2d_5">
      <path d="M 559.567045 378.9 
L 559.567045 7.2 
" clip-path="url(#pfc998ed9a7)" style="fill: none; stroke: #cccccc; stroke-opacity: 0.3; stroke-linecap: round"/>
     </g>
     <g id="text_5">
      <!-- 1980 -->
      <g style="fill: #262626" transform="translate(547.332983 396.273594) scale(0.11 -0.11)">
       <defs>
        <path id="ArialMT-38" d="M 1131 2484 
Q 781 2613 612 2850 
Q 444 3088 444 3419 
Q 444 3919 803 4259 
Q 1163 4600 1759 4600 
Q 2359 4600 2725 4251 
Q 3091 3903 3091 3403 
Q 3091 3084 2923 2848 
Q 2756 2613 2416 2484 
Q 2838 2347 3058 2040 
Q 3278 1734 3278 1309 
Q 3278 722 2862 322 
Q 2447 -78 1769 -78 
Q 1091 -78 675 323 
Q 259 725 259 1325 
Q 259 1772 486 2073 
Q 713 2375 1131 2484 
z
M 1019 3438 
Q 1019 3113 1228 2906 
Q 1438 2700 1772 2700 
Q 2097 2700 2305 2904 
Q 2513 3109 2513 3406 
Q 2513 3716 2298 3927 
Q 2084 4138 1766 4138 
Q 1444 4138 1231 3931 
Q 1019 3725 1019 3438 
z
M 838 1322 
Q 838 1081 952 856 
Q 1066 631 1291 507 
Q 1516 384 1775 384 
Q 2178 384 2440 643 
Q 2703 903 2703 1303 
Q 2703 1709 2433 1975 
Q 2163 2241 1756 2241 
Q 1359 2241 1098 1978 
Q 838 1716 838 1322 
z
" transform="scale(0.015625)"/>
       </defs>
       <use xlink:href="#ArialMT-31"/>
       <use xlink:href="#ArialMT-39" x="55.615234"/>
       <use xlink:href="#ArialMT-38" x="111.230469"/>
       <use xlink:href="#ArialMT-30" x="166.845703"/>
      </g>
     </g>
    </g>
    <g id="xtick_6">
     <g id="line2d_6">
      <path d="M 672.974716 378.9 
L 672.974716 7.2 
" clip-path="url(#pfc998ed9a7)" style="fill: none; stroke: #cccccc; stroke-opacity: 0.3; stroke-linecap: round"/>
     </g>
     <g id="text_6">
      <!-- 2000 -->
      <g style="fill: #262626" transform="translate(660.740653 396.273594) scale(0.11 -0.11)">
       <use xlink:href="#ArialMT-32"/>
       <use xlink:href="#ArialMT-30" x="55.615234"/>
       <use xlink:href="#ArialMT-30" x="111.230469"/>
       <use xlink:href="#ArialMT-30" x="166.845703"/>
      </g>
     </g>
    </g>
    <g id="xtick_7">
     <g id="line2d_7">
      <path d="M 786.382386 378.9 
L 786.382386 7.2 
" clip-path="url(#pfc998ed9a7)" style="fill: none; stroke: #cccccc; stroke-opacity: 0.3; stroke-linecap: round"/>
     </g>
     <g id="text_7">
      <!-- 2020 -->
      <g style="fill: #262626" transform="translate(774.148324 396.273594) scale(0.11 -0.11)">
       <use xlink:href="#ArialMT-32"/>
       <use xlink:href="#ArialMT-30" x="55.615234"/>
       <use xlink:href="#ArialMT-32" x="111.230469"/>
       <use xlink:href="#ArialMT-30" x="166.845703"/>
      </g>
     </g>
    </g>
    <g id="text_8">
     <!-- Year -->
     <g style="fill: #262626" transform="translate(434.03375 411.049219) scale(0.12 -0.12)">
      <defs>
       <path id="ArialMT-59" d="M 1784 0 
L 1784 1941 
L 19 4581 
L 756 4581 
L 1659 3200 
Q 1909 2813 2125 2425 
Q 2331 2784 2625 3234 
L 3513 4581 
L 4219 4581 
L 2391 1941 
L 2391 0 
L 1784 0 
z
" transform="scale(0.015625)"/>
       <path id="ArialMT-65" d="M 2694 1069 
L 3275 997 
Q 3138 488 2766 206 
Q 2394 -75 1816 -75 
Q 1088 -75 661 373 
Q 234 822 234 1631 
Q 234 2469 665 2931 
Q 1097 3394 1784 3394 
Q 2450 3394 2872 2941 
Q 3294 2488 3294 1666 
Q 3294 1616 3291 1516 
L 816 1516 
Q 847 969 1125 678 
Q 1403 388 1819 388 
Q 2128 388 2347 550 
Q 2566 713 2694 1069 
z
M 847 1978 
L 2700 1978 
Q 2663 2397 2488 2606 
Q 2219 2931 1791 2931 
Q 1403 2931 1139 2672 
Q 875 2413 847 1978 
z
" transform="scale(0.015625)"/>
       <path id="ArialMT-61" d="M 2588 409 
Q 2275 144 1986 34 
Q 1697 -75 1366 -75 
Q 819 -75 525 192 
Q 231 459 231 875 
Q 231 1119 342 1320 
Q 453 1522 633 1644 
Q 813 1766 1038 1828 
Q 1203 1872 1538 1913 
Q 2219 1994 2541 2106 
Q 2544 2222 2544 2253 
Q 2544 2597 2384 2738 
Q 2169 2928 1744 2928 
Q 1347 2928 1158 2789 
Q 969 2650 878 2297 
L 328 2372 
Q 403 2725 575 2942 
Q 747 3159 1072 3276 
Q 1397 3394 1825 3394 
Q 2250 3394 2515 3294 
Q 2781 3194 2906 3042 
Q 3031 2891 3081 2659 
Q 3109 2516 3109 2141 
L 3109 1391 
Q 3109 606 3145 398 
Q 3181 191 3288 0 
L 2700 0 
Q 2613 175 2588 409 
z
M 2541 1666 
Q 2234 1541 1622 1453 
Q 1275 1403 1131 1340 
Q 988 1278 909 1158 
Q 831 1038 831 891 
Q 831 666 1001 516 
Q 1172 366 1500 366 
Q 1825 366 2078 508 
Q 2331 650 2450 897 
Q 2541 1088 2541 1459 
L 2541 1666 
z
" transform="scale(0.015625)"/>
       <path id="ArialMT-72" d="M 416 0 
L 416 3319 
L 922 3319 
L 922 2816 
Q 1116 3169 1280 3281 
Q 1444 3394 1641 3394 
Q 1925 3394 2219 3213 
L 2025 2691 
Q 1819 2813 1613 2813 
Q 1428 2813 1281 2702 
Q 1134 2591 1072 2394 
Q 978 2094 978 1738 
L 978 0 
L 416 0 
z
" transform="scale(0.015625)"/>
      </defs>
      <use xlink:href="#ArialMT-59"/>
      <use xlink:href="#ArialMT-65" x="57.574219"/>
      <use xlink:href="#ArialMT-61" x="113.189453"/>
      <use xlink:href="#ArialMT-72" x="168.804688"/>
     </g>
    </g>
   </g>
   <g id="matplotlib.axis_2">
    <g id="ytick_1">
     <g id="line2d_8">
      <path d="M 46.964375 364.955717 
L 845.354375 364.955717 
" clip-path="url(#pfc998ed9a7)" style="fill: none; stroke: #cccccc; stroke-opacity: 0.3; stroke-linecap: round"/>
     </g>
     <g id="text_9">
      <!-- 0.0 -->
      <g style="fill: #262626" transform="translate(22.174375 368.892513) scale(0.11 -0.11)">
       <defs>
        <path id="ArialMT-2e" d="M 581 0 
L 581 641 
L 1222 641 
L 1222 0 
L 581 0 
z
" transform="scale(0.015625)"/>
       </defs>
       <use xlink:href="#ArialMT-30"/>
       <use xlink:href="#ArialMT-2e" x="55.615234"/>
       <use xlink:href="#ArialMT-30" x="83.398438"/>
      </g>
     </g>
    </g>
    <g id="ytick_2">
     <g id="line2d_9">
      <path d="M 46.964375 323.639321 
L 845.354375 323.639321 
" clip-path="url(#pfc998ed9a7)" style="fill: none; stroke: #cccccc; stroke-opacity: 0.3; stroke-linecap: round"/>
     </g>
     <g id="text_10">
      <!-- 0.1 -->
      <g style="fill: #262626" transform="translate(22.174375 327.576118) scale(0.11 -0.11)">
       <use xlink:href="#ArialMT-30"/>
       <use xlink:href="#ArialMT-2e" x="55.615234"/>
       <use xlink:href="#ArialMT-31" x="83.398438"/>
      </g>
     </g>
    </g>
    <g id="ytick_3">
     <g id="line2d_10">
      <path d="M 46.964375 282.322926 
L 845.354375 282.322926 
" clip-path="url(#pfc998ed9a7)" style="fill: none; stroke: #cccccc; stroke-opacity: 0.3; stroke-linecap: round"/>
     </g>
     <g id="text_11">
      <!-- 0.2 -->
      <g style="fill: #262626" transform="translate(22.174375 286.259723) scale(0.11 -0.11)">
       <use xlink:href="#ArialMT-30"/>
       <use xlink:href="#ArialMT-2e" x="55.615234"/>
       <use xlink:href="#ArialMT-32" x="83.398438"/>
      </g>
     </g>
    </g>
    <g id="ytick_4">
     <g id="line2d_11">
      <path d="M 46.964375 241.00653 
L 845.354375 241.00653 
" clip-path="url(#pfc998ed9a7)" style="fill: none; stroke: #cccccc; stroke-opacity: 0.3; stroke-linecap: round"/>
     </g>
     <g id="text_12">
      <!-- 0.3 -->
      <g style="fill: #262626" transform="translate(22.174375 244.943327) scale(0.11 -0.11)">
       <defs>
        <path id="ArialMT-33" d="M 269 1209 
L 831 1284 
Q 928 806 1161 595 
Q 1394 384 1728 384 
Q 2125 384 2398 659 
Q 2672 934 2672 1341 
Q 2672 1728 2419 1979 
Q 2166 2231 1775 2231 
Q 1616 2231 1378 2169 
L 1441 2663 
Q 1497 2656 1531 2656 
Q 1891 2656 2178 2843 
Q 2466 3031 2466 3422 
Q 2466 3731 2256 3934 
Q 2047 4138 1716 4138 
Q 1388 4138 1169 3931 
Q 950 3725 888 3313 
L 325 3413 
Q 428 3978 793 4289 
Q 1159 4600 1703 4600 
Q 2078 4600 2393 4439 
Q 2709 4278 2876 4000 
Q 3044 3722 3044 3409 
Q 3044 3113 2884 2869 
Q 2725 2625 2413 2481 
Q 2819 2388 3044 2092 
Q 3269 1797 3269 1353 
Q 3269 753 2831 336 
Q 2394 -81 1725 -81 
Q 1122 -81 723 278 
Q 325 638 269 1209 
z
" transform="scale(0.015625)"/>
       </defs>
       <use xlink:href="#ArialMT-30"/>
       <use xlink:href="#ArialMT-2e" x="55.615234"/>
       <use xlink:href="#ArialMT-33" x="83.398438"/>
      </g>
     </g>
    </g>
    <g id="ytick_5">
     <g id="line2d_12">
      <path d="M 46.964375 199.690135 
L 845.354375 199.690135 
" clip-path="url(#pfc998ed9a7)" style="fill: none; stroke: #cccccc; stroke-opacity: 0.3; stroke-linecap: round"/>
     </g>
     <g id="text_13">
      <!-- 0.4 -->
      <g style="fill: #262626" transform="translate(22.174375 203.626932) scale(0.11 -0.11)">
       <use xlink:href="#ArialMT-30"/>
       <use xlink:href="#ArialMT-2e" x="55.615234"/>
       <use xlink:href="#ArialMT-34" x="83.398438"/>
      </g>
     </g>
    </g>
    <g id="ytick_6">
     <g id="line2d_13">
      <path d="M 46.964375 158.37374 
L 845.354375 158.37374 
" clip-path="url(#pfc998ed9a7)" style="fill: none; stroke: #cccccc; stroke-opacity: 0.3; stroke-linecap: round"/>
     </g>
     <g id="text_14">
      <!-- 0.5 -->
      <g style="fill: #262626" transform="translate(22.174375 162.310536) scale(0.11 -0.11)">
       <defs>
        <path id="ArialMT-35" d="M 266 1200 
L 856 1250 
Q 922 819 1161 601 
Q 1400 384 1738 384 
Q 2144 384 2425 690 
Q 2706 997 2706 1503 
Q 2706 1984 2436 2262 
Q 2166 2541 1728 2541 
Q 1456 2541 1237 2417 
Q 1019 2294 894 2097 
L 366 2166 
L 809 4519 
L 3088 4519 
L 3088 3981 
L 1259 3981 
L 1013 2750 
Q 1425 3038 1878 3038 
Q 2478 3038 2890 2622 
Q 3303 2206 3303 1553 
Q 3303 931 2941 478 
Q 2500 -78 1738 -78 
Q 1113 -78 717 272 
Q 322 622 266 1200 
z
" transform="scale(0.015625)"/>
       </defs>
       <use xlink:href="#ArialMT-30"/>
       <use xlink:href="#ArialMT-2e" x="55.615234"/>
       <use xlink:href="#ArialMT-35" x="83.398438"/>
      </g>
     </g>
    </g>
    <g id="ytick_7">
     <g id="line2d_14">
      <path d="M 46.964375 117.057344 
L 845.354375 117.057344 
" clip-path="url(#pfc998ed9a7)" style="fill: none; stroke: #cccccc; stroke-opacity: 0.3; stroke-linecap: round"/>
     </g>
     <g id="text_15">
      <!-- 0.6 -->
      <g style="fill: #262626" transform="translate(22.174375 120.994141) scale(0.11 -0.11)">
       <use xlink:href="#ArialMT-30"/>
       <use xlink:href="#ArialMT-2e" x="55.615234"/>
       <use xlink:href="#ArialMT-36" x="83.398438"/>
      </g>
     </g>
    </g>
    <g id="ytick_8">
     <g id="line2d_15">
      <path d="M 46.964375 75.740949 
L 845.354375 75.740949 
" clip-path="url(#pfc998ed9a7)" style="fill: none; stroke: #cccccc; stroke-opacity: 0.3; stroke-linecap: round"/>
     </g>
     <g id="text_16">
      <!-- 0.7 -->
      <g style="fill: #262626" transform="translate(22.174375 79.677746) scale(0.11 -0.11)">
       <defs>
        <path id="ArialMT-37" d="M 303 3981 
L 303 4522 
L 3269 4522 
L 3269 4084 
Q 2831 3619 2401 2847 
Q 1972 2075 1738 1259 
Q 1569 684 1522 0 
L 944 0 
Q 953 541 1156 1306 
Q 1359 2072 1739 2783 
Q 2119 3494 2547 3981 
L 303 3981 
z
" transform="scale(0.015625)"/>
       </defs>
       <use xlink:href="#ArialMT-30"/>
       <use xlink:href="#ArialMT-2e" x="55.615234"/>
       <use xlink:href="#ArialMT-37" x="83.398438"/>
      </g>
     </g>
    </g>
    <g id="ytick_9">
     <g id="line2d_16">
      <path d="M 46.964375 34.424553 
L 845.354375 34.424553 
" clip-path="url(#pfc998ed9a7)" style="fill: none; stroke: #cccccc; stroke-opacity: 0.3; stroke-linecap: round"/>
     </g>
     <g id="text_17">
      <!-- 0.8 -->
      <g style="fill: #262626" transform="translate(22.174375 38.36135) scale(0.11 -0.11)">
       <use xlink:href="#ArialMT-30"/>
       <use xlink:href="#ArialMT-2e" x="55.615234"/>
       <use xlink:href="#ArialMT-38" x="83.398438"/>
      </g>
     </g>
    </g>
    <g id="text_18">
     <!-- Medal Market Share -->
     <g style="fill: #262626" transform="translate(15.789375 247.069687) rotate(-90) scale(0.12 -0.12)">
      <defs>
       <path id="ArialMT-4d" d="M 475 0 
L 475 4581 
L 1388 4581 
L 2472 1338 
Q 2622 884 2691 659 
Q 2769 909 2934 1394 
L 4031 4581 
L 4847 4581 
L 4847 0 
L 4263 0 
L 4263 3834 
L 2931 0 
L 2384 0 
L 1059 3900 
L 1059 0 
L 475 0 
z
" transform="scale(0.015625)"/>
       <path id="ArialMT-64" d="M 2575 0 
L 2575 419 
Q 2259 -75 1647 -75 
Q 1250 -75 917 144 
Q 584 363 401 755 
Q 219 1147 219 1656 
Q 219 2153 384 2558 
Q 550 2963 881 3178 
Q 1213 3394 1622 3394 
Q 1922 3394 2156 3267 
Q 2391 3141 2538 2938 
L 2538 4581 
L 3097 4581 
L 3097 0 
L 2575 0 
z
M 797 1656 
Q 797 1019 1065 703 
Q 1334 388 1700 388 
Q 2069 388 2326 689 
Q 2584 991 2584 1609 
Q 2584 2291 2321 2609 
Q 2059 2928 1675 2928 
Q 1300 2928 1048 2622 
Q 797 2316 797 1656 
z
" transform="scale(0.015625)"/>
       <path id="ArialMT-6c" d="M 409 0 
L 409 4581 
L 972 4581 
L 972 0 
L 409 0 
z
" transform="scale(0.015625)"/>
       <path id="ArialMT-20" transform="scale(0.015625)"/>
       <path id="ArialMT-6b" d="M 425 0 
L 425 4581 
L 988 4581 
L 988 1969 
L 2319 3319 
L 3047 3319 
L 1778 2088 
L 3175 0 
L 2481 0 
L 1384 1697 
L 988 1316 
L 988 0 
L 425 0 
z
" transform="scale(0.015625)"/>
       <path id="ArialMT-74" d="M 1650 503 
L 1731 6 
Q 1494 -44 1306 -44 
Q 1000 -44 831 53 
Q 663 150 594 308 
Q 525 466 525 972 
L 525 2881 
L 113 2881 
L 113 3319 
L 525 3319 
L 525 4141 
L 1084 4478 
L 1084 3319 
L 1650 3319 
L 1650 2881 
L 1084 2881 
L 1084 941 
Q 1084 700 1114 631 
Q 1144 563 1211 522 
Q 1278 481 1403 481 
Q 1497 481 1650 503 
z
" transform="scale(0.015625)"/>
       <path id="ArialMT-53" d="M 288 1472 
L 859 1522 
Q 900 1178 1048 958 
Q 1197 738 1509 602 
Q 1822 466 2213 466 
Q 2559 466 2825 569 
Q 3091 672 3220 851 
Q 3350 1031 3350 1244 
Q 3350 1459 3225 1620 
Q 3100 1781 2813 1891 
Q 2628 1963 1997 2114 
Q 1366 2266 1113 2400 
Q 784 2572 623 2826 
Q 463 3081 463 3397 
Q 463 3744 659 4045 
Q 856 4347 1234 4503 
Q 1613 4659 2075 4659 
Q 2584 4659 2973 4495 
Q 3363 4331 3572 4012 
Q 3781 3694 3797 3291 
L 3216 3247 
Q 3169 3681 2898 3903 
Q 2628 4125 2100 4125 
Q 1550 4125 1298 3923 
Q 1047 3722 1047 3438 
Q 1047 3191 1225 3031 
Q 1400 2872 2139 2705 
Q 2878 2538 3153 2413 
Q 3553 2228 3743 1945 
Q 3934 1663 3934 1294 
Q 3934 928 3725 604 
Q 3516 281 3123 101 
Q 2731 -78 2241 -78 
Q 1619 -78 1198 103 
Q 778 284 539 648 
Q 300 1013 288 1472 
z
" transform="scale(0.015625)"/>
       <path id="ArialMT-68" d="M 422 0 
L 422 4581 
L 984 4581 
L 984 2938 
Q 1378 3394 1978 3394 
Q 2347 3394 2619 3248 
Q 2891 3103 3008 2847 
Q 3125 2591 3125 2103 
L 3125 0 
L 2563 0 
L 2563 2103 
Q 2563 2525 2380 2717 
Q 2197 2909 1863 2909 
Q 1613 2909 1392 2779 
Q 1172 2650 1078 2428 
Q 984 2206 984 1816 
L 984 0 
L 422 0 
z
" transform="scale(0.015625)"/>
      </defs>
      <use xlink:href="#ArialMT-4d"/>
      <use xlink:href="#ArialMT-65" x="83.300781"/>
      <use xlink:href="#ArialMT-64" x="138.916016"/>
      <use xlink:href="#ArialMT-61" x="194.53125"/>
      <use xlink:href="#ArialMT-6c" x="250.146484"/>
      <use xlink:href="#ArialMT-20" x="272.363281"/>
      <use xlink:href="#ArialMT-4d" x="300.146484"/>
      <use xlink:href="#ArialMT-61" x="383.447266"/>
      <use xlink:href="#ArialMT-72" x="439.0625"/>
      <use xlink:href="#ArialMT-6b" x="472.363281"/>
      <use xlink:href="#ArialMT-65" x="522.363281"/>
      <use xlink:href="#ArialMT-74" x="577.978516"/>
      <use xlink:href="#ArialMT-20" x="605.761719"/>
      <use xlink:href="#ArialMT-53" x="633.544922"/>
      <use xlink:href="#ArialMT-68" x="700.244141"/>
      <use xlink:href="#ArialMT-61" x="755.859375"/>
      <use xlink:href="#ArialMT-72" x="811.474609"/>
      <use xlink:href="#ArialMT-65" x="844.775391"/>
     </g>
    </g>
   </g>
   <g id="line2d_17">
    <path d="M 83.25483 297.223921 
L 105.936364 295.125189 
L 128.617898 24.095455 
L 151.299432 305.021439 
L 173.980966 280.204136 
L 219.344034 275.34253 
L 242.025568 256.74611 
L 264.707102 294.19981 
L 287.388636 242.12319 
L 310.07017 309.149211 
L 378.114773 280.513449 
L 400.796307 296.545127 
L 423.477841 299.765668 
L 446.159375 301.32309 
L 468.840909 291.176439 
L 491.522443 281.068538 
L 514.203977 300.226697 
L 536.885511 301.599417 
L 582.24858 260.46367 
L 604.930114 312.401709 
L 627.611648 310.205156 
L 650.293182 315.39567 
L 672.974716 323.505611 
L 695.65625 319.891398 
L 718.337784 316.652624 
L 741.019318 320.196288 
L 763.700852 313.522755 
L 786.382386 321.726525 
L 809.06392 314.851137 
" clip-path="url(#pfc998ed9a7)" style="fill: none; stroke: #4682b4; stroke-width: 2; stroke-linecap: round"/>
    <defs>
     <path id="mb639b68cd9" d="M 0 2 
C 0.530406 2 1.03916 1.789267 1.414214 1.414214 
C 1.789267 1.03916 2 0.530406 2 0 
C 2 -0.530406 1.789267 -1.03916 1.414214 -1.414214 
C 1.03916 -1.789267 0.530406 -2 0 -2 
C -0.530406 -2 -1.03916 -1.789267 -1.414214 -1.414214 
C -1.789267 -1.03916 -2 -0.530406 -2 0 
C -2 0.530406 -1.789267 1.03916 -1.414214 1.414214 
C -1.03916 1.789267 -0.530406 2 0 2 
z
" style="stroke: #4682b4"/>
    </defs>
    <g clip-path="url(#pfc998ed9a7)">
     <use xlink:href="#mb639b68cd9" x="83.25483" y="297.223921" style="fill: #4682b4; stroke: #4682b4"/>
     <use xlink:href="#mb639b68cd9" x="105.936364" y="295.125189" style="fill: #4682b4; stroke: #4682b4"/>
     <use xlink:href="#mb639b68cd9" x="128.617898" y="24.095455" style="fill: #4682b4; stroke: #4682b4"/>
     <use xlink:href="#mb639b68cd9" x="151.299432" y="305.021439" style="fill: #4682b4; stroke: #4682b4"/>
     <use xlink:href="#mb639b68cd9" x="173.980966" y="280.204136" style="fill: #4682b4; stroke: #4682b4"/>
     <use xlink:href="#mb639b68cd9" x="219.344034" y="275.34253" style="fill: #4682b4; stroke: #4682b4"/>
     <use xlink:href="#mb639b68cd9" x="242.025568" y="256.74611" style="fill: #4682b4; stroke: #4682b4"/>
     <use xlink:href="#mb639b68cd9" x="264.707102" y="294.19981" style="fill: #4682b4; stroke: #4682b4"/>
     <use xlink:href="#mb639b68cd9" x="287.388636" y="242.12319" style="fill: #4682b4; stroke: #4682b4"/>
     <use xlink:href="#mb639b68cd9" x="310.07017" y="309.149211" style="fill: #4682b4; stroke: #4682b4"/>
     <use xlink:href="#mb639b68cd9" x="378.114773" y="280.513449" style="fill: #4682b4; stroke: #4682b4"/>
     <use xlink:href="#mb639b68cd9" x="400.796307" y="296.545127" style="fill: #4682b4; stroke: #4682b4"/>
     <use xlink:href="#mb639b68cd9" x="423.477841" y="299.765668" style="fill: #4682b4; stroke: #4682b4"/>
     <use xlink:href="#mb639b68cd9" x="446.159375" y="301.32309" style="fill: #4682b4; stroke: #4682b4"/>
     <use xlink:href="#mb639b68cd9" x="468.840909" y="291.176439" style="fill: #4682b4; stroke: #4682b4"/>
     <use xlink:href="#mb639b68cd9" x="491.522443" y="281.068538" style="fill: #4682b4; stroke: #4682b4"/>
     <use xlink:href="#mb639b68cd9" x="514.203977" y="300.226697" style="fill: #4682b4; stroke: #4682b4"/>
     <use xlink:href="#mb639b68cd9" x="536.885511" y="301.599417" style="fill: #4682b4; stroke: #4682b4"/>
     <use xlink:href="#mb639b68cd9" x="582.24858" y="260.46367" style="fill: #4682b4; stroke: #4682b4"/>
     <use xlink:href="#mb639b68cd9" x="604.930114" y="312.401709" style="fill: #4682b4; stroke: #4682b4"/>
     <use xlink:href="#mb639b68cd9" x="627.611648" y="310.205156" style="fill: #4682b4; stroke: #4682b4"/>
     <use xlink:href="#mb639b68cd9" x="650.293182" y="315.39567" style="fill: #4682b4; stroke: #4682b4"/>
     <use xlink:href="#mb639b68cd9" x="672.974716" y="323.505611" style="fill: #4682b4; stroke: #4682b4"/>
     <use xlink:href="#mb639b68cd9" x="695.65625" y="319.891398" style="fill: #4682b4; stroke: #4682b4"/>
     <use xlink:href="#mb639b68cd9" x="718.337784" y="316.652624" style="fill: #4682b4; stroke: #4682b4"/>
     <use xlink:href="#mb639b68cd9" x="741.019318" y="320.196288" style="fill: #4682b4; stroke: #4682b4"/>
     <use xlink:href="#mb639b68cd9" x="763.700852" y="313.522755" style="fill: #4682b4; stroke: #4682b4"/>
     <use xlink:href="#mb639b68cd9" x="786.382386" y="321.726525" style="fill: #4682b4; stroke: #4682b4"/>
     <use xlink:href="#mb639b68cd9" x="809.06392" y="314.851137" style="fill: #4682b4; stroke: #4682b4"/>
    </g>
   </g>
   <g id="line2d_18">
    <path d="M 400.796307 301.045824 
L 423.477841 278.62295 
L 446.159375 272.643597 
L 468.840909 286.257821 
L 491.522443 293.612415 
L 514.203977 296.783664 
L 536.885511 280.705318 
L 559.567045 237.274304 
L 604.930114 291.156472 
" clip-path="url(#pfc998ed9a7)" style="fill: none; stroke: #ff0000; stroke-width: 2; stroke-linecap: round"/>
    <defs>
     <path id="me946d7992e" d="M 0 2 
C 0.530406 2 1.03916 1.789267 1.414214 1.414214 
C 1.789267 1.03916 2 0.530406 2 0 
C 2 -0.530406 1.789267 -1.03916 1.414214 -1.414214 
C 1.03916 -1.789267 0.530406 -2 0 -2 
C -0.530406 -2 -1.03916 -1.789267 -1.414214 -1.414214 
C -1.789267 -1.03916 -2 -0.530406 -2 0 
C -2 0.530406 -1.789267 1.03916 -1.414214 1.414214 
C -1.03916 1.789267 -0.530406 2 0 2 
z
" style="stroke: #ff0000"/>
    </defs>
    <g clip-path="url(#pfc998ed9a7)">
     <use xlink:href="#me946d7992e" x="400.796307" y="301.045824" style="fill: #ff0000; stroke: #ff0000"/>
     <use xlink:href="#me946d7992e" x="423.477841" y="278.62295" style="fill: #ff0000; stroke: #ff0000"/>
     <use xlink:href="#me946d7992e" x="446.159375" y="272.643597" style="fill: #ff0000; stroke: #ff0000"/>
     <use xlink:href="#me946d7992e" x="468.840909" y="286.257821" style="fill: #ff0000; stroke: #ff0000"/>
     <use xlink:href="#me946d7992e" x="491.522443" y="293.612415" style="fill: #ff0000; stroke: #ff0000"/>
     <use xlink:href="#me946d7992e" x="514.203977" y="296.783664" style="fill: #ff0000; stroke: #ff0000"/>
     <use xlink:href="#me946d7992e" x="536.885511" y="280.705318" style="fill: #ff0000; stroke: #ff0000"/>
     <use xlink:href="#me946d7992e" x="559.567045" y="237.274304" style="fill: #ff0000; stroke: #ff0000"/>
     <use xlink:href="#me946d7992e" x="604.930114" y="291.156472" style="fill: #ff0000; stroke: #ff0000"/>
    </g>
   </g>
   <g id="line2d_19">
    <path d="M 650.293182 334.042024 
L 672.974716 325.288411 
L 695.65625 324.799393 
L 718.337784 339.07906 
L 741.019318 336.981074 
L 763.700852 341.152032 
" clip-path="url(#pfc998ed9a7)" style="fill: none; stroke: #ff6b6b; stroke-width: 2; stroke-linecap: round"/>
    <defs>
     <path id="m910daf2545" d="M 0 2 
C 0.530406 2 1.03916 1.789267 1.414214 1.414214 
C 1.789267 1.03916 2 0.530406 2 0 
C 2 -0.530406 1.789267 -1.03916 1.414214 -1.414214 
C 1.03916 -1.789267 0.530406 -2 0 -2 
C -0.530406 -2 -1.03916 -1.789267 -1.414214 -1.414214 
C -1.789267 -1.03916 -2 -0.530406 -2 0 
C -2 0.530406 -1.789267 1.03916 -1.414214 1.414214 
C -1.03916 1.789267 -0.530406 2 0 2 
z
" style="stroke: #ff6b6b"/>
    </defs>
    <g clip-path="url(#pfc998ed9a7)">
     <use xlink:href="#m910daf2545" x="650.293182" y="334.042024" style="fill: #ff6b6b; stroke: #ff6b6b"/>
     <use xlink:href="#m910daf2545" x="672.974716" y="325.288411" style="fill: #ff6b6b; stroke: #ff6b6b"/>
     <use xlink:href="#m910daf2545" x="695.65625" y="324.799393" style="fill: #ff6b6b; stroke: #ff6b6b"/>
     <use xlink:href="#m910daf2545" x="718.337784" y="339.07906" style="fill: #ff6b6b; stroke: #ff6b6b"/>
     <use xlink:href="#m910daf2545" x="741.019318" y="336.981074" style="fill: #ff6b6b; stroke: #ff6b6b"/>
     <use xlink:href="#m910daf2545" x="763.700852" y="341.152032" style="fill: #ff6b6b; stroke: #ff6b6b"/>
    </g>
   </g>
   <g id="line2d_20">
    <path d="M 582.24858 345.738788 
L 604.930114 349.301331 
L 627.611648 337.580436 
L 650.293182 340.42104 
L 672.974716 339.105113 
L 695.65625 336.84629 
L 718.337784 321.827955 
L 741.019318 325.360838 
L 763.700852 335.201111 
L 786.382386 330.907946 
L 809.06392 328.769076 
" clip-path="url(#pfc998ed9a7)" style="fill: none; stroke: #ff7f50; stroke-width: 2; stroke-linecap: round"/>
    <defs>
     <path id="m97e86c689a" d="M 0 2 
C 0.530406 2 1.03916 1.789267 1.414214 1.414214 
C 1.789267 1.03916 2 0.530406 2 0 
C 2 -0.530406 1.789267 -1.03916 1.414214 -1.414214 
C 1.03916 -1.789267 0.530406 -2 0 -2 
C -0.530406 -2 -1.03916 -1.789267 -1.414214 -1.414214 
C -1.789267 -1.03916 -2 -0.530406 -2 0 
C -2 0.530406 -1.789267 1.03916 -1.414214 1.414214 
C -1.03916 1.789267 -0.530406 2 0 2 
z
" style="stroke: #ff7f50"/>
    </defs>
    <g clip-path="url(#pfc998ed9a7)">
     <use xlink:href="#m97e86c689a" x="582.24858" y="345.738788" style="fill: #ff7f50; stroke: #ff7f50"/>
     <use xlink:href="#m97e86c689a" x="604.930114" y="349.301331" style="fill: #ff7f50; stroke: #ff7f50"/>
     <use xlink:href="#m97e86c689a" x="627.611648" y="337.580436" style="fill: #ff7f50; stroke: #ff7f50"/>
     <use xlink:href="#m97e86c689a" x="650.293182" y="340.42104" style="fill: #ff7f50; stroke: #ff7f50"/>
     <use xlink:href="#m97e86c689a" x="672.974716" y="339.105113" style="fill: #ff7f50; stroke: #ff7f50"/>
     <use xlink:href="#m97e86c689a" x="695.65625" y="336.84629" style="fill: #ff7f50; stroke: #ff7f50"/>
     <use xlink:href="#m97e86c689a" x="718.337784" y="321.827955" style="fill: #ff7f50; stroke: #ff7f50"/>
     <use xlink:href="#m97e86c689a" x="741.019318" y="325.360838" style="fill: #ff7f50; stroke: #ff7f50"/>
     <use xlink:href="#m97e86c689a" x="763.700852" y="335.201111" style="fill: #ff7f50; stroke: #ff7f50"/>
     <use xlink:href="#m97e86c689a" x="786.382386" y="330.907946" style="fill: #ff7f50; stroke: #ff7f50"/>
     <use xlink:href="#m97e86c689a" x="809.06392" y="328.769076" style="fill: #ff7f50; stroke: #ff7f50"/>
    </g>
   </g>
   <g id="line2d_21">
    <path d="M 83.25483 341.249588 
L 105.936364 319.856834 
L 128.617898 362.004545 
L 151.299432 178.776898 
L 173.980966 310.661735 
L 219.344034 325.337255 
L 242.025568 327.792821 
L 264.707102 339.68575 
L 287.388636 345.972508 
L 310.07017 351.248856 
L 378.114773 341.834619 
L 400.796307 355.054184 
L 423.477841 343.812998 
L 446.159375 347.031033 
L 468.840909 350.199861 
L 491.522443 354.763816 
L 514.203977 352.560798 
L 536.885511 356.193675 
L 559.567045 351.205411 
L 582.24858 342.736143 
L 604.930114 351.537672 
L 627.611648 354.816724 
L 650.293182 357.595314 
L 672.974716 352.476115 
L 695.65625 351.570275 
L 718.337784 342.960558 
L 741.019318 336.981074 
L 763.700852 336.476308 
L 786.382386 340.471927 
L 809.06392 339.108116 
" clip-path="url(#pfc998ed9a7)" style="fill: none; stroke: #228b22; stroke-width: 2; stroke-linecap: round"/>
    <defs>
     <path id="mcf65102746" d="M 0 2 
C 0.530406 2 1.03916 1.789267 1.414214 1.414214 
C 1.789267 1.03916 2 0.530406 2 0 
C 2 -0.530406 1.789267 -1.03916 1.414214 -1.414214 
C 1.03916 -1.789267 0.530406 -2 0 -2 
C -0.530406 -2 -1.03916 -1.789267 -1.414214 -1.414214 
C -1.789267 -1.03916 -2 -0.530406 -2 0 
C -2 0.530406 -1.789267 1.03916 -1.414214 1.414214 
C -1.03916 1.789267 -0.530406 2 0 2 
z
" style="stroke: #228b22"/>
    </defs>
    <g clip-path="url(#pfc998ed9a7)">
     <use xlink:href="#mcf65102746" x="83.25483" y="341.249588" style="fill: #228b22; stroke: #228b22"/>
     <use xlink:href="#mcf65102746" x="105.936364" y="319.856834" style="fill: #228b22; stroke: #228b22"/>
     <use xlink:href="#mcf65102746" x="128.617898" y="362.004545" style="fill: #228b22; stroke: #228b22"/>
     <use xlink:href="#mcf65102746" x="151.299432" y="178.776898" style="fill: #228b22; stroke: #228b22"/>
     <use xlink:href="#mcf65102746" x="173.980966" y="310.661735" style="fill: #228b22; stroke: #228b22"/>
     <use xlink:href="#mcf65102746" x="219.344034" y="325.337255" style="fill: #228b22; stroke: #228b22"/>
     <use xlink:href="#mcf65102746" x="242.025568" y="327.792821" style="fill: #228b22; stroke: #228b22"/>
     <use xlink:href="#mcf65102746" x="264.707102" y="339.68575" style="fill: #228b22; stroke: #228b22"/>
     <use xlink:href="#mcf65102746" x="287.388636" y="345.972508" style="fill: #228b22; stroke: #228b22"/>
     <use xlink:href="#mcf65102746" x="310.07017" y="351.248856" style="fill: #228b22; stroke: #228b22"/>
     <use xlink:href="#mcf65102746" x="378.114773" y="341.834619" style="fill: #228b22; stroke: #228b22"/>
     <use xlink:href="#mcf65102746" x="400.796307" y="355.054184" style="fill: #228b22; stroke: #228b22"/>
     <use xlink:href="#mcf65102746" x="423.477841" y="343.812998" style="fill: #228b22; stroke: #228b22"/>
     <use xlink:href="#mcf65102746" x="446.159375" y="347.031033" style="fill: #228b22; stroke: #228b22"/>
     <use xlink:href="#mcf65102746" x="468.840909" y="350.199861" style="fill: #228b22; stroke: #228b22"/>
     <use xlink:href="#mcf65102746" x="491.522443" y="354.763816" style="fill: #228b22; stroke: #228b22"/>
     <use xlink:href="#mcf65102746" x="514.203977" y="352.560798" style="fill: #228b22; stroke: #228b22"/>
     <use xlink:href="#mcf65102746" x="536.885511" y="356.193675" style="fill: #228b22; stroke: #228b22"/>
     <use xlink:href="#mcf65102746" x="559.567045" y="351.205411" style="fill: #228b22; stroke: #228b22"/>
     <use xlink:href="#mcf65102746" x="582.24858" y="342.736143" style="fill: #228b22; stroke: #228b22"/>
     <use xlink:href="#mcf65102746" x="604.930114" y="351.537672" style="fill: #228b22; stroke: #228b22"/>
     <use xlink:href="#mcf65102746" x="627.611648" y="354.816724" style="fill: #228b22; stroke: #228b22"/>
     <use xlink:href="#mcf65102746" x="650.293182" y="357.595314" style="fill: #228b22; stroke: #228b22"/>
     <use xlink:href="#mcf65102746" x="672.974716" y="352.476115" style="fill: #228b22; stroke: #228b22"/>
     <use xlink:href="#mcf65102746" x="695.65625" y="351.570275" style="fill: #228b22; stroke: #228b22"/>
     <use xlink:href="#mcf65102746" x="718.337784" y="342.960558" style="fill: #228b22; stroke: #228b22"/>
     <use xlink:href="#mcf65102746" x="741.019318" y="336.981074" style="fill: #228b22; stroke: #228b22"/>
     <use xlink:href="#mcf65102746" x="763.700852" y="336.476308" style="fill: #228b22; stroke: #228b22"/>
     <use xlink:href="#mcf65102746" x="786.382386" y="340.471927" style="fill: #228b22; stroke: #228b22"/>
     <use xlink:href="#mcf65102746" x="809.06392" y="339.108116" style="fill: #228b22; stroke: #228b22"/>
    </g>
   </g>
   <g id="line2d_22">
    <path d="M 621.941264 378.9 
L 621.941264 7.2 
" clip-path="url(#pfc998ed9a7)" style="fill: none; stroke-dasharray: 1.5,2.475; stroke-dashoffset: 0; stroke: #808080; stroke-opacity: 0.5; stroke-width: 1.5"/>
   </g>
   <g id="patch_3">
    <path d="M 46.964375 378.9 
L 46.964375 7.2 
" style="fill: none; stroke: #cccccc; stroke-width: 1.25; stroke-linejoin: miter; stroke-linecap: square"/>
   </g>
   <g id="patch_4">
    <path d="M 845.354375 378.9 
L 845.354375 7.2 
" style="fill: none; stroke: #cccccc; stroke-width: 1.25; stroke-linejoin: miter; stroke-linecap: square"/>
   </g>
   <g id="patch_5">
    <path d="M 46.964375 378.9 
L 845.354375 378.9 
" style="fill: none; stroke: #cccccc; stroke-width: 1.25; stroke-linejoin: miter; stroke-linecap: square"/>
   </g>
   <g id="patch_6">
    <path d="M 46.964375 7.2 
L 845.354375 7.2 
" style="fill: none; stroke: #cccccc; stroke-width: 1.25; stroke-linejoin: miter; stroke-linecap: square"/>
   </g>
   <g id="text_19">
    <!-- USSR Dissolved -->
    <g style="fill: #262626; opacity: 0.7" transform="translate(621.941264 220.348333) scale(0.08 -0.08)">
     <defs>
      <path id="ArialMT-55" d="M 3500 4581 
L 4106 4581 
L 4106 1934 
Q 4106 1244 3950 837 
Q 3794 431 3386 176 
Q 2978 -78 2316 -78 
Q 1672 -78 1262 144 
Q 853 366 678 786 
Q 503 1206 503 1934 
L 503 4581 
L 1109 4581 
L 1109 1938 
Q 1109 1341 1220 1058 
Q 1331 775 1601 622 
Q 1872 469 2263 469 
Q 2931 469 3215 772 
Q 3500 1075 3500 1938 
L 3500 4581 
z
" transform="scale(0.015625)"/>
      <path id="ArialMT-52" d="M 503 0 
L 503 4581 
L 2534 4581 
Q 3147 4581 3465 4457 
Q 3784 4334 3975 4021 
Q 4166 3709 4166 3331 
Q 4166 2844 3850 2509 
Q 3534 2175 2875 2084 
Q 3116 1969 3241 1856 
Q 3506 1613 3744 1247 
L 4541 0 
L 3778 0 
L 3172 953 
Q 2906 1366 2734 1584 
Q 2563 1803 2427 1890 
Q 2291 1978 2150 2013 
Q 2047 2034 1813 2034 
L 1109 2034 
L 1109 0 
L 503 0 
z
M 1109 2559 
L 2413 2559 
Q 2828 2559 3062 2645 
Q 3297 2731 3419 2920 
Q 3541 3109 3541 3331 
Q 3541 3656 3305 3865 
Q 3069 4075 2559 4075 
L 1109 4075 
L 1109 2559 
z
" transform="scale(0.015625)"/>
      <path id="ArialMT-44" d="M 494 0 
L 494 4581 
L 2072 4581 
Q 2606 4581 2888 4516 
Q 3281 4425 3559 4188 
Q 3922 3881 4101 3404 
Q 4281 2928 4281 2316 
Q 4281 1794 4159 1391 
Q 4038 988 3847 723 
Q 3656 459 3429 307 
Q 3203 156 2883 78 
Q 2563 0 2147 0 
L 494 0 
z
M 1100 541 
L 2078 541 
Q 2531 541 2789 625 
Q 3047 709 3200 863 
Q 3416 1078 3536 1442 
Q 3656 1806 3656 2325 
Q 3656 3044 3420 3430 
Q 3184 3816 2847 3947 
Q 2603 4041 2063 4041 
L 1100 4041 
L 1100 541 
z
" transform="scale(0.015625)"/>
      <path id="ArialMT-69" d="M 425 3934 
L 425 4581 
L 988 4581 
L 988 3934 
L 425 3934 
z
M 425 0 
L 425 3319 
L 988 3319 
L 988 0 
L 425 0 
z
" transform="scale(0.015625)"/>
      <path id="ArialMT-73" d="M 197 991 
L 753 1078 
Q 800 744 1014 566 
Q 1228 388 1613 388 
Q 2000 388 2187 545 
Q 2375 703 2375 916 
Q 2375 1106 2209 1216 
Q 2094 1291 1634 1406 
Q 1016 1563 777 1677 
Q 538 1791 414 1992 
Q 291 2194 291 2438 
Q 291 2659 392 2848 
Q 494 3038 669 3163 
Q 800 3259 1026 3326 
Q 1253 3394 1513 3394 
Q 1903 3394 2198 3281 
Q 2494 3169 2634 2976 
Q 2775 2784 2828 2463 
L 2278 2388 
Q 2241 2644 2061 2787 
Q 1881 2931 1553 2931 
Q 1166 2931 1000 2803 
Q 834 2675 834 2503 
Q 834 2394 903 2306 
Q 972 2216 1119 2156 
Q 1203 2125 1616 2013 
Q 2213 1853 2448 1751 
Q 2684 1650 2818 1456 
Q 2953 1263 2953 975 
Q 2953 694 2789 445 
Q 2625 197 2315 61 
Q 2006 -75 1616 -75 
Q 969 -75 630 194 
Q 291 463 197 991 
z
" transform="scale(0.015625)"/>
      <path id="ArialMT-6f" d="M 213 1659 
Q 213 2581 725 3025 
Q 1153 3394 1769 3394 
Q 2453 3394 2887 2945 
Q 3322 2497 3322 1706 
Q 3322 1066 3130 698 
Q 2938 331 2570 128 
Q 2203 -75 1769 -75 
Q 1072 -75 642 372 
Q 213 819 213 1659 
z
M 791 1659 
Q 791 1022 1069 705 
Q 1347 388 1769 388 
Q 2188 388 2466 706 
Q 2744 1025 2744 1678 
Q 2744 2294 2464 2611 
Q 2184 2928 1769 2928 
Q 1347 2928 1069 2612 
Q 791 2297 791 1659 
z
" transform="scale(0.015625)"/>
      <path id="ArialMT-76" d="M 1344 0 
L 81 3319 
L 675 3319 
L 1388 1331 
Q 1503 1009 1600 663 
Q 1675 925 1809 1294 
L 2547 3319 
L 3125 3319 
L 1869 0 
L 1344 0 
z
" transform="scale(0.015625)"/>
     </defs>
     <use xlink:href="#ArialMT-55"/>
     <use xlink:href="#ArialMT-53" x="72.216797"/>
     <use xlink:href="#ArialMT-53" x="138.916016"/>
     <use xlink:href="#ArialMT-52" x="205.615234"/>
     <use xlink:href="#ArialMT-20" x="277.832031"/>
     <use xlink:href="#ArialMT-44" x="305.615234"/>
     <use xlink:href="#ArialMT-69" x="377.832031"/>
     <use xlink:href="#ArialMT-73" x="400.048828"/>
     <use xlink:href="#ArialMT-73" x="450.048828"/>
     <use xlink:href="#ArialMT-6f" x="500.048828"/>
     <use xlink:href="#ArialMT-6c" x="555.664062"/>
     <use xlink:href="#ArialMT-76" x="577.880859"/>
     <use xlink:href="#ArialMT-65" x="627.880859"/>
     <use xlink:href="#ArialMT-64" x="683.496094"/>
    </g>
   </g>
   <g id="legend_1">
    <g id="patch_7">
     <path d="M 736.42 93.799219 
L 837.654375 93.799219 
Q 839.854375 93.799219 839.854375 91.599219 
L 839.854375 14.9 
Q 839.854375 12.7 837.654375 12.7 
L 736.42 12.7 
Q 734.22 12.7 734.22 14.9 
L 734.22 91.599219 
Q 734.22 93.799219 736.42 93.799219 
z
" style="fill: #ffffff; opacity: 0.8; stroke: #cccccc; stroke-linejoin: miter"/>
    </g>
    <g id="line2d_23">
     <path d="M 738.62 21.123594 
L 749.62 21.123594 
L 760.62 21.123594 
" style="fill: none; stroke: #4682b4; stroke-width: 2; stroke-linecap: round"/>
     <g>
      <use xlink:href="#mb639b68cd9" x="749.62" y="21.123594" style="fill: #4682b4; stroke: #4682b4"/>
     </g>
    </g>
    <g id="text_20">
     <!-- United States -->
     <g style="fill: #262626" transform="translate(769.42 24.973594) scale(0.11 -0.11)">
      <defs>
       <path id="ArialMT-6e" d="M 422 0 
L 422 3319 
L 928 3319 
L 928 2847 
Q 1294 3394 1984 3394 
Q 2284 3394 2536 3286 
Q 2788 3178 2913 3003 
Q 3038 2828 3088 2588 
Q 3119 2431 3119 2041 
L 3119 0 
L 2556 0 
L 2556 2019 
Q 2556 2363 2490 2533 
Q 2425 2703 2258 2804 
Q 2091 2906 1866 2906 
Q 1506 2906 1245 2678 
Q 984 2450 984 1813 
L 984 0 
L 422 0 
z
" transform="scale(0.015625)"/>
      </defs>
      <use xlink:href="#ArialMT-55"/>
      <use xlink:href="#ArialMT-6e" x="72.216797"/>
      <use xlink:href="#ArialMT-69" x="127.832031"/>
      <use xlink:href="#ArialMT-74" x="150.048828"/>
      <use xlink:href="#ArialMT-65" x="177.832031"/>
      <use xlink:href="#ArialMT-64" x="233.447266"/>
      <use xlink:href="#ArialMT-20" x="289.0625"/>
      <use xlink:href="#ArialMT-53" x="316.845703"/>
      <use xlink:href="#ArialMT-74" x="383.544922"/>
      <use xlink:href="#ArialMT-61" x="411.328125"/>
      <use xlink:href="#ArialMT-74" x="466.943359"/>
      <use xlink:href="#ArialMT-65" x="494.726562"/>
      <use xlink:href="#ArialMT-73" x="550.341797"/>
     </g>
    </g>
    <g id="line2d_24">
     <path d="M 738.62 36.683438 
L 749.62 36.683438 
L 760.62 36.683438 
" style="fill: none; stroke: #ff0000; stroke-width: 2; stroke-linecap: round"/>
     <g>
      <use xlink:href="#me946d7992e" x="749.62" y="36.683438" style="fill: #ff0000; stroke: #ff0000"/>
     </g>
    </g>
    <g id="text_21">
     <!-- Soviet Union -->
     <g style="fill: #262626" transform="translate(769.42 40.533438) scale(0.11 -0.11)">
      <use xlink:href="#ArialMT-53"/>
      <use xlink:href="#ArialMT-6f" x="66.699219"/>
      <use xlink:href="#ArialMT-76" x="122.314453"/>
      <use xlink:href="#ArialMT-69" x="172.314453"/>
      <use xlink:href="#ArialMT-65" x="194.53125"/>
      <use xlink:href="#ArialMT-74" x="250.146484"/>
      <use xlink:href="#ArialMT-20" x="277.929688"/>
      <use xlink:href="#ArialMT-55" x="305.712891"/>
      <use xlink:href="#ArialMT-6e" x="377.929688"/>
      <use xlink:href="#ArialMT-69" x="433.544922"/>
      <use xlink:href="#ArialMT-6f" x="455.761719"/>
      <use xlink:href="#ArialMT-6e" x="511.376953"/>
     </g>
    </g>
    <g id="line2d_25">
     <path d="M 738.62 52.243281 
L 749.62 52.243281 
L 760.62 52.243281 
" style="fill: none; stroke: #ff6b6b; stroke-width: 2; stroke-linecap: round"/>
     <g>
      <use xlink:href="#m910daf2545" x="749.62" y="52.243281" style="fill: #ff6b6b; stroke: #ff6b6b"/>
     </g>
    </g>
    <g id="text_22">
     <!-- Russia -->
     <g style="fill: #262626" transform="translate(769.42 56.093281) scale(0.11 -0.11)">
      <defs>
       <path id="ArialMT-75" d="M 2597 0 
L 2597 488 
Q 2209 -75 1544 -75 
Q 1250 -75 995 37 
Q 741 150 617 320 
Q 494 491 444 738 
Q 409 903 409 1263 
L 409 3319 
L 972 3319 
L 972 1478 
Q 972 1038 1006 884 
Q 1059 663 1231 536 
Q 1403 409 1656 409 
Q 1909 409 2131 539 
Q 2353 669 2445 892 
Q 2538 1116 2538 1541 
L 2538 3319 
L 3100 3319 
L 3100 0 
L 2597 0 
z
" transform="scale(0.015625)"/>
      </defs>
      <use xlink:href="#ArialMT-52"/>
      <use xlink:href="#ArialMT-75" x="72.216797"/>
      <use xlink:href="#ArialMT-73" x="127.832031"/>
      <use xlink:href="#ArialMT-73" x="177.832031"/>
      <use xlink:href="#ArialMT-69" x="227.832031"/>
      <use xlink:href="#ArialMT-61" x="250.048828"/>
     </g>
    </g>
    <g id="line2d_26">
     <path d="M 738.62 67.803125 
L 749.62 67.803125 
L 760.62 67.803125 
" style="fill: none; stroke: #ff7f50; stroke-width: 2; stroke-linecap: round"/>
     <g>
      <use xlink:href="#m97e86c689a" x="749.62" y="67.803125" style="fill: #ff7f50; stroke: #ff7f50"/>
     </g>
    </g>
    <g id="text_23">
     <!-- China -->
     <g style="fill: #262626" transform="translate(769.42 71.653125) scale(0.11 -0.11)">
      <defs>
       <path id="ArialMT-43" d="M 3763 1606 
L 4369 1453 
Q 4178 706 3683 314 
Q 3188 -78 2472 -78 
Q 1731 -78 1267 223 
Q 803 525 561 1097 
Q 319 1669 319 2325 
Q 319 3041 592 3573 
Q 866 4106 1370 4382 
Q 1875 4659 2481 4659 
Q 3169 4659 3637 4309 
Q 4106 3959 4291 3325 
L 3694 3184 
Q 3534 3684 3231 3912 
Q 2928 4141 2469 4141 
Q 1941 4141 1586 3887 
Q 1231 3634 1087 3207 
Q 944 2781 944 2328 
Q 944 1744 1114 1308 
Q 1284 872 1643 656 
Q 2003 441 2422 441 
Q 2931 441 3284 734 
Q 3638 1028 3763 1606 
z
" transform="scale(0.015625)"/>
      </defs>
      <use xlink:href="#ArialMT-43"/>
      <use xlink:href="#ArialMT-68" x="72.216797"/>
      <use xlink:href="#ArialMT-69" x="127.832031"/>
      <use xlink:href="#ArialMT-6e" x="150.048828"/>
      <use xlink:href="#ArialMT-61" x="205.664062"/>
     </g>
    </g>
    <g id="line2d_27">
     <path d="M 738.62 83.362969 
L 749.62 83.362969 
L 760.62 83.362969 
" style="fill: none; stroke: #228b22; stroke-width: 2; stroke-linecap: round"/>
     <g>
      <use xlink:href="#mcf65102746" x="749.62" y="83.362969" style="fill: #228b22; stroke: #228b22"/>
     </g>
    </g>
    <g id="text_24">
     <!-- Great Britain -->
     <g style="fill: #262626" transform="translate(769.42 87.212969) scale(0.11 -0.11)">
      <defs>
       <path id="ArialMT-47" d="M 2638 1797 
L 2638 2334 
L 4578 2338 
L 4578 638 
Q 4131 281 3656 101 
Q 3181 -78 2681 -78 
Q 2006 -78 1454 211 
Q 903 500 622 1047 
Q 341 1594 341 2269 
Q 341 2938 620 3517 
Q 900 4097 1425 4378 
Q 1950 4659 2634 4659 
Q 3131 4659 3532 4498 
Q 3934 4338 4162 4050 
Q 4391 3763 4509 3300 
L 3963 3150 
Q 3859 3500 3706 3700 
Q 3553 3900 3268 4020 
Q 2984 4141 2638 4141 
Q 2222 4141 1919 4014 
Q 1616 3888 1430 3681 
Q 1244 3475 1141 3228 
Q 966 2803 966 2306 
Q 966 1694 1177 1281 
Q 1388 869 1791 669 
Q 2194 469 2647 469 
Q 3041 469 3416 620 
Q 3791 772 3984 944 
L 3984 1797 
L 2638 1797 
z
" transform="scale(0.015625)"/>
       <path id="ArialMT-42" d="M 469 0 
L 469 4581 
L 2188 4581 
Q 2713 4581 3030 4442 
Q 3347 4303 3526 4014 
Q 3706 3725 3706 3409 
Q 3706 3116 3547 2856 
Q 3388 2597 3066 2438 
Q 3481 2316 3704 2022 
Q 3928 1728 3928 1328 
Q 3928 1006 3792 729 
Q 3656 453 3456 303 
Q 3256 153 2954 76 
Q 2653 0 2216 0 
L 469 0 
z
M 1075 2656 
L 2066 2656 
Q 2469 2656 2644 2709 
Q 2875 2778 2992 2937 
Q 3109 3097 3109 3338 
Q 3109 3566 3000 3739 
Q 2891 3913 2687 3977 
Q 2484 4041 1991 4041 
L 1075 4041 
L 1075 2656 
z
M 1075 541 
L 2216 541 
Q 2509 541 2628 563 
Q 2838 600 2978 687 
Q 3119 775 3209 942 
Q 3300 1109 3300 1328 
Q 3300 1584 3169 1773 
Q 3038 1963 2805 2039 
Q 2572 2116 2134 2116 
L 1075 2116 
L 1075 541 
z
" transform="scale(0.015625)"/>
      </defs>
      <use xlink:href="#ArialMT-47"/>
      <use xlink:href="#ArialMT-72" x="77.783203"/>
      <use xlink:href="#ArialMT-65" x="111.083984"/>
      <use xlink:href="#ArialMT-61" x="166.699219"/>
      <use xlink:href="#ArialMT-74" x="222.314453"/>
      <use xlink:href="#ArialMT-20" x="250.097656"/>
      <use xlink:href="#ArialMT-42" x="277.880859"/>
      <use xlink:href="#ArialMT-72" x="344.580078"/>
      <use xlink:href="#ArialMT-69" x="377.880859"/>
      <use xlink:href="#ArialMT-74" x="400.097656"/>
      <use xlink:href="#ArialMT-61" x="427.880859"/>
      <use xlink:href="#ArialMT-69" x="483.496094"/>
      <use xlink:href="#ArialMT-6e" x="505.712891"/>
     </g>
    </g>
   </g>
  </g>
 </g>
 <defs>
  <clipPath id="pfc998ed9a7">
   <rect x="46.964375" y="7.2" width="798.39" height="371.7"/>
  </clipPath>
 </defs>
</svg>
